<?xml version="1.0" encoding="utf-8" standalone="no"?>
<!DOCTYPE svg PUBLIC "-//W3C//DTD SVG 1.1//EN"
  "http://www.w3.org/Graphics/SVG/1.1/DTD/svg11.dtd">
<svg xmlns:xlink="http://www.w3.org/1999/xlink" width="288pt" height="288pt" viewBox="0 0 288 288" xmlns="http://www.w3.org/2000/svg" version="1.1">
 <metadata>
  <rdf:RDF xmlns:dc="http://purl.org/dc/elements/1.1/" xmlns:cc="http://creativecommons.org/ns#" xmlns:rdf="http://www.w3.org/1999/02/22-rdf-syntax-ns#">
   <cc:Work>
    <dc:type rdf:resource="http://purl.org/dc/dcmitype/StillImage"/>
    <dc:date>2025-11-13T12:17:57.974046</dc:date>
    <dc:format>image/svg+xml</dc:format>
    <dc:creator>
     <cc:Agent>
      <dc:title>Matplotlib v3.10.6, https://matplotlib.org/</dc:title>
     </cc:Agent>
    </dc:creator>
   </cc:Work>
  </rdf:RDF>
 </metadata>
 <defs>
  <style type="text/css">*{stroke-linejoin: round; stroke-linecap: butt}</style>
 </defs>
 <g id="figure_1">
  <g id="patch_1">
   <path d="M 0 288 
L 288 288 
L 288 0 
L 0 0 
z
" style="fill: #ffffff"/>
  </g>
  <g id="axes_1">
   <g id="patch_2">
    <path d="M 59.42 246.04 
L 267.615 246.04 
L 267.615 25.44 
L 59.42 25.44 
z
" style="fill: #ffffff"/>
   </g>
   <g id="matplotlib.axis_1">
    <g id="xtick_1">
     <g id="line2d_1">
      <defs>
       <path id="m7129d434fd" d="M 0 0 
L 0 3.5 
" style="stroke: #000000; stroke-width: 0.8"/>
      </defs>
      <g>
       <use xlink:href="#m7129d434fd" x="59.42" y="246.04" style="stroke: #000000; stroke-width: 0.8"/>
      </g>
     </g>
     <g id="text_1">
      <!-- −180 -->
      <g transform="translate(45.686406 260.638438) scale(0.1 -0.1)">
       <defs>
        <path id="DejaVuSans-2212" d="M 678 2272 
L 4684 2272 
L 4684 1741 
L 678 1741 
L 678 2272 
z
" transform="scale(0.015625)"/>
        <path id="DejaVuSans-31" d="M 794 531 
L 1825 531 
L 1825 4091 
L 703 3866 
L 703 4441 
L 1819 4666 
L 2450 4666 
L 2450 531 
L 3481 531 
L 3481 0 
L 794 0 
L 794 531 
z
" transform="scale(0.015625)"/>
        <path id="DejaVuSans-38" d="M 2034 2216 
Q 1584 2216 1326 1975 
Q 1069 1734 1069 1313 
Q 1069 891 1326 650 
Q 1584 409 2034 409 
Q 2484 409 2743 651 
Q 3003 894 3003 1313 
Q 3003 1734 2745 1975 
Q 2488 2216 2034 2216 
z
M 1403 2484 
Q 997 2584 770 2862 
Q 544 3141 544 3541 
Q 544 4100 942 4425 
Q 1341 4750 2034 4750 
Q 2731 4750 3128 4425 
Q 3525 4100 3525 3541 
Q 3525 3141 3298 2862 
Q 3072 2584 2669 2484 
Q 3125 2378 3379 2068 
Q 3634 1759 3634 1313 
Q 3634 634 3220 271 
Q 2806 -91 2034 -91 
Q 1263 -91 848 271 
Q 434 634 434 1313 
Q 434 1759 690 2068 
Q 947 2378 1403 2484 
z
M 1172 3481 
Q 1172 3119 1398 2916 
Q 1625 2713 2034 2713 
Q 2441 2713 2670 2916 
Q 2900 3119 2900 3481 
Q 2900 3844 2670 4047 
Q 2441 4250 2034 4250 
Q 1625 4250 1398 4047 
Q 1172 3844 1172 3481 
z
" transform="scale(0.015625)"/>
        <path id="DejaVuSans-30" d="M 2034 4250 
Q 1547 4250 1301 3770 
Q 1056 3291 1056 2328 
Q 1056 1369 1301 889 
Q 1547 409 2034 409 
Q 2525 409 2770 889 
Q 3016 1369 3016 2328 
Q 3016 3291 2770 3770 
Q 2525 4250 2034 4250 
z
M 2034 4750 
Q 2819 4750 3233 4129 
Q 3647 3509 3647 2328 
Q 3647 1150 3233 529 
Q 2819 -91 2034 -91 
Q 1250 -91 836 529 
Q 422 1150 422 2328 
Q 422 3509 836 4129 
Q 1250 4750 2034 4750 
z
" transform="scale(0.015625)"/>
       </defs>
       <use xlink:href="#DejaVuSans-2212"/>
       <use xlink:href="#DejaVuSans-31" transform="translate(83.789062 0)"/>
       <use xlink:href="#DejaVuSans-38" transform="translate(147.412109 0)"/>
       <use xlink:href="#DejaVuSans-30" transform="translate(211.035156 0)"/>
      </g>
     </g>
    </g>
    <g id="xtick_2">
     <g id="line2d_2">
      <g>
       <use xlink:href="#m7129d434fd" x="85.444375" y="246.04" style="stroke: #000000; stroke-width: 0.8"/>
      </g>
     </g>
     <g id="text_2">
      <!-- −135 -->
      <g transform="translate(71.710781 260.638438) scale(0.1 -0.1)">
       <defs>
        <path id="DejaVuSans-33" d="M 2597 2516 
Q 3050 2419 3304 2112 
Q 3559 1806 3559 1356 
Q 3559 666 3084 287 
Q 2609 -91 1734 -91 
Q 1441 -91 1130 -33 
Q 819 25 488 141 
L 488 750 
Q 750 597 1062 519 
Q 1375 441 1716 441 
Q 2309 441 2620 675 
Q 2931 909 2931 1356 
Q 2931 1769 2642 2001 
Q 2353 2234 1838 2234 
L 1294 2234 
L 1294 2753 
L 1863 2753 
Q 2328 2753 2575 2939 
Q 2822 3125 2822 3475 
Q 2822 3834 2567 4026 
Q 2313 4219 1838 4219 
Q 1578 4219 1281 4162 
Q 984 4106 628 3988 
L 628 4550 
Q 988 4650 1302 4700 
Q 1616 4750 1894 4750 
Q 2613 4750 3031 4423 
Q 3450 4097 3450 3541 
Q 3450 3153 3228 2886 
Q 3006 2619 2597 2516 
z
" transform="scale(0.015625)"/>
        <path id="DejaVuSans-35" d="M 691 4666 
L 3169 4666 
L 3169 4134 
L 1269 4134 
L 1269 2991 
Q 1406 3038 1543 3061 
Q 1681 3084 1819 3084 
Q 2600 3084 3056 2656 
Q 3513 2228 3513 1497 
Q 3513 744 3044 326 
Q 2575 -91 1722 -91 
Q 1428 -91 1123 -41 
Q 819 9 494 109 
L 494 744 
Q 775 591 1075 516 
Q 1375 441 1709 441 
Q 2250 441 2565 725 
Q 2881 1009 2881 1497 
Q 2881 1984 2565 2268 
Q 2250 2553 1709 2553 
Q 1456 2553 1204 2497 
Q 953 2441 691 2322 
L 691 4666 
z
" transform="scale(0.015625)"/>
       </defs>
       <use xlink:href="#DejaVuSans-2212"/>
       <use xlink:href="#DejaVuSans-31" transform="translate(83.789062 0)"/>
       <use xlink:href="#DejaVuSans-33" transform="translate(147.412109 0)"/>
       <use xlink:href="#DejaVuSans-35" transform="translate(211.035156 0)"/>
      </g>
     </g>
    </g>
    <g id="xtick_3">
     <g id="line2d_3">
      <g>
       <use xlink:href="#m7129d434fd" x="111.46875" y="246.04" style="stroke: #000000; stroke-width: 0.8"/>
      </g>
     </g>
     <g id="text_3">
      <!-- −90 -->
      <g transform="translate(100.916406 260.638438) scale(0.1 -0.1)">
       <defs>
        <path id="DejaVuSans-39" d="M 703 97 
L 703 672 
Q 941 559 1184 500 
Q 1428 441 1663 441 
Q 2288 441 2617 861 
Q 2947 1281 2994 2138 
Q 2813 1869 2534 1725 
Q 2256 1581 1919 1581 
Q 1219 1581 811 2004 
Q 403 2428 403 3163 
Q 403 3881 828 4315 
Q 1253 4750 1959 4750 
Q 2769 4750 3195 4129 
Q 3622 3509 3622 2328 
Q 3622 1225 3098 567 
Q 2575 -91 1691 -91 
Q 1453 -91 1209 -44 
Q 966 3 703 97 
z
M 1959 2075 
Q 2384 2075 2632 2365 
Q 2881 2656 2881 3163 
Q 2881 3666 2632 3958 
Q 2384 4250 1959 4250 
Q 1534 4250 1286 3958 
Q 1038 3666 1038 3163 
Q 1038 2656 1286 2365 
Q 1534 2075 1959 2075 
z
" transform="scale(0.015625)"/>
       </defs>
       <use xlink:href="#DejaVuSans-2212"/>
       <use xlink:href="#DejaVuSans-39" transform="translate(83.789062 0)"/>
       <use xlink:href="#DejaVuSans-30" transform="translate(147.412109 0)"/>
      </g>
     </g>
    </g>
    <g id="xtick_4">
     <g id="line2d_4">
      <g>
       <use xlink:href="#m7129d434fd" x="137.493125" y="246.04" style="stroke: #000000; stroke-width: 0.8"/>
      </g>
     </g>
     <g id="text_4">
      <!-- −45 -->
      <g transform="translate(126.940781 260.638438) scale(0.1 -0.1)">
       <defs>
        <path id="DejaVuSans-34" d="M 2419 4116 
L 825 1625 
L 2419 1625 
L 2419 4116 
z
M 2253 4666 
L 3047 4666 
L 3047 1625 
L 3713 1625 
L 3713 1100 
L 3047 1100 
L 3047 0 
L 2419 0 
L 2419 1100 
L 313 1100 
L 313 1709 
L 2253 4666 
z
" transform="scale(0.015625)"/>
       </defs>
       <use xlink:href="#DejaVuSans-2212"/>
       <use xlink:href="#DejaVuSans-34" transform="translate(83.789062 0)"/>
       <use xlink:href="#DejaVuSans-35" transform="translate(147.412109 0)"/>
      </g>
     </g>
    </g>
    <g id="xtick_5">
     <g id="line2d_5">
      <g>
       <use xlink:href="#m7129d434fd" x="163.5175" y="246.04" style="stroke: #000000; stroke-width: 0.8"/>
      </g>
     </g>
     <g id="text_5">
      <!-- 0 -->
      <g transform="translate(160.33625 260.638438) scale(0.1 -0.1)">
       <use xlink:href="#DejaVuSans-30"/>
      </g>
     </g>
    </g>
    <g id="xtick_6">
     <g id="line2d_6">
      <g>
       <use xlink:href="#m7129d434fd" x="189.541875" y="246.04" style="stroke: #000000; stroke-width: 0.8"/>
      </g>
     </g>
     <g id="text_6">
      <!-- 45 -->
      <g transform="translate(183.179375 260.638438) scale(0.1 -0.1)">
       <use xlink:href="#DejaVuSans-34"/>
       <use xlink:href="#DejaVuSans-35" transform="translate(63.623047 0)"/>
      </g>
     </g>
    </g>
    <g id="xtick_7">
     <g id="line2d_7">
      <g>
       <use xlink:href="#m7129d434fd" x="215.56625" y="246.04" style="stroke: #000000; stroke-width: 0.8"/>
      </g>
     </g>
     <g id="text_7">
      <!-- 90 -->
      <g transform="translate(209.20375 260.638438) scale(0.1 -0.1)">
       <use xlink:href="#DejaVuSans-39"/>
       <use xlink:href="#DejaVuSans-30" transform="translate(63.623047 0)"/>
      </g>
     </g>
    </g>
    <g id="xtick_8">
     <g id="line2d_8">
      <g>
       <use xlink:href="#m7129d434fd" x="241.590625" y="246.04" style="stroke: #000000; stroke-width: 0.8"/>
      </g>
     </g>
     <g id="text_8">
      <!-- 135 -->
      <g transform="translate(232.046875 260.638438) scale(0.1 -0.1)">
       <use xlink:href="#DejaVuSans-31"/>
       <use xlink:href="#DejaVuSans-33" transform="translate(63.623047 0)"/>
       <use xlink:href="#DejaVuSans-35" transform="translate(127.246094 0)"/>
      </g>
     </g>
    </g>
    <g id="xtick_9">
     <g id="line2d_9">
      <g>
       <use xlink:href="#m7129d434fd" x="267.615" y="246.04" style="stroke: #000000; stroke-width: 0.8"/>
      </g>
     </g>
     <g id="text_9">
      <!-- 180 -->
      <g transform="translate(258.07125 260.638438) scale(0.1 -0.1)">
       <use xlink:href="#DejaVuSans-31"/>
       <use xlink:href="#DejaVuSans-38" transform="translate(63.623047 0)"/>
       <use xlink:href="#DejaVuSans-30" transform="translate(127.246094 0)"/>
      </g>
     </g>
    </g>
    <g id="text_10">
     <!-- Phi (degree) -->
     <g transform="translate(132.933125 274.316562) scale(0.1 -0.1)">
      <defs>
       <path id="DejaVuSans-50" d="M 1259 4147 
L 1259 2394 
L 2053 2394 
Q 2494 2394 2734 2622 
Q 2975 2850 2975 3272 
Q 2975 3691 2734 3919 
Q 2494 4147 2053 4147 
L 1259 4147 
z
M 628 4666 
L 2053 4666 
Q 2838 4666 3239 4311 
Q 3641 3956 3641 3272 
Q 3641 2581 3239 2228 
Q 2838 1875 2053 1875 
L 1259 1875 
L 1259 0 
L 628 0 
L 628 4666 
z
" transform="scale(0.015625)"/>
       <path id="DejaVuSans-68" d="M 3513 2113 
L 3513 0 
L 2938 0 
L 2938 2094 
Q 2938 2591 2744 2837 
Q 2550 3084 2163 3084 
Q 1697 3084 1428 2787 
Q 1159 2491 1159 1978 
L 1159 0 
L 581 0 
L 581 4863 
L 1159 4863 
L 1159 2956 
Q 1366 3272 1645 3428 
Q 1925 3584 2291 3584 
Q 2894 3584 3203 3211 
Q 3513 2838 3513 2113 
z
" transform="scale(0.015625)"/>
       <path id="DejaVuSans-69" d="M 603 3500 
L 1178 3500 
L 1178 0 
L 603 0 
L 603 3500 
z
M 603 4863 
L 1178 4863 
L 1178 4134 
L 603 4134 
L 603 4863 
z
" transform="scale(0.015625)"/>
       <path id="DejaVuSans-20" transform="scale(0.015625)"/>
       <path id="DejaVuSans-28" d="M 1984 4856 
Q 1566 4138 1362 3434 
Q 1159 2731 1159 2009 
Q 1159 1288 1364 580 
Q 1569 -128 1984 -844 
L 1484 -844 
Q 1016 -109 783 600 
Q 550 1309 550 2009 
Q 550 2706 781 3412 
Q 1013 4119 1484 4856 
L 1984 4856 
z
" transform="scale(0.015625)"/>
       <path id="DejaVuSans-64" d="M 2906 2969 
L 2906 4863 
L 3481 4863 
L 3481 0 
L 2906 0 
L 2906 525 
Q 2725 213 2448 61 
Q 2172 -91 1784 -91 
Q 1150 -91 751 415 
Q 353 922 353 1747 
Q 353 2572 751 3078 
Q 1150 3584 1784 3584 
Q 2172 3584 2448 3432 
Q 2725 3281 2906 2969 
z
M 947 1747 
Q 947 1113 1208 752 
Q 1469 391 1925 391 
Q 2381 391 2643 752 
Q 2906 1113 2906 1747 
Q 2906 2381 2643 2742 
Q 2381 3103 1925 3103 
Q 1469 3103 1208 2742 
Q 947 2381 947 1747 
z
" transform="scale(0.015625)"/>
       <path id="DejaVuSans-65" d="M 3597 1894 
L 3597 1613 
L 953 1613 
Q 991 1019 1311 708 
Q 1631 397 2203 397 
Q 2534 397 2845 478 
Q 3156 559 3463 722 
L 3463 178 
Q 3153 47 2828 -22 
Q 2503 -91 2169 -91 
Q 1331 -91 842 396 
Q 353 884 353 1716 
Q 353 2575 817 3079 
Q 1281 3584 2069 3584 
Q 2775 3584 3186 3129 
Q 3597 2675 3597 1894 
z
M 3022 2063 
Q 3016 2534 2758 2815 
Q 2500 3097 2075 3097 
Q 1594 3097 1305 2825 
Q 1016 2553 972 2059 
L 3022 2063 
z
" transform="scale(0.015625)"/>
       <path id="DejaVuSans-67" d="M 2906 1791 
Q 2906 2416 2648 2759 
Q 2391 3103 1925 3103 
Q 1463 3103 1205 2759 
Q 947 2416 947 1791 
Q 947 1169 1205 825 
Q 1463 481 1925 481 
Q 2391 481 2648 825 
Q 2906 1169 2906 1791 
z
M 3481 434 
Q 3481 -459 3084 -895 
Q 2688 -1331 1869 -1331 
Q 1566 -1331 1297 -1286 
Q 1028 -1241 775 -1147 
L 775 -588 
Q 1028 -725 1275 -790 
Q 1522 -856 1778 -856 
Q 2344 -856 2625 -561 
Q 2906 -266 2906 331 
L 2906 616 
Q 2728 306 2450 153 
Q 2172 0 1784 0 
Q 1141 0 747 490 
Q 353 981 353 1791 
Q 353 2603 747 3093 
Q 1141 3584 1784 3584 
Q 2172 3584 2450 3431 
Q 2728 3278 2906 2969 
L 2906 3500 
L 3481 3500 
L 3481 434 
z
" transform="scale(0.015625)"/>
       <path id="DejaVuSans-72" d="M 2631 2963 
Q 2534 3019 2420 3045 
Q 2306 3072 2169 3072 
Q 1681 3072 1420 2755 
Q 1159 2438 1159 1844 
L 1159 0 
L 581 0 
L 581 3500 
L 1159 3500 
L 1159 2956 
Q 1341 3275 1631 3429 
Q 1922 3584 2338 3584 
Q 2397 3584 2469 3576 
Q 2541 3569 2628 3553 
L 2631 2963 
z
" transform="scale(0.015625)"/>
       <path id="DejaVuSans-29" d="M 513 4856 
L 1013 4856 
Q 1481 4119 1714 3412 
Q 1947 2706 1947 2009 
Q 1947 1309 1714 600 
Q 1481 -109 1013 -844 
L 513 -844 
Q 928 -128 1133 580 
Q 1338 1288 1338 2009 
Q 1338 2731 1133 3434 
Q 928 4138 513 4856 
z
" transform="scale(0.015625)"/>
      </defs>
      <use xlink:href="#DejaVuSans-50"/>
      <use xlink:href="#DejaVuSans-68" transform="translate(60.302734 0)"/>
      <use xlink:href="#DejaVuSans-69" transform="translate(123.681641 0)"/>
      <use xlink:href="#DejaVuSans-20" transform="translate(151.464844 0)"/>
      <use xlink:href="#DejaVuSans-28" transform="translate(183.251953 0)"/>
      <use xlink:href="#DejaVuSans-64" transform="translate(222.265625 0)"/>
      <use xlink:href="#DejaVuSans-65" transform="translate(285.742188 0)"/>
      <use xlink:href="#DejaVuSans-67" transform="translate(347.265625 0)"/>
      <use xlink:href="#DejaVuSans-72" transform="translate(410.742188 0)"/>
      <use xlink:href="#DejaVuSans-65" transform="translate(449.605469 0)"/>
      <use xlink:href="#DejaVuSans-65" transform="translate(511.128906 0)"/>
      <use xlink:href="#DejaVuSans-29" transform="translate(572.652344 0)"/>
     </g>
    </g>
   </g>
   <g id="matplotlib.axis_2">
    <g id="ytick_1">
     <g id="line2d_10">
      <defs>
       <path id="m07bf4f1472" d="M 0 0 
L -3.5 0 
" style="stroke: #000000; stroke-width: 0.8"/>
      </defs>
      <g>
       <use xlink:href="#m07bf4f1472" x="59.42" y="246.04" style="stroke: #000000; stroke-width: 0.8"/>
      </g>
     </g>
     <g id="text_11">
      <!-- −180 -->
      <g transform="translate(24.952813 249.839219) scale(0.1 -0.1)">
       <use xlink:href="#DejaVuSans-2212"/>
       <use xlink:href="#DejaVuSans-31" transform="translate(83.789062 0)"/>
       <use xlink:href="#DejaVuSans-38" transform="translate(147.412109 0)"/>
       <use xlink:href="#DejaVuSans-30" transform="translate(211.035156 0)"/>
      </g>
     </g>
    </g>
    <g id="ytick_2">
     <g id="line2d_11">
      <g>
       <use xlink:href="#m07bf4f1472" x="59.42" y="218.465" style="stroke: #000000; stroke-width: 0.8"/>
      </g>
     </g>
     <g id="text_12">
      <!-- −135 -->
      <g transform="translate(24.952813 222.264219) scale(0.1 -0.1)">
       <use xlink:href="#DejaVuSans-2212"/>
       <use xlink:href="#DejaVuSans-31" transform="translate(83.789062 0)"/>
       <use xlink:href="#DejaVuSans-33" transform="translate(147.412109 0)"/>
       <use xlink:href="#DejaVuSans-35" transform="translate(211.035156 0)"/>
      </g>
     </g>
    </g>
    <g id="ytick_3">
     <g id="line2d_12">
      <g>
       <use xlink:href="#m07bf4f1472" x="59.42" y="190.89" style="stroke: #000000; stroke-width: 0.8"/>
      </g>
     </g>
     <g id="text_13">
      <!-- −90 -->
      <g transform="translate(31.315313 194.689219) scale(0.1 -0.1)">
       <use xlink:href="#DejaVuSans-2212"/>
       <use xlink:href="#DejaVuSans-39" transform="translate(83.789062 0)"/>
       <use xlink:href="#DejaVuSans-30" transform="translate(147.412109 0)"/>
      </g>
     </g>
    </g>
    <g id="ytick_4">
     <g id="line2d_13">
      <g>
       <use xlink:href="#m07bf4f1472" x="59.42" y="163.315" style="stroke: #000000; stroke-width: 0.8"/>
      </g>
     </g>
     <g id="text_14">
      <!-- −45 -->
      <g transform="translate(31.315313 167.114219) scale(0.1 -0.1)">
       <use xlink:href="#DejaVuSans-2212"/>
       <use xlink:href="#DejaVuSans-34" transform="translate(83.789062 0)"/>
       <use xlink:href="#DejaVuSans-35" transform="translate(147.412109 0)"/>
      </g>
     </g>
    </g>
    <g id="ytick_5">
     <g id="line2d_14">
      <g>
       <use xlink:href="#m07bf4f1472" x="59.42" y="135.74" style="stroke: #000000; stroke-width: 0.8"/>
      </g>
     </g>
     <g id="text_15">
      <!-- 0 -->
      <g transform="translate(46.0575 139.539219) scale(0.1 -0.1)">
       <use xlink:href="#DejaVuSans-30"/>
      </g>
     </g>
    </g>
    <g id="ytick_6">
     <g id="line2d_15">
      <g>
       <use xlink:href="#m07bf4f1472" x="59.42" y="108.165" style="stroke: #000000; stroke-width: 0.8"/>
      </g>
     </g>
     <g id="text_16">
      <!-- 45 -->
      <g transform="translate(39.695 111.964219) scale(0.1 -0.1)">
       <use xlink:href="#DejaVuSans-34"/>
       <use xlink:href="#DejaVuSans-35" transform="translate(63.623047 0)"/>
      </g>
     </g>
    </g>
    <g id="ytick_7">
     <g id="line2d_16">
      <g>
       <use xlink:href="#m07bf4f1472" x="59.42" y="80.59" style="stroke: #000000; stroke-width: 0.8"/>
      </g>
     </g>
     <g id="text_17">
      <!-- 90 -->
      <g transform="translate(39.695 84.389219) scale(0.1 -0.1)">
       <use xlink:href="#DejaVuSans-39"/>
       <use xlink:href="#DejaVuSans-30" transform="translate(63.623047 0)"/>
      </g>
     </g>
    </g>
    <g id="ytick_8">
     <g id="line2d_17">
      <g>
       <use xlink:href="#m07bf4f1472" x="59.42" y="53.015" style="stroke: #000000; stroke-width: 0.8"/>
      </g>
     </g>
     <g id="text_18">
      <!-- 135 -->
      <g transform="translate(33.3325 56.814219) scale(0.1 -0.1)">
       <use xlink:href="#DejaVuSans-31"/>
       <use xlink:href="#DejaVuSans-33" transform="translate(63.623047 0)"/>
       <use xlink:href="#DejaVuSans-35" transform="translate(127.246094 0)"/>
      </g>
     </g>
    </g>
    <g id="ytick_9">
     <g id="line2d_18">
      <g>
       <use xlink:href="#m07bf4f1472" x="59.42" y="25.44" style="stroke: #000000; stroke-width: 0.8"/>
      </g>
     </g>
     <g id="text_19">
      <!-- 180 -->
      <g transform="translate(33.3325 29.239219) scale(0.1 -0.1)">
       <use xlink:href="#DejaVuSans-31"/>
       <use xlink:href="#DejaVuSans-38" transform="translate(63.623047 0)"/>
       <use xlink:href="#DejaVuSans-30" transform="translate(127.246094 0)"/>
      </g>
     </g>
    </g>
    <g id="text_20">
     <!-- Psi (degree) -->
     <g transform="translate(18.873125 165.672813) rotate(-90) scale(0.1 -0.1)">
      <defs>
       <path id="DejaVuSans-73" d="M 2834 3397 
L 2834 2853 
Q 2591 2978 2328 3040 
Q 2066 3103 1784 3103 
Q 1356 3103 1142 2972 
Q 928 2841 928 2578 
Q 928 2378 1081 2264 
Q 1234 2150 1697 2047 
L 1894 2003 
Q 2506 1872 2764 1633 
Q 3022 1394 3022 966 
Q 3022 478 2636 193 
Q 2250 -91 1575 -91 
Q 1294 -91 989 -36 
Q 684 19 347 128 
L 347 722 
Q 666 556 975 473 
Q 1284 391 1588 391 
Q 1994 391 2212 530 
Q 2431 669 2431 922 
Q 2431 1156 2273 1281 
Q 2116 1406 1581 1522 
L 1381 1569 
Q 847 1681 609 1914 
Q 372 2147 372 2553 
Q 372 3047 722 3315 
Q 1072 3584 1716 3584 
Q 2034 3584 2315 3537 
Q 2597 3491 2834 3397 
z
" transform="scale(0.015625)"/>
      </defs>
      <use xlink:href="#DejaVuSans-50"/>
      <use xlink:href="#DejaVuSans-73" transform="translate(58.552734 0)"/>
      <use xlink:href="#DejaVuSans-69" transform="translate(110.652344 0)"/>
      <use xlink:href="#DejaVuSans-20" transform="translate(138.435547 0)"/>
      <use xlink:href="#DejaVuSans-28" transform="translate(170.222656 0)"/>
      <use xlink:href="#DejaVuSans-64" transform="translate(209.236328 0)"/>
      <use xlink:href="#DejaVuSans-65" transform="translate(272.712891 0)"/>
      <use xlink:href="#DejaVuSans-67" transform="translate(334.236328 0)"/>
      <use xlink:href="#DejaVuSans-72" transform="translate(397.712891 0)"/>
      <use xlink:href="#DejaVuSans-65" transform="translate(436.576172 0)"/>
      <use xlink:href="#DejaVuSans-65" transform="translate(498.099609 0)"/>
      <use xlink:href="#DejaVuSans-29" transform="translate(559.623047 0)"/>
     </g>
    </g>
   </g>
   <g id="QuadContourSet_1">
    <path d="M 196.014483 246.078701 
L 196.277716 246.154949 
L 196.540949 246.16392 
L 196.804182 246.112315 
L 197.067415 246.004722 
L 197.078016 245.998304 
L 197.330647 245.844525 
L 197.59388 245.625608 
L 197.857113 245.338775 
L 198.120346 244.969543 
L 198.321369 244.614269 
L 198.383579 244.494238 
L 198.646811 243.872514 
L 198.865668 243.230233 
L 198.910044 243.080618 
L 199.173277 242.054219 
L 199.22129 241.846198 
L 199.43651 240.762281 
L 199.494086 240.462162 
L 199.699743 239.231151 
L 199.726644 239.078127 
L 199.943786 237.694091 
L 199.962976 237.554676 
L 200.165175 236.310056 
L 200.226208 235.878153 
L 200.399158 234.92602 
L 200.489441 234.313573 
L 200.650212 233.541985 
L 200.752674 232.818599 
L 200.904471 232.157949 
L 201.015907 230.944314 
L 201.051941 230.773914 
L 201.015907 230.491971 
L 200.957616 229.389878 
L 200.752674 228.240555 
L 200.726524 228.005843 
L 200.489441 226.690686 
L 200.480338 226.621807 
L 200.237242 225.237772 
L 200.226208 225.185409 
L 199.999461 223.853736 
L 199.962976 223.664918 
L 199.765246 222.469701 
L 199.699743 222.108598 
L 199.534323 221.085665 
L 199.43651 220.521568 
L 199.306031 219.70163 
L 199.173277 218.912374 
L 199.079531 218.317594 
L 198.910044 217.291422 
L 198.853828 216.933559 
L 198.646811 215.670332 
L 198.627775 215.549523 
L 198.400651 214.165488 
L 198.383579 214.065462 
L 198.170717 212.781452 
L 198.120346 212.489248 
L 197.93578 211.397417 
L 197.857113 210.949191 
L 197.694225 210.013381 
L 197.59388 209.456122 
L 197.444125 208.629346 
L 197.330647 208.019781 
L 197.183002 207.24531 
L 197.067415 206.649319 
L 196.907377 205.861275 
L 196.804182 205.354457 
L 196.611961 204.477239 
L 196.540949 204.147644 
L 196.288135 203.093204 
L 196.277716 203.047876 
L 196.014483 202.042396 
L 195.910061 201.709168 
L 195.75125 201.166734 
L 195.488018 200.460167 
L 195.420738 200.325133 
L 195.224785 199.887487 
L 194.961552 199.510616 
L 194.698319 199.337885 
L 194.435086 199.370025 
L 194.171854 199.62007 
L 193.908621 200.112051 
L 193.832805 200.325133 
L 193.645388 200.840737 
L 193.417942 201.709168 
L 193.382155 201.852133 
L 193.135315 203.093204 
L 193.118922 203.183593 
L 192.917479 204.477239 
L 192.855689 204.925018 
L 192.73734 205.861275 
L 192.592457 207.169689 
L 192.58434 207.24531 
L 192.449218 208.629346 
L 192.329683 210.013381 
L 192.329224 210.019126 
L 192.215212 211.397417 
L 192.110129 212.781452 
L 192.065991 213.399018 
L 192.006031 214.165488 
L 191.902856 215.549523 
L 191.804869 216.933559 
L 191.802758 216.965 
L 191.694609 218.317594 
L 191.589972 219.70163 
L 191.539525 220.432568 
L 191.479641 221.085665 
L 191.367367 222.469701 
L 191.276293 223.823471 
L 191.273108 223.853736 
L 191.173812 225.237772 
L 191.129866 226.621807 
L 191.163378 228.005843 
L 191.276293 229.166447 
L 191.291663 229.389878 
L 191.462715 230.773914 
L 191.539525 231.193818 
L 191.677979 232.157949 
L 191.802758 232.817506 
L 191.918062 233.541985 
L 192.065991 234.301363 
L 192.17381 234.92602 
L 192.329224 235.697981 
L 192.443126 236.310056 
L 192.592457 237.021414 
L 192.727857 237.694091 
L 192.855689 238.270692 
L 193.033141 239.078127 
L 193.118922 239.438826 
L 193.367879 240.462162 
L 193.382155 240.517152 
L 193.645388 241.50831 
L 193.742134 241.846198 
L 193.908621 242.401847 
L 194.171854 243.190491 
L 194.186451 243.230233 
L 194.435086 243.890333 
L 194.698319 244.482663 
L 194.767011 244.614269 
L 194.961552 244.985213 
L 195.224785 245.391468 
L 195.488018 245.703957 
L 195.75125 245.929786 
L 195.874035 245.998304 
L 196.014483 246.078701 
z
M 204.701166 239.195814 
L 204.964399 239.420153 
L 205.227632 239.593776 
L 205.490865 239.711798 
L 205.754098 239.765723 
L 206.01733 239.742272 
L 206.280563 239.621905 
L 206.543796 239.376725 
L 206.740508 239.078127 
L 206.807029 238.943521 
L 207.070262 238.14139 
L 207.172886 237.694091 
L 207.333494 236.31216 
L 207.333685 236.310056 
L 207.368391 234.92602 
L 207.333494 233.750364 
L 207.327792 233.541985 
L 207.232155 232.157949 
L 207.095375 230.773914 
L 207.070262 230.578635 
L 206.919759 229.389878 
L 206.807029 228.644868 
L 206.708886 228.005843 
L 206.543796 227.073235 
L 206.460379 226.621807 
L 206.280563 225.749284 
L 206.16761 225.237772 
L 206.01733 224.608596 
L 205.81937 223.853736 
L 205.754098 223.616898 
L 205.490865 222.773384 
L 205.380354 222.469701 
L 205.227632 222.058385 
L 204.964399 221.476811 
L 204.735438 221.085665 
L 204.701166 221.026364 
L 204.437933 220.737201 
L 204.174701 220.618225 
L 203.911468 220.70086 
L 203.648235 221.021969 
L 203.617327 221.085665 
L 203.385002 221.642415 
L 203.141842 222.469701 
L 203.121769 222.549547 
L 202.858537 223.732653 
L 202.832235 223.853736 
L 202.595304 225.080259 
L 202.561482 225.237772 
L 202.332071 226.471416 
L 202.29693 226.621807 
L 202.068838 227.852713 
L 202.027881 228.005843 
L 201.805605 229.297182 
L 201.776495 229.389878 
L 201.640806 230.773914 
L 201.805605 231.958157 
L 201.822104 232.157949 
L 202.068838 233.209434 
L 202.128961 233.541985 
L 202.332071 234.216403 
L 202.519712 234.92602 
L 202.595304 235.131723 
L 202.858537 235.898365 
L 202.999481 236.310056 
L 203.121769 236.595075 
L 203.385002 237.191803 
L 203.624754 237.694091 
L 203.648235 237.736333 
L 203.911468 238.179332 
L 204.174701 238.571789 
L 204.437933 238.912974 
L 204.586313 239.078127 
L 204.701166 239.195814 
z
M 188.907197 225.714857 
L 189.17043 226.209042 
L 189.350715 225.237772 
L 189.206197 223.853736 
L 189.17043 223.671059 
L 188.907197 222.491927 
L 188.891911 222.469701 
L 188.643964 222.211201 
L 188.589833 222.469701 
L 188.595957 223.853736 
L 188.643964 224.297033 
L 188.794998 225.237772 
L 188.907197 225.714857 
z
M 198.646811 189.291689 
L 198.910044 189.482833 
L 199.173277 189.66393 
L 199.43651 189.82951 
L 199.699743 189.973488 
L 199.962976 190.089669 
L 200.226208 190.172222 
L 200.489441 190.216077 
L 200.752674 190.217254 
L 201.015907 190.17313 
L 201.27914 190.082636 
L 201.542372 189.946393 
L 201.805605 189.766757 
L 202.068838 189.547751 
L 202.332071 189.294864 
L 202.371886 189.252849 
L 202.595304 189.05701 
L 202.858537 188.811989 
L 203.121769 188.558424 
L 203.385002 188.301699 
L 203.648235 188.046317 
L 203.83554 187.868813 
L 203.911468 187.808352 
L 204.174701 187.607002 
L 204.437933 187.411824 
L 204.701166 187.221751 
L 204.964399 187.03443 
L 205.227632 186.846098 
L 205.490865 186.65144 
L 205.70338 186.484778 
L 205.754098 186.449692 
L 206.01733 186.253821 
L 206.280563 186.029358 
L 206.543796 185.76594 
L 206.807029 185.452096 
L 207.053707 185.100742 
L 207.070262 185.07895 
L 207.333494 184.687538 
L 207.596727 184.222471 
L 207.841869 183.716707 
L 207.85996 183.681636 
L 208.123193 183.132077 
L 208.386426 182.512421 
L 208.459163 182.332671 
L 208.649659 181.889443 
L 208.912891 181.241448 
L 209.029491 180.948636 
L 209.176124 180.599465 
L 209.439357 179.964818 
L 209.603979 179.5646 
L 209.70259 179.333203 
L 209.965823 178.719184 
L 210.189321 178.180565 
L 210.229055 178.085155 
L 210.492288 177.44836 
L 210.738616 176.796529 
L 210.755521 176.749778 
L 211.018754 175.978745 
L 211.187719 175.412494 
L 211.281987 175.059607 
L 211.521421 174.028458 
L 211.54522 173.906531 
L 211.762926 172.644423 
L 211.808452 172.305167 
L 211.936114 171.260387 
L 212.056851 169.876352 
L 212.071685 169.638873 
L 212.141227 168.492316 
L 212.195602 167.108281 
L 212.226527 165.724245 
L 212.239567 164.34021 
L 212.239041 162.956174 
L 212.228363 161.572139 
L 212.210274 160.188103 
L 212.187023 158.804068 
L 212.160495 157.420032 
L 212.1323 156.035997 
L 212.103823 154.651961 
L 212.076228 153.267926 
L 212.071685 153.013078 
L 212.053499 151.88389 
L 212.03334 150.499855 
L 212.015007 149.115819 
L 211.998136 147.731784 
L 211.982258 146.347748 
L 211.967051 144.963713 
L 211.952604 143.579677 
L 211.939568 142.195642 
L 211.929142 140.811606 
L 211.922924 139.427571 
L 211.922689 138.043535 
L 211.930156 136.6595 
L 211.946754 135.275464 
L 211.9734 133.891429 
L 212.010268 132.507393 
L 212.056611 131.123358 
L 212.071685 130.740698 
L 212.113102 129.739322 
L 212.175433 128.355287 
L 212.238909 126.971251 
L 212.299536 125.587216 
L 212.334918 124.682543 
L 212.354638 124.20318 
L 212.401248 122.819145 
L 212.433984 121.435109 
L 212.450184 120.051074 
L 212.447345 118.667038 
L 212.422834 117.283003 
L 212.373582 115.898967 
L 212.334918 115.194987 
L 212.299521 114.514932 
L 212.200081 113.130896 
L 212.071685 111.789604 
L 212.067784 111.746861 
L 211.915417 110.362825 
L 211.808452 109.556167 
L 211.735386 108.97879 
L 211.54522 107.67485 
L 211.534079 107.594754 
L 211.322944 106.210719 
L 211.281987 105.962086 
L 211.103357 104.826683 
L 211.018754 104.318333 
L 210.878815 103.442648 
L 210.755521 102.699555 
L 210.652456 102.058612 
L 210.492288 101.086329 
L 210.425703 100.674577 
L 210.229055 99.477107 
L 210.198506 99.290541 
L 209.969871 97.906506 
L 209.965823 97.881753 
L 209.738747 96.52247 
L 209.70259 96.306946 
L 209.498356 95.138435 
L 209.439357 94.803016 
L 209.243386 93.754399 
L 209.176124 93.397539 
L 208.966539 92.370364 
L 208.912891 92.109973 
L 208.657963 90.986328 
L 208.649659 90.950065 
L 208.386426 89.888204 
L 208.307277 89.602293 
L 208.123193 88.937841 
L 207.897477 88.218257 
L 207.85996 88.098159 
L 207.596727 87.315549 
L 207.414266 86.834222 
L 207.333494 86.61757 
L 207.070262 85.964264 
L 206.836505 85.450186 
L 206.807029 85.383409 
L 206.543796 84.823382 
L 206.280563 84.329499 
L 206.124851 84.066151 
L 206.01733 83.875478 
L 205.754098 83.449579 
L 205.490865 83.074423 
L 205.227632 82.742771 
L 205.176348 82.682115 
L 204.964399 82.413685 
L 204.701166 82.103733 
L 204.437933 81.812207 
L 204.174701 81.531617 
L 203.953831 81.29808 
L 203.911468 81.249058 
L 203.648235 80.925289 
L 203.385002 80.600243 
L 203.121769 80.276087 
L 202.858537 79.956388 
L 202.825078 79.914044 
L 202.595304 79.5872 
L 202.332071 79.222701 
L 202.068838 78.876708 
L 201.805605 78.552781 
L 201.786816 78.530009 
L 201.542372 78.188085 
L 201.27914 77.849296 
L 201.015907 77.542258 
L 200.752674 77.266521 
L 200.6269 77.145973 
L 200.489441 76.989704 
L 200.226208 76.7185 
L 199.962976 76.480887 
L 199.699743 76.27454 
L 199.43651 76.097059 
L 199.173277 75.945949 
L 198.910044 75.818557 
L 198.77218 75.761938 
L 198.646811 75.698271 
L 198.383579 75.584381 
L 198.120346 75.487709 
L 197.857113 75.403341 
L 197.59388 75.326193 
L 197.330647 75.251337 
L 197.067415 75.174405 
L 196.804182 75.091991 
L 196.540949 75.001961 
L 196.277716 74.90358 
L 196.014483 74.797432 
L 195.75125 74.68517 
L 195.488018 74.569148 
L 195.224785 74.452033 
L 195.057483 74.377902 
L 194.961552 74.323374 
L 194.698319 74.176917 
L 194.435086 74.038697 
L 194.171854 73.910191 
L 193.908621 73.79187 
L 193.645388 73.683222 
L 193.382155 73.582813 
L 193.118922 73.488415 
L 192.855689 73.397181 
L 192.592457 73.305893 
L 192.329224 73.211266 
L 192.065991 73.110288 
L 191.802758 73.000578 
L 191.788121 72.993867 
L 191.539525 72.849625 
L 191.276293 72.68512 
L 191.01306 72.510579 
L 190.749827 72.32918 
L 190.486594 72.14541 
L 190.223361 71.964741 
L 189.960128 71.793261 
L 189.696896 71.637305 
L 189.64312 71.609831 
L 189.433663 71.478562 
L 189.17043 71.348543 
L 188.907197 71.259527 
L 188.643964 71.216566 
L 188.380732 71.223959 
L 188.117499 71.285264 
L 187.854266 71.403322 
L 187.591033 71.580269 
L 187.557277 71.609831 
L 187.3278 71.779908 
L 187.064567 72.023162 
L 186.801335 72.314393 
L 186.538102 72.65166 
L 186.300136 72.993867 
L 186.274869 73.024878 
L 186.011636 73.365408 
L 185.748403 73.731033 
L 185.485171 74.116753 
L 185.31102 74.377902 
L 185.221938 74.491907 
L 184.958705 74.827467 
L 184.695472 75.170913 
L 184.432239 75.524384 
L 184.259739 75.761938 
L 184.169006 75.869732 
L 183.905774 76.192548 
L 183.642541 76.54583 
L 183.379308 76.942902 
L 183.257768 77.145973 
L 183.116075 77.358753 
L 182.852842 77.808876 
L 182.58961 78.345105 
L 182.508768 78.530009 
L 182.326377 78.923097 
L 182.063144 79.587726 
L 181.948604 79.914044 
L 181.799911 80.327878 
L 181.536678 81.163602 
L 181.496994 81.29808 
L 181.273445 82.060115 
L 181.106296 82.682115 
L 181.010213 83.049778 
L 180.757048 84.066151 
L 180.74698 84.108562 
L 180.483747 85.201434 
L 180.422837 85.450186 
L 180.220514 86.324929 
L 180.096798 86.834222 
L 179.957281 87.451941 
L 179.769204 88.218257 
L 179.694049 88.553821 
L 179.431651 89.602293 
L 179.430816 89.606046 
L 179.167583 90.626071 
L 179.062584 90.986328 
L 178.90435 91.618561 
L 178.695493 92.370364 
L 178.641117 92.614191 
L 178.377884 93.715132 
L 178.368158 93.754399 
L 178.126882 95.138435 
L 178.114652 95.26018 
L 177.990093 96.52247 
L 177.950509 97.906506 
L 177.994473 99.290541 
L 178.114652 100.674577 
L 178.114652 100.674577 
L 178.304378 102.058612 
L 178.377884 102.450375 
L 178.561099 103.442648 
L 178.641117 103.788656 
L 178.876466 104.826683 
L 178.90435 104.93121 
L 179.167583 105.9565 
L 179.229479 106.210719 
L 179.430816 106.942665 
L 179.600943 107.594754 
L 179.694049 107.92217 
L 179.957281 108.90427 
L 179.975628 108.97879 
L 180.220514 109.908717 
L 180.333527 110.362825 
L 180.483747 110.938671 
L 180.684796 111.746861 
L 180.74698 111.989017 
L 181.010213 113.061131 
L 181.026361 113.130896 
L 181.273445 114.16922 
L 181.353471 114.514932 
L 181.536678 115.292518 
L 181.67675 115.898967 
L 181.799911 116.427172 
L 181.996748 117.283003 
L 182.063144 117.570901 
L 182.313801 118.667038 
L 182.326377 118.722183 
L 182.58961 119.902001 
L 182.622664 120.051074 
L 182.852842 121.093061 
L 182.928994 121.435109 
L 183.116075 122.281814 
L 183.237 122.819145 
L 183.379308 123.45857 
L 183.5504 124.20318 
L 183.642541 124.610303 
L 183.874663 125.587216 
L 183.905774 125.720846 
L 184.169006 126.802554 
L 184.212897 126.971251 
L 184.432239 127.83976 
L 184.577246 128.355287 
L 184.695472 128.793245 
L 184.958705 129.656912 
L 184.986255 129.739322 
L 185.221938 130.488913 
L 185.461467 131.123358 
L 185.485171 131.191367 
L 185.748403 131.874153 
L 186.011636 132.428902 
L 186.053944 132.507393 
L 186.274869 132.968811 
L 186.538102 133.426387 
L 186.801335 133.804046 
L 186.870367 133.891429 
L 187.064567 134.180233 
L 187.3278 134.521975 
L 187.591033 134.822001 
L 187.854266 135.093782 
L 188.038051 135.275464 
L 188.117499 135.371797 
L 188.380732 135.698465 
L 188.643964 136.025954 
L 188.907197 136.359353 
L 189.136104 136.6595 
L 189.17043 136.715508 
L 189.433663 137.186579 
L 189.696896 137.660997 
L 189.905618 138.043535 
L 189.960128 138.167417 
L 190.223361 138.801074 
L 190.486594 139.410689 
L 190.493408 139.427571 
L 190.749827 140.206291 
L 190.957204 140.811606 
L 191.01306 141.014022 
L 191.276293 141.982084 
L 191.333689 142.195642 
L 191.539525 143.148114 
L 191.632187 143.579677 
L 191.802758 144.587795 
L 191.864832 144.963713 
L 192.035846 146.347748 
L 192.065991 146.718028 
L 192.14391 147.731784 
L 192.196932 149.115819 
L 192.196483 150.499855 
L 192.146961 151.88389 
L 192.065991 153.182783 
L 192.059702 153.267926 
L 191.93815 154.651961 
L 191.814734 156.035997 
L 191.802758 156.179796 
L 191.689994 157.420032 
L 191.58411 158.804068 
L 191.539525 159.518986 
L 191.49491 160.188103 
L 191.422716 161.572139 
L 191.368945 162.956174 
L 191.331549 164.34021 
L 191.309981 165.724245 
L 191.305216 167.108281 
L 191.319459 168.492316 
L 191.355556 169.876352 
L 191.416243 171.260387 
L 191.503469 172.644423 
L 191.539525 173.082067 
L 191.621415 174.028458 
L 191.770521 175.412494 
L 191.802758 175.666035 
L 191.957142 176.796529 
L 192.065991 177.496145 
L 192.182239 178.180565 
L 192.329224 178.968983 
L 192.45206 179.5646 
L 192.592457 180.206445 
L 192.77384 180.948636 
L 192.855689 181.274876 
L 193.118922 182.206908 
L 193.159384 182.332671 
L 193.382155 183.031304 
L 193.632333 183.716707 
L 193.645388 183.753954 
L 193.908621 184.404938 
L 194.171854 184.963513 
L 194.246749 185.100742 
L 194.435086 185.467761 
L 194.698319 185.906009 
L 194.961552 186.276808 
L 195.131095 186.484778 
L 195.224785 186.607119 
L 195.488018 186.916399 
L 195.75125 187.186077 
L 196.014483 187.424726 
L 196.277716 187.639031 
L 196.540949 187.834287 
L 196.587699 187.868813 
L 196.804182 188.036271 
L 197.067415 188.229673 
L 197.330647 188.41375 
L 197.59388 188.59224 
L 197.857113 188.767928 
L 198.120346 188.942376 
L 198.383579 189.11571 
L 198.592375 189.252849 
L 198.646811 189.291689 
z
" clip-path="url(#pf58ebb1cc3)" style="fill: none; stroke: #1f77b4; stroke-width: 1.5"/>
    <path d="M 201.27914 176.921418 
L 201.542372 177.086991 
L 201.805605 177.200887 
L 202.068838 177.267464 
L 202.332071 177.290221 
L 202.595304 177.271729 
L 202.858537 177.21367 
L 203.121769 177.116963 
L 203.385002 176.981924 
L 203.648235 176.808433 
L 203.663228 176.796529 
L 203.911468 176.604267 
L 204.174701 176.362015 
L 204.437933 176.08028 
L 204.701166 175.757826 
L 204.950674 175.412494 
L 204.964399 175.393211 
L 205.227632 174.990982 
L 205.490865 174.54127 
L 205.754098 174.039657 
L 205.759598 174.028458 
L 206.01733 173.481559 
L 206.280563 172.860797 
L 206.365723 172.644423 
L 206.543796 172.16154 
L 206.807029 171.381466 
L 206.845555 171.260387 
L 207.070262 170.485975 
L 207.235276 169.876352 
L 207.333494 169.466949 
L 207.556025 168.492316 
L 207.596727 168.285165 
L 207.821243 167.108281 
L 207.85996 166.865516 
L 208.039894 165.724245 
L 208.123193 165.073841 
L 208.217286 164.34021 
L 208.357306 162.956174 
L 208.386426 162.576704 
L 208.464228 161.572139 
L 208.539168 160.188103 
L 208.584095 158.804068 
L 208.600848 157.420032 
L 208.590902 156.035997 
L 208.555857 154.651961 
L 208.497829 153.267926 
L 208.419671 151.88389 
L 208.386426 151.395592 
L 208.323371 150.499855 
L 208.213973 149.115819 
L 208.123193 148.026927 
L 208.097696 147.731784 
L 207.979884 146.347748 
L 207.871125 144.963713 
L 207.85996 144.796515 
L 207.777288 143.579677 
L 207.707407 142.195642 
L 207.665721 140.811606 
L 207.652999 139.427571 
L 207.666552 138.043535 
L 207.700695 136.6595 
L 207.747942 135.275464 
L 207.800547 133.891429 
L 207.851877 132.507393 
L 207.85996 132.27063 
L 207.899057 131.123358 
L 207.938195 129.739322 
L 207.96767 128.355287 
L 207.987384 126.971251 
L 207.99792 125.587216 
L 208.000098 124.20318 
L 207.994624 122.819145 
L 207.981827 121.435109 
L 207.96145 120.051074 
L 207.932486 118.667038 
L 207.893081 117.283003 
L 207.85996 116.396126 
L 207.842536 115.898967 
L 207.780156 114.514932 
L 207.69813 113.130896 
L 207.596727 111.808133 
L 207.592231 111.746861 
L 207.468885 110.362825 
L 207.333494 109.154937 
L 207.314366 108.97879 
L 207.13657 107.594754 
L 207.070262 107.155099 
L 206.930804 106.210719 
L 206.807029 105.483974 
L 206.697321 104.826683 
L 206.543796 104.011345 
L 206.438727 103.442648 
L 206.280563 102.669803 
L 206.157532 102.058612 
L 206.01733 101.42034 
L 205.855474 100.674577 
L 205.754098 100.241169 
L 205.532859 99.290541 
L 205.490865 99.121327 
L 205.227632 98.04919 
L 205.192956 97.906506 
L 204.964399 97.016683 
L 204.835058 96.52247 
L 204.701166 96.033502 
L 204.447788 95.138435 
L 204.437933 95.104799 
L 204.174701 94.198416 
L 204.039038 93.754399 
L 203.911468 93.345228 
L 203.648235 92.540225 
L 203.591045 92.370364 
L 203.385002 91.760133 
L 203.121769 91.045403 
L 203.099413 90.986328 
L 202.858537 90.339066 
L 202.595304 89.702778 
L 202.551772 89.602293 
L 202.332071 89.075721 
L 202.068838 88.506642 
L 201.923465 88.218257 
L 201.805605 87.970325 
L 201.542372 87.458011 
L 201.27914 87.004018 
L 201.171992 86.834222 
L 201.015907 86.565364 
L 200.752674 86.153188 
L 200.489441 85.788057 
L 200.226208 85.464497 
L 200.213693 85.450186 
L 199.962976 85.13034 
L 199.699743 84.830952 
L 199.43651 84.564025 
L 199.173277 84.325185 
L 198.910044 84.110383 
L 198.852182 84.066151 
L 198.646811 83.886284 
L 198.383579 83.672774 
L 198.120346 83.474819 
L 197.857113 83.289317 
L 197.59388 83.113765 
L 197.330647 82.946312 
L 197.067415 82.785768 
L 196.892527 82.682115 
L 196.804182 82.620336 
L 196.540949 82.439706 
L 196.277716 82.267673 
L 196.014483 82.10531 
L 195.75125 81.953802 
L 195.488018 81.814294 
L 195.224785 81.687753 
L 194.961552 81.574864 
L 194.698319 81.475947 
L 194.435086 81.390906 
L 194.171854 81.319201 
L 194.078266 81.29808 
L 193.908621 81.251588 
L 193.645388 81.192957 
L 193.382155 81.145785 
L 193.118922 81.107698 
L 192.855689 81.076238 
L 192.592457 81.04901 
L 192.329224 81.023832 
L 192.065991 80.998858 
L 191.802758 80.97268 
L 191.539525 80.944415 
L 191.276293 80.913765 
L 191.01306 80.881077 
L 190.749827 80.847375 
L 190.486594 80.814389 
L 190.223361 80.784548 
L 189.960128 80.760947 
L 189.696896 80.74727 
L 189.433663 80.747676 
L 189.17043 80.766656 
L 188.907197 80.808859 
L 188.643964 80.878912 
L 188.380732 80.981232 
L 188.117499 81.119825 
L 187.854266 81.29808 
L 187.854266 81.29808 
L 187.591033 81.487733 
L 187.3278 81.71578 
L 187.064567 81.982445 
L 186.801335 82.286707 
L 186.538102 82.62638 
L 186.497275 82.682115 
L 186.274869 82.96013 
L 186.011636 83.313504 
L 185.748403 83.690998 
L 185.501265 84.066151 
L 185.485171 84.08912 
L 185.221938 84.472386 
L 184.958705 84.884071 
L 184.695472 85.331946 
L 184.62982 85.450186 
L 184.432239 85.801068 
L 184.169006 86.324042 
L 183.944294 86.834222 
L 183.905774 86.924736 
L 183.642541 87.610294 
L 183.44269 88.218257 
L 183.379308 88.429445 
L 183.116075 89.420954 
L 183.072709 89.602293 
L 182.852842 90.676344 
L 182.794929 90.986328 
L 182.58961 92.355 
L 182.587425 92.370364 
L 182.433392 93.754399 
L 182.330751 95.138435 
L 182.326377 95.237035 
L 182.267786 96.52247 
L 182.245416 97.906506 
L 182.260675 99.290541 
L 182.311864 100.674577 
L 182.326377 100.909664 
L 182.391923 102.058612 
L 182.502897 103.442648 
L 182.58961 104.28483 
L 182.642236 104.826683 
L 182.805344 106.210719 
L 182.852842 106.558674 
L 182.988578 107.594754 
L 183.116075 108.4485 
L 183.192745 108.97879 
L 183.379308 110.140349 
L 183.414199 110.362825 
L 183.642541 111.700369 
L 183.650362 111.746861 
L 183.899201 113.130896 
L 183.905774 113.165663 
L 184.161785 114.514932 
L 184.169006 114.551409 
L 184.432239 115.862576 
L 184.439696 115.898967 
L 184.695472 117.103614 
L 184.735125 117.283003 
L 184.958705 118.2684 
L 185.054702 118.667038 
L 185.221938 119.350401 
L 185.407839 120.051074 
L 185.485171 120.341102 
L 185.748403 121.250822 
L 185.806305 121.435109 
L 186.011636 122.094879 
L 186.269938 122.819145 
L 186.274869 122.833318 
L 186.538102 123.542029 
L 186.801335 124.149475 
L 186.826293 124.20318 
L 187.064567 124.741042 
L 187.3278 125.264359 
L 187.506584 125.587216 
L 187.591033 125.750565 
L 187.854266 126.23457 
L 188.117499 126.678672 
L 188.299062 126.971251 
L 188.380732 127.115094 
L 188.643964 127.577544 
L 188.907197 128.0215 
L 189.108186 128.355287 
L 189.17043 128.469863 
L 189.433663 128.966707 
L 189.696896 129.448877 
L 189.856026 129.739322 
L 189.960128 129.951813 
L 190.223361 130.491762 
L 190.486594 131.008637 
L 190.544673 131.123358 
L 190.749827 131.579956 
L 191.01306 132.142514 
L 191.190133 132.507393 
L 191.276293 132.709311 
L 191.539525 133.314855 
L 191.802758 133.88383 
L 191.806294 133.891429 
L 192.065991 134.532529 
L 192.329224 135.143364 
L 192.387388 135.275464 
L 192.592457 135.815361 
L 192.855689 136.474552 
L 192.931777 136.6595 
L 193.118922 137.190851 
L 193.382155 137.901481 
L 193.43675 138.043535 
L 193.645388 138.681193 
L 193.905223 139.427571 
L 193.908621 139.439065 
L 194.171854 140.289481 
L 194.345676 140.811606 
L 194.435086 141.129346 
L 194.698319 142.000805 
L 194.761871 142.195642 
L 194.961552 142.926728 
L 195.15422 143.579677 
L 195.224785 143.868235 
L 195.488018 144.87873 
L 195.511398 144.963713 
L 195.75125 146.047965 
L 195.818855 146.347748 
L 196.014483 147.459046 
L 196.061555 147.731784 
L 196.242438 149.115819 
L 196.277716 149.476265 
L 196.372298 150.499855 
L 196.466351 151.88389 
L 196.537372 153.267926 
L 196.540949 153.354234 
L 196.591456 154.651961 
L 196.638907 156.035997 
L 196.686524 157.420032 
L 196.740871 158.804068 
L 196.804182 160.093349 
L 196.80868 160.188103 
L 196.891906 161.572139 
L 197.003795 162.956174 
L 197.067415 163.566915 
L 197.147224 164.34021 
L 197.330647 165.723419 
L 197.330757 165.724245 
L 197.552416 167.108281 
L 197.59388 167.326074 
L 197.819549 168.492316 
L 197.857113 168.661598 
L 198.120346 169.820085 
L 198.133443 169.876352 
L 198.383579 170.847676 
L 198.49538 171.260387 
L 198.646811 171.777798 
L 198.910044 172.618854 
L 198.918404 172.644423 
L 199.173277 173.383671 
L 199.421066 174.028458 
L 199.43651 174.067209 
L 199.699743 174.685025 
L 199.962976 175.223027 
L 200.067785 175.412494 
L 200.226208 175.695179 
L 200.489441 176.100118 
L 200.752674 176.434743 
L 201.015907 176.704358 
L 201.128764 176.796529 
L 201.27914 176.921418 
z
" clip-path="url(#pf58ebb1cc3)" style="fill: none; stroke: #1f77b4; stroke-width: 1.5"/>
    <path d="M 201.542372 168.496646 
L 201.805605 168.788661 
L 202.068838 168.985255 
L 202.332071 169.088409 
L 202.595304 169.098897 
L 202.858537 169.016789 
L 203.121769 168.841987 
L 203.385002 168.574698 
L 203.446674 168.492316 
L 203.648235 168.192087 
L 203.911468 167.701948 
L 204.174701 167.112606 
L 204.17642 167.108281 
L 204.437933 166.337512 
L 204.621344 165.724245 
L 204.701166 165.395627 
L 204.933816 164.34021 
L 204.964399 164.156723 
L 205.15036 162.956174 
L 205.227632 162.216904 
L 205.291713 161.572139 
L 205.370104 160.188103 
L 205.394992 158.804068 
L 205.373746 157.420032 
L 205.312404 156.035997 
L 205.227632 154.821895 
L 205.216043 154.651961 
L 205.092694 153.267926 
L 204.964399 152.071564 
L 204.944644 151.88389 
L 204.781689 150.499855 
L 204.701166 149.862111 
L 204.607897 149.115819 
L 204.437933 147.790488 
L 204.430419 147.731784 
L 204.260829 146.347748 
L 204.174701 145.574802 
L 204.106213 144.963713 
L 203.980802 143.579677 
L 203.911468 142.422329 
L 203.897844 142.195642 
L 203.87398 140.811606 
L 203.911468 139.680722 
L 203.920286 139.427571 
L 204.046534 138.043535 
L 204.174701 137.158406 
L 204.248362 136.6595 
L 204.437933 135.674227 
L 204.513532 135.275464 
L 204.701166 134.424658 
L 204.812401 133.891429 
L 204.964399 133.210451 
L 205.107717 132.507393 
L 205.227632 131.915487 
L 205.371179 131.123358 
L 205.490865 130.406838 
L 205.590252 129.739322 
L 205.754098 128.438813 
L 205.763596 128.355287 
L 205.895162 126.971251 
L 205.989408 125.587216 
L 206.01733 124.985976 
L 206.052213 124.20318 
L 206.087744 122.819145 
L 206.098743 121.435109 
L 206.087722 120.051074 
L 206.056158 118.667038 
L 206.01733 117.627449 
L 206.005448 117.283003 
L 205.939283 115.898967 
L 205.853737 114.514932 
L 205.754098 113.22598 
L 205.74721 113.130896 
L 205.628435 111.746861 
L 205.490865 110.417626 
L 205.485493 110.362825 
L 205.330883 108.97879 
L 205.227632 108.181765 
L 205.154725 107.594754 
L 204.964399 106.253208 
L 204.958569 106.210719 
L 204.748543 104.826683 
L 204.701166 104.545181 
L 204.51863 103.442648 
L 204.437933 102.998803 
L 204.267639 102.058612 
L 204.174701 101.585931 
L 203.993652 100.674577 
L 203.911468 100.289059 
L 203.693079 99.290541 
L 203.648235 99.097174 
L 203.385002 97.999326 
L 203.361984 97.906506 
L 203.121769 96.979011 
L 202.995356 96.52247 
L 202.858537 96.042563 
L 202.595304 95.189355 
L 202.578835 95.138435 
L 202.332071 94.383635 
L 202.102573 93.754399 
L 202.068838 93.661415 
L 201.805605 92.976015 
L 201.542372 92.370364 
L 201.542372 92.370364 
L 201.27914 91.781674 
L 201.015907 91.260173 
L 200.864028 90.986328 
L 200.752674 90.775666 
L 200.489441 90.316666 
L 200.226208 89.906618 
L 200.010298 89.602293 
L 199.962976 89.530793 
L 199.699743 89.156519 
L 199.43651 88.817576 
L 199.173277 88.509173 
L 198.910044 88.227191 
L 198.901383 88.218257 
L 198.646811 87.929816 
L 198.383579 87.653237 
L 198.120346 87.396134 
L 197.857113 87.156381 
L 197.59388 86.93235 
L 197.473187 86.834222 
L 197.330647 86.703617 
L 197.067415 86.474239 
L 196.804182 86.260963 
L 196.540949 86.063834 
L 196.277716 85.883064 
L 196.014483 85.718941 
L 195.75125 85.571746 
L 195.505508 85.450186 
L 195.488018 85.440135 
L 195.224785 85.307209 
L 194.961552 85.194659 
L 194.698319 85.101727 
L 194.435086 85.027281 
L 194.171854 84.969836 
L 193.908621 84.927615 
L 193.645388 84.898632 
L 193.382155 84.880805 
L 193.118922 84.872079 
L 192.855689 84.870534 
L 192.592457 84.874478 
L 192.329224 84.882506 
L 192.065991 84.893533 
L 191.802758 84.906811 
L 191.539525 84.921935 
L 191.276293 84.938861 
L 191.01306 84.957945 
L 190.749827 84.979989 
L 190.486594 85.006313 
L 190.223361 85.038815 
L 189.960128 85.080024 
L 189.696896 85.133116 
L 189.433663 85.201881 
L 189.17043 85.290641 
L 188.907197 85.40411 
L 188.8208 85.450186 
L 188.643964 85.536231 
L 188.380732 85.694515 
L 188.117499 85.888564 
L 187.854266 86.122026 
L 187.591033 86.397655 
L 187.3278 86.71709 
L 187.240523 86.834222 
L 187.064567 87.060879 
L 186.801335 87.436898 
L 186.538102 87.854001 
L 186.32639 88.218257 
L 186.274869 88.306409 
L 186.011636 88.779618 
L 185.748403 89.296859 
L 185.602721 89.602293 
L 185.485171 89.859347 
L 185.221938 90.479494 
L 185.027515 90.986328 
L 184.958705 91.184366 
L 184.695472 92.014008 
L 184.593764 92.370364 
L 184.432239 93.044193 
L 184.27977 93.754399 
L 184.169006 94.422387 
L 184.06015 95.138435 
L 183.915921 96.52247 
L 183.905774 96.683224 
L 183.83139 97.906506 
L 183.798674 99.290541 
L 183.810656 100.674577 
L 183.862283 102.058612 
L 183.905774 102.739541 
L 183.947999 103.442648 
L 184.063655 104.826683 
L 184.169006 105.820269 
L 184.20861 106.210719 
L 184.377245 107.594754 
L 184.432239 107.985778 
L 184.568487 108.97879 
L 184.695472 109.795241 
L 184.782677 110.362825 
L 184.958705 111.393427 
L 185.019206 111.746861 
L 185.221938 112.829682 
L 185.279386 113.130896 
L 185.485171 114.13187 
L 185.566836 114.514932 
L 185.748403 115.316122 
L 185.887996 115.898967 
L 186.011636 116.391507 
L 186.252807 117.283003 
L 186.274869 117.361966 
L 186.538102 118.254023 
L 186.671488 118.667038 
L 186.801335 119.062529 
L 187.064567 119.798318 
L 187.16181 120.051074 
L 187.3278 120.483179 
L 187.591033 121.113611 
L 187.734699 121.435109 
L 187.854266 121.708162 
L 188.117499 122.280627 
L 188.380732 122.811914 
L 188.384302 122.819145 
L 188.643964 123.365586 
L 188.907197 123.890919 
L 189.066929 124.20318 
L 189.17043 124.416856 
L 189.433663 124.958462 
L 189.696896 125.47809 
L 189.751762 125.587216 
L 189.960128 126.030802 
L 190.223361 126.572602 
L 190.424058 126.971251 
L 190.486594 127.105985 
L 190.749827 127.667315 
L 191.01306 128.195798 
L 191.094604 128.355287 
L 191.276293 128.745889 
L 191.539525 129.283204 
L 191.77787 129.739322 
L 191.802758 129.792399 
L 192.065991 130.337686 
L 192.329224 130.84504 
L 192.48179 131.123358 
L 192.592457 131.351874 
L 192.855689 131.868483 
L 193.118922 132.34973 
L 193.209982 132.507393 
L 193.382155 132.850016 
L 193.645388 133.34044 
L 193.908621 133.794416 
L 193.968943 133.891429 
L 194.171854 134.271404 
L 194.435086 134.723307 
L 194.698319 135.132786 
L 194.799867 135.275464 
L 194.961552 135.542827 
L 195.224785 135.931372 
L 195.488018 136.274336 
L 195.75125 136.575923 
L 195.833685 136.6595 
L 196.014483 136.878342 
L 196.277716 137.164192 
L 196.540949 137.426936 
L 196.804182 137.677518 
L 197.067415 137.927206 
L 197.185399 138.043535 
L 197.330647 138.22035 
L 197.59388 138.567594 
L 197.857113 138.953531 
L 198.120346 139.387279 
L 198.14237 139.427571 
L 198.383579 140.00691 
L 198.646811 140.725321 
L 198.675593 140.811606 
L 198.910044 141.813111 
L 198.990991 142.195642 
L 199.173277 143.577174 
L 199.173582 143.579677 
L 199.264568 144.963713 
L 199.29473 146.347748 
L 199.285302 147.731784 
L 199.253371 149.115819 
L 199.212936 150.499855 
L 199.17543 151.88389 
L 199.173277 151.998933 
L 199.149949 153.267926 
L 199.143684 154.651961 
L 199.161781 156.035997 
L 199.173277 156.378663 
L 199.208395 157.420032 
L 199.287083 158.804068 
L 199.401406 160.188103 
L 199.43651 160.511418 
L 199.557178 161.572139 
L 199.699743 162.564943 
L 199.759943 162.956174 
L 199.962976 164.054818 
L 200.020802 164.34021 
L 200.226208 165.218237 
L 200.35922 165.724245 
L 200.489441 166.167104 
L 200.752674 166.947433 
L 200.815708 167.108281 
L 201.015907 167.578511 
L 201.27914 168.089866 
L 201.539402 168.492316 
L 201.542372 168.496646 
z
" clip-path="url(#pf58ebb1cc3)" style="fill: none; stroke: #1f77b4; stroke-width: 1.5"/>
    <path d="M 202.068838 156.367257 
L 202.189344 156.035997 
L 202.163987 154.651961 
L 202.068838 154.27242 
L 201.884439 154.651961 
L 201.937083 156.035997 
L 202.068838 156.367257 
z
M 200.226208 136.689237 
L 200.489441 136.905282 
L 200.752674 137.020499 
L 201.015907 136.996889 
L 201.27914 136.788996 
L 201.361339 136.6595 
L 201.542372 136.42517 
L 201.805605 135.891617 
L 202.023093 135.275464 
L 202.068838 135.165469 
L 202.332071 134.396383 
L 202.478463 133.891429 
L 202.595304 133.535308 
L 202.858537 132.636673 
L 202.894119 132.507393 
L 203.121769 131.742854 
L 203.294019 131.123358 
L 203.385002 130.807097 
L 203.648235 129.841618 
L 203.675156 129.739322 
L 203.911468 128.82408 
L 204.02427 128.355287 
L 204.174701 127.682873 
L 204.321077 126.971251 
L 204.437933 126.318584 
L 204.557304 125.587216 
L 204.701166 124.481404 
L 204.734234 124.20318 
L 204.859264 122.819145 
L 204.939068 121.435109 
L 204.964399 120.617392 
L 204.981247 120.051074 
L 204.991115 118.667038 
L 204.971957 117.283003 
L 204.964399 117.058554 
L 204.928128 115.898967 
L 204.861257 114.514932 
L 204.771314 113.130896 
L 204.701166 112.274887 
L 204.66019 111.746861 
L 204.530394 110.362825 
L 204.437933 109.528452 
L 204.379341 108.97879 
L 204.208446 107.594754 
L 204.174701 107.352496 
L 204.018875 106.210719 
L 203.911468 105.513228 
L 203.806545 104.826683 
L 203.648235 103.896267 
L 203.570543 103.442648 
L 203.385002 102.45676 
L 203.30842 102.058612 
L 203.121769 101.16364 
L 203.015832 100.674577 
L 202.858537 99.995487 
L 202.686089 99.290541 
L 202.595304 98.938385 
L 202.332071 97.982064 
L 202.310165 97.906506 
L 202.068838 97.103185 
L 201.877058 96.52247 
L 201.805605 96.310207 
L 201.542372 95.580273 
L 201.366741 95.138435 
L 201.27914 94.918088 
L 201.015907 94.303097 
L 200.752758 93.754399 
L 200.752674 93.754221 
L 200.489441 93.222843 
L 200.226208 92.745042 
L 199.999257 92.370364 
L 199.962976 92.308031 
L 199.699743 91.877753 
L 199.43651 91.4853 
L 199.173277 91.125917 
L 199.065312 90.986328 
L 198.910044 90.772761 
L 198.646811 90.431229 
L 198.383579 90.115084 
L 198.120346 89.822053 
L 197.909318 89.602293 
L 197.857113 89.543086 
L 197.59388 89.256295 
L 197.330647 88.991244 
L 197.067415 88.747269 
L 196.804182 88.523909 
L 196.540949 88.320861 
L 196.394857 88.218257 
L 196.277716 88.125917 
L 196.014483 87.939124 
L 195.75125 87.775763 
L 195.488018 87.635398 
L 195.224785 87.517366 
L 194.961552 87.420733 
L 194.698319 87.344265 
L 194.435086 87.286431 
L 194.171854 87.245439 
L 193.908621 87.219315 
L 193.645388 87.20601 
L 193.382155 87.203515 
L 193.118922 87.209985 
L 192.855689 87.223823 
L 192.592457 87.243748 
L 192.329224 87.268807 
L 192.065991 87.29838 
L 191.802758 87.332154 
L 191.539525 87.370114 
L 191.276293 87.412551 
L 191.01306 87.460093 
L 190.749827 87.513762 
L 190.486594 87.57506 
L 190.223361 87.646042 
L 189.960128 87.72939 
L 189.696896 87.82844 
L 189.433663 87.947171 
L 189.17043 88.090124 
L 188.972852 88.218257 
L 188.907197 88.258563 
L 188.643964 88.448561 
L 188.380732 88.676298 
L 188.117499 88.946418 
L 187.854266 89.262913 
L 187.609355 89.602293 
L 187.591033 89.627621 
L 187.3278 90.026777 
L 187.064567 90.47925 
L 186.801335 90.986328 
L 186.801335 90.986328 
L 186.538102 91.544652 
L 186.274869 92.16687 
L 186.194008 92.370364 
L 186.011636 92.875942 
L 185.748403 93.684246 
L 185.72686 93.754399 
L 185.485171 94.6847 
L 185.378172 95.138435 
L 185.221938 95.988768 
L 185.131623 96.52247 
L 184.969793 97.906506 
L 184.958705 98.063925 
L 184.876116 99.290541 
L 184.840706 100.674577 
L 184.854509 102.058612 
L 184.911105 103.442648 
L 184.958705 104.129411 
L 185.004494 104.826683 
L 185.130699 106.210719 
L 185.221938 107.001563 
L 185.288386 107.594754 
L 185.476118 108.97879 
L 185.485171 109.036774 
L 185.691786 110.362825 
L 185.748403 110.682834 
L 185.939433 111.746861 
L 186.011636 112.108337 
L 186.222529 113.130896 
L 186.274869 113.363318 
L 186.538102 114.478344 
L 186.547076 114.514932 
L 186.801335 115.479212 
L 186.919665 115.898967 
L 187.064567 116.386289 
L 187.3278 117.208324 
L 187.352661 117.283003 
L 187.591033 117.974439 
L 187.851146 118.667038 
L 187.854266 118.675216 
L 188.117499 119.352049 
L 188.380732 119.980461 
L 188.410568 120.051074 
L 188.643964 120.604917 
L 188.907197 121.199135 
L 189.013222 121.435109 
L 189.17043 121.792143 
L 189.433663 122.376325 
L 189.639857 122.819145 
L 189.696896 122.946199 
L 189.960128 123.53163 
L 190.223361 124.088775 
L 190.277918 124.20318 
L 190.486594 124.663969 
L 190.749827 125.218447 
L 190.933197 125.587216 
L 191.01306 125.758948 
L 191.276293 126.30683 
L 191.539525 126.817416 
L 191.622396 126.971251 
L 191.802758 127.335218 
L 192.065991 127.833725 
L 192.329224 128.295477 
L 192.365068 128.355287 
L 192.592457 128.775184 
L 192.855689 129.226077 
L 193.118922 129.642853 
L 193.183842 129.739322 
L 193.382155 130.071277 
L 193.645388 130.479001 
L 193.908621 130.853463 
L 194.115407 131.123358 
L 194.171854 131.207654 
L 194.435086 131.568525 
L 194.698319 131.894058 
L 194.961552 132.18553 
L 195.224785 132.444543 
L 195.296774 132.507393 
L 195.488018 132.700958 
L 195.75125 132.935736 
L 196.014483 133.142776 
L 196.277716 133.327321 
L 196.540949 133.495223 
L 196.804182 133.652626 
L 197.067415 133.805576 
L 197.214002 133.891429 
L 197.330647 133.971815 
L 197.59388 134.160209 
L 197.857113 134.359459 
L 198.120346 134.571944 
L 198.383579 134.798235 
L 198.646811 135.037052 
L 198.899799 135.275464 
L 198.910044 135.287279 
L 199.173277 135.591939 
L 199.43651 135.895195 
L 199.699743 136.187024 
L 199.962976 136.454843 
L 200.200275 136.6595 
L 200.226208 136.689237 
z
" clip-path="url(#pf58ebb1cc3)" style="fill: none; stroke: #1f77b4; stroke-width: 1.5"/>
    <path d="M 195.75125 128.374962 
L 196.014483 128.529255 
L 196.277716 128.667414 
L 196.540949 128.792834 
L 196.804182 128.908788 
L 197.067415 129.01819 
L 197.330647 129.123345 
L 197.59388 129.225723 
L 197.857113 129.325756 
L 198.120346 129.422687 
L 198.383579 129.514456 
L 198.646811 129.597622 
L 198.910044 129.667313 
L 199.173277 129.717172 
L 199.43651 129.739322 
L 199.699743 129.724335 
L 199.962976 129.661223 
L 200.226208 129.537509 
L 200.489441 129.339426 
L 200.752674 129.052319 
L 201.015907 128.661323 
L 201.17854 128.355287 
L 201.27914 128.163843 
L 201.542372 127.55883 
L 201.754689 126.971251 
L 201.805605 126.82285 
L 202.068838 125.961923 
L 202.171988 125.587216 
L 202.332071 124.950686 
L 202.505449 124.20318 
L 202.595304 123.761889 
L 202.776956 122.819145 
L 202.858537 122.311237 
L 202.993569 121.435109 
L 203.121769 120.35691 
L 203.156836 120.051074 
L 203.271737 118.667038 
L 203.339531 117.283003 
L 203.365668 115.898967 
L 203.354518 114.514932 
L 203.309327 113.130896 
L 203.232165 111.746861 
L 203.123835 110.362825 
L 203.121769 110.342253 
L 202.988245 108.97879 
L 202.858537 107.903766 
L 202.821662 107.594754 
L 202.624779 106.210719 
L 202.595304 106.030892 
L 202.394812 104.826683 
L 202.332071 104.494765 
L 202.12688 103.442648 
L 202.068838 103.17527 
L 201.81477 102.058612 
L 201.805605 102.021717 
L 201.542372 101.006337 
L 201.450785 100.674577 
L 201.27914 100.094468 
L 201.02151 99.290541 
L 201.015907 99.273904 
L 200.752674 98.525645 
L 200.513545 97.906506 
L 200.489441 97.84594 
L 200.226208 97.212301 
L 199.962976 96.634278 
L 199.909752 96.52247 
L 199.699743 96.085289 
L 199.43651 95.576128 
L 199.191641 95.138435 
L 199.173277 95.105244 
L 198.910044 94.643819 
L 198.646811 94.217883 
L 198.383579 93.824764 
L 198.334352 93.754399 
L 198.120346 93.437601 
L 197.857113 93.076386 
L 197.59388 92.745639 
L 197.330647 92.444088 
L 197.261303 92.370364 
L 197.067415 92.151226 
L 196.804182 91.88209 
L 196.540949 91.643124 
L 196.277716 91.433475 
L 196.014483 91.25227 
L 195.75125 91.098559 
L 195.519398 90.986328 
L 195.488018 90.969683 
L 195.224785 90.857129 
L 194.961552 90.770803 
L 194.698319 90.708475 
L 194.435086 90.667695 
L 194.171854 90.645884 
L 193.908621 90.640469 
L 193.645388 90.649031 
L 193.382155 90.66946 
L 193.118922 90.700061 
L 192.855689 90.739625 
L 192.592457 90.787439 
L 192.329224 90.843258 
L 192.065991 90.907247 
L 191.802758 90.97993 
L 191.781959 90.986328 
L 191.539525 91.05638 
L 191.276293 91.142584 
L 191.01306 91.240598 
L 190.749827 91.35241 
L 190.486594 91.480518 
L 190.223361 91.628023 
L 189.960128 91.798689 
L 189.696896 91.996973 
L 189.433663 92.227992 
L 189.291806 92.370364 
L 189.17043 92.494418 
L 188.907197 92.802849 
L 188.643964 93.163962 
L 188.380732 93.584387 
L 188.285353 93.754399 
L 188.117499 94.077944 
L 187.854266 94.653147 
L 187.657745 95.138435 
L 187.591033 95.32648 
L 187.3278 96.140634 
L 187.215691 96.52247 
L 187.064567 97.153927 
L 186.899718 97.906506 
L 186.801335 98.511442 
L 186.682906 99.290541 
L 186.54915 100.674577 
L 186.538102 100.904493 
L 186.484439 102.058612 
L 186.480374 103.442648 
L 186.52996 104.826683 
L 186.538102 104.939547 
L 186.626643 106.210719 
L 186.769621 107.594754 
L 186.801335 107.829018 
L 186.955959 108.97879 
L 187.064567 109.629821 
L 187.187668 110.362825 
L 187.3278 111.065003 
L 187.466434 111.746861 
L 187.591033 112.28068 
L 187.795317 113.130896 
L 187.854266 113.350968 
L 188.117499 114.308443 
L 188.175433 114.514932 
L 188.380732 115.187309 
L 188.606553 115.898967 
L 188.643964 116.009956 
L 188.907197 116.784025 
L 189.082449 117.283003 
L 189.17043 117.52388 
L 189.433663 118.234625 
L 189.598346 118.667038 
L 189.696896 118.920889 
L 189.960128 119.587062 
L 190.150357 120.051074 
L 190.223361 120.229113 
L 190.486594 120.857786 
L 190.742381 121.435109 
L 190.749827 121.452221 
L 191.01306 122.044217 
L 191.276293 122.597215 
L 191.387361 122.819145 
L 191.539525 123.134562 
L 191.802758 123.647462 
L 192.065991 124.12119 
L 192.114326 124.20318 
L 192.329224 124.588869 
L 192.592457 125.024465 
L 192.855689 125.423719 
L 192.972203 125.587216 
L 193.118922 125.809484 
L 193.382155 126.176312 
L 193.645388 126.510382 
L 193.908621 126.814038 
L 194.058387 126.971251 
L 194.171854 127.102447 
L 194.435086 127.378329 
L 194.698319 127.625899 
L 194.961552 127.847052 
L 195.224785 128.043762 
L 195.488018 128.2182 
L 195.721321 128.355287 
L 195.75125 128.374962 
z
" clip-path="url(#pf58ebb1cc3)" style="fill: none; stroke: #1f77b4; stroke-width: 1.5"/>
    <path d="M 198.120346 125.624086 
L 198.383579 125.641815 
L 198.646811 125.634806 
L 198.910044 125.59585 
L 198.939432 125.587216 
L 199.173277 125.519029 
L 199.43651 125.391986 
L 199.699743 125.201143 
L 199.962976 124.931279 
L 200.226208 124.565325 
L 200.427958 124.20318 
L 200.489441 124.083228 
L 200.752674 123.456788 
L 200.968869 122.819145 
L 201.015907 122.659573 
L 201.27914 121.628169 
L 201.323024 121.435109 
L 201.542372 120.259161 
L 201.578146 120.051074 
L 201.764203 118.667038 
L 201.805605 118.236104 
L 201.894605 117.283003 
L 201.975033 115.898967 
L 202.009493 114.514932 
L 202.001246 113.130896 
L 201.951993 111.746861 
L 201.862078 110.362825 
L 201.805605 109.764426 
L 201.732667 108.97879 
L 201.561641 107.594754 
L 201.542372 107.468548 
L 201.348207 106.210719 
L 201.27914 105.837821 
L 201.087103 104.826683 
L 201.015907 104.503681 
L 200.772775 103.442648 
L 200.752674 103.364853 
L 200.489441 102.379567 
L 200.399512 102.058612 
L 200.226208 101.49602 
L 199.962976 100.694411 
L 199.956276 100.674577 
L 199.699743 99.966601 
L 199.43651 99.295473 
L 199.434522 99.290541 
L 199.173277 98.672134 
L 198.910044 98.096749 
L 198.818653 97.906506 
L 198.646811 97.557203 
L 198.383579 97.056486 
L 198.120346 96.596743 
L 198.075358 96.52247 
L 197.857113 96.161926 
L 197.59388 95.764321 
L 197.330647 95.405298 
L 197.113466 95.138435 
L 197.067415 95.080368 
L 196.804182 94.77982 
L 196.540949 94.517321 
L 196.277716 94.291455 
L 196.014483 94.100776 
L 195.75125 93.943722 
L 195.488018 93.818532 
L 195.310967 93.754399 
L 195.224785 93.721353 
L 194.961552 93.649709 
L 194.698319 93.604469 
L 194.435086 93.58251 
L 194.171854 93.580733 
L 193.908621 93.59625 
L 193.645388 93.626578 
L 193.382155 93.669805 
L 193.118922 93.72469 
L 192.999679 93.754399 
L 192.855689 93.789084 
L 192.592457 93.86308 
L 192.329224 93.948842 
L 192.065991 94.047705 
L 191.802758 94.161462 
L 191.539525 94.292325 
L 191.276293 94.442934 
L 191.01306 94.616407 
L 190.749827 94.816414 
L 190.486594 95.047268 
L 190.394273 95.138435 
L 190.223361 95.316387 
L 189.960128 95.631614 
L 189.696896 95.999822 
L 189.433663 96.429532 
L 189.382461 96.52247 
L 189.17043 96.960794 
L 188.907197 97.593009 
L 188.791239 97.906506 
L 188.643964 98.395455 
L 188.406717 99.290541 
L 188.380732 99.422716 
L 188.156425 100.674577 
L 188.117499 101.017953 
L 188.006616 102.058612 
L 187.939398 103.442648 
L 187.943045 104.826683 
L 188.01002 106.210719 
L 188.117499 107.384703 
L 188.136123 107.594754 
L 188.31654 108.97879 
L 188.380732 109.355625 
L 188.55056 110.362825 
L 188.643964 110.814081 
L 188.836775 111.746861 
L 188.907197 112.0375 
L 189.17043 113.116298 
L 189.173981 113.130896 
L 189.433663 114.072544 
L 189.557655 114.514932 
L 189.696896 114.967118 
L 189.960128 115.802625 
L 189.99081 115.898967 
L 190.223361 116.580819 
L 190.473137 117.283003 
L 190.486594 117.319207 
L 190.749827 118.012578 
L 191.01306 118.666556 
L 191.01326 118.667038 
L 191.276293 119.285413 
L 191.539525 119.862269 
L 191.630701 120.051074 
L 191.802758 120.407068 
L 192.065991 120.913949 
L 192.329224 121.380097 
L 192.362556 121.435109 
L 192.592457 121.822639 
L 192.855689 122.228003 
L 193.118922 122.596713 
L 193.293163 122.819145 
L 193.382155 122.937752 
L 193.645388 123.257346 
L 193.908621 123.545351 
L 194.171854 123.804292 
L 194.435086 124.03649 
L 194.646239 124.20318 
L 194.698319 124.247037 
L 194.961552 124.445214 
L 195.224785 124.621255 
L 195.488018 124.777391 
L 195.75125 124.91582 
L 196.014483 125.038675 
L 196.277716 125.147976 
L 196.540949 125.24552 
L 196.804182 125.332766 
L 197.067415 125.410676 
L 197.330647 125.479562 
L 197.59388 125.53891 
L 197.857113 125.587216 
L 197.857113 125.587216 
L 198.120346 125.624086 
z
" clip-path="url(#pf58ebb1cc3)" style="fill: none; stroke: #1f77b4; stroke-width: 1.5"/>
    <path d="M 195.224785 121.497484 
L 195.488018 121.643086 
L 195.75125 121.771161 
L 196.014483 121.882979 
L 196.277716 121.979372 
L 196.540949 122.060669 
L 196.804182 122.126614 
L 197.067415 122.176255 
L 197.330647 122.207805 
L 197.59388 122.21846 
L 197.857113 122.204181 
L 198.120346 122.159436 
L 198.383579 122.076899 
L 198.646811 121.947125 
L 198.910044 121.758219 
L 199.173277 121.495523 
L 199.220514 121.435109 
L 199.43651 121.125826 
L 199.699743 120.627989 
L 199.934936 120.051074 
L 199.962976 119.967581 
L 200.226208 119.021886 
L 200.308857 118.667038 
L 200.489441 117.62725 
L 200.542319 117.283003 
L 200.686651 115.898967 
L 200.752674 114.723678 
L 200.763888 114.514932 
L 200.784369 113.130896 
L 200.752674 111.746861 
L 200.752674 111.746861 
L 200.672312 110.362825 
L 200.542023 108.97879 
L 200.489441 108.575085 
L 200.361706 107.594754 
L 200.226208 106.787885 
L 200.128001 106.210719 
L 199.962976 105.416336 
L 199.837216 104.826683 
L 199.699743 104.276414 
L 199.48292 103.442648 
L 199.43651 103.285037 
L 199.173277 102.42208 
L 199.05674 102.058612 
L 198.910044 101.642605 
L 198.646811 100.938749 
L 198.542268 100.674577 
L 198.383579 100.299991 
L 198.120346 99.721352 
L 197.907214 99.290541 
L 197.857113 99.193461 
L 197.59388 98.719596 
L 197.330647 98.294196 
L 197.067415 97.91536 
L 197.060528 97.906506 
L 196.804182 97.581699 
L 196.540949 97.294166 
L 196.277716 97.050997 
L 196.014483 96.850341 
L 195.75125 96.690153 
L 195.488018 96.568073 
L 195.349273 96.52247 
L 195.224785 96.481002 
L 194.961552 96.426214 
L 194.698319 96.4005 
L 194.435086 96.400142 
L 194.171854 96.421638 
L 193.908621 96.461974 
L 193.645388 96.518862 
L 193.632059 96.52247 
L 193.382155 96.591032 
L 193.118922 96.678244 
L 192.855689 96.781211 
L 192.592457 96.9016 
L 192.329224 97.041922 
L 192.065991 97.205439 
L 191.802758 97.3961 
L 191.539525 97.61852 
L 191.276293 97.878026 
L 191.250646 97.906506 
L 191.01306 98.19971 
L 190.749827 98.581357 
L 190.486594 99.031505 
L 190.354288 99.290541 
L 190.223361 99.602343 
L 189.960128 100.329926 
L 189.851201 100.674577 
L 189.696896 101.343528 
L 189.551778 102.058612 
L 189.433663 103.020828 
L 189.386358 103.442648 
L 189.322484 104.826683 
L 189.342033 106.210719 
L 189.433663 107.579804 
L 189.434625 107.594754 
L 189.592322 108.97879 
L 189.696896 109.632731 
L 189.811966 110.362825 
L 189.960128 111.097729 
L 190.090881 111.746861 
L 190.223361 112.293341 
L 190.429143 113.130896 
L 190.486594 113.33414 
L 190.749827 114.244455 
L 190.830388 114.514932 
L 191.01306 115.065903 
L 191.276293 115.823125 
L 191.30381 115.898967 
L 191.539525 116.500092 
L 191.802758 117.128061 
L 191.871841 117.283003 
L 192.065991 117.697101 
L 192.329224 118.216276 
L 192.578136 118.667038 
L 192.592457 118.692346 
L 192.855689 119.121342 
L 193.118922 119.5103 
L 193.382155 119.861982 
L 193.538752 120.051074 
L 193.645388 120.179863 
L 193.908621 120.46609 
L 194.171854 120.722089 
L 194.435086 120.950607 
L 194.698319 121.154209 
L 194.961552 121.335273 
L 195.125012 121.435109 
L 195.224785 121.497484 
z
" clip-path="url(#pf58ebb1cc3)" style="fill: none; stroke: #1f77b4; stroke-width: 1.5"/>
    <path d="M 195.75125 118.762155 
L 196.014483 118.864474 
L 196.277716 118.945769 
L 196.540949 119.004306 
L 196.804182 119.037428 
L 197.067415 119.04141 
L 197.330647 119.01125 
L 197.59388 118.940353 
L 197.857113 118.820137 
L 198.081713 118.667038 
L 198.120346 118.637034 
L 198.383579 118.355617 
L 198.646811 117.964987 
L 198.910044 117.435656 
L 198.970961 117.283003 
L 199.173277 116.609168 
L 199.341091 115.898967 
L 199.43651 115.269937 
L 199.533676 114.514932 
L 199.619453 113.130896 
L 199.625418 111.746861 
L 199.563358 110.362825 
L 199.438432 108.97879 
L 199.43651 108.964542 
L 199.250438 107.594754 
L 199.173277 107.166877 
L 198.997093 106.210719 
L 198.910044 105.830324 
L 198.671521 104.826683 
L 198.646811 104.738796 
L 198.383579 103.844279 
L 198.258028 103.442648 
L 198.120346 103.056584 
L 197.857113 102.371408 
L 197.726586 102.058612 
L 197.59388 101.770599 
L 197.330647 101.253371 
L 197.067415 100.793901 
L 196.989667 100.674577 
L 196.804182 100.408973 
L 196.540949 100.087032 
L 196.277716 99.819319 
L 196.014483 99.603862 
L 195.75125 99.438317 
L 195.488018 99.319785 
L 195.384799 99.290541 
L 195.224785 99.247103 
L 194.961552 99.213501 
L 194.698319 99.213101 
L 194.435086 99.241611 
L 194.194808 99.290541 
L 194.171854 99.295568 
L 193.908621 99.37645 
L 193.645388 99.479676 
L 193.382155 99.605177 
L 193.118922 99.754499 
L 192.855689 99.930777 
L 192.592457 100.138641 
L 192.329224 100.384118 
L 192.065991 100.674577 
L 192.065991 100.674577 
L 191.802758 101.071882 
L 191.539525 101.550279 
L 191.306013 102.058612 
L 191.276293 102.145844 
L 191.01306 103.048442 
L 190.915635 103.442648 
L 190.749827 104.585781 
L 190.719296 104.826683 
L 190.656933 106.210719 
L 190.696872 107.594754 
L 190.749827 108.160365 
L 190.825636 108.97879 
L 191.01306 110.217114 
L 191.035265 110.362825 
L 191.276293 111.509672 
L 191.327379 111.746861 
L 191.539525 112.53034 
L 191.709121 113.130896 
L 191.802758 113.411411 
L 192.065991 114.155609 
L 192.201571 114.514932 
L 192.329224 114.813489 
L 192.592457 115.383141 
L 192.851882 115.898967 
L 192.855689 115.905897 
L 193.118922 116.343247 
L 193.382155 116.738802 
L 193.645388 117.095394 
L 193.799446 117.283003 
L 193.908621 117.408379 
L 194.171854 117.678668 
L 194.435086 117.91957 
L 194.698319 118.133872 
L 194.961552 118.323986 
L 195.224785 118.491842 
L 195.488018 118.638794 
L 195.546862 118.667038 
L 195.75125 118.762155 
z
" clip-path="url(#pf58ebb1cc3)" style="fill: none; stroke: #1f77b4; stroke-width: 1.5"/>
    <path d="M 194.435086 114.565891 
L 194.698319 114.813623 
L 194.961552 115.032242 
L 195.224785 115.222545 
L 195.488018 115.384149 
L 195.75125 115.51532 
L 196.014483 115.61281 
L 196.277716 115.671641 
L 196.540949 115.684783 
L 196.804182 115.642665 
L 197.067415 115.532429 
L 197.330647 115.336849 
L 197.59388 115.032793 
L 197.857113 114.589083 
L 197.890655 114.514932 
L 198.120346 113.748202 
L 198.256713 113.130896 
L 198.383579 111.862835 
L 198.392945 111.746861 
L 198.392878 110.362825 
L 198.383579 110.23762 
L 198.288703 108.97879 
L 198.120346 107.778841 
L 198.093587 107.594754 
L 197.857113 106.488692 
L 197.79413 106.210719 
L 197.59388 105.536977 
L 197.364655 104.826683 
L 197.330647 104.740344 
L 197.067415 104.146525 
L 196.804182 103.625656 
L 196.695205 103.442648 
L 196.540949 103.221396 
L 196.277716 102.914997 
L 196.014483 102.67712 
L 195.75125 102.505553 
L 195.488018 102.397012 
L 195.224785 102.347106 
L 194.961552 102.350599 
L 194.698319 102.401955 
L 194.435086 102.496112 
L 194.171854 102.629307 
L 193.908621 102.799833 
L 193.645388 103.008603 
L 193.382155 103.259486 
L 193.219666 103.442648 
L 193.118922 103.594195 
L 192.855689 104.066553 
L 192.592457 104.647074 
L 192.523837 104.826683 
L 192.329224 105.705521 
L 192.237391 106.210719 
L 192.167994 107.594754 
L 192.254645 108.97879 
L 192.329224 109.44538 
L 192.481549 110.362825 
L 192.592457 110.78931 
L 192.855689 111.746861 
L 192.855689 111.746861 
L 193.118922 112.404018 
L 193.382155 113.011697 
L 193.438837 113.130896 
L 193.645388 113.481127 
L 193.908621 113.88434 
L 194.171854 114.247984 
L 194.387073 114.514932 
L 194.435086 114.565891 
z
" clip-path="url(#pf58ebb1cc3)" style="fill: none; stroke: #1f77b4; stroke-width: 1.5"/>
    <path clip-path="url(#pf58ebb1cc3)" style="fill: none; stroke: #1f77b4; stroke-width: 1.5"/>
   </g>
   <g id="line2d_19">
    <path d="M 59.42 135.74 
L 267.615 135.74 
" clip-path="url(#pf58ebb1cc3)" style="fill: none; stroke-dasharray: 1,1.65; stroke-dashoffset: 0; stroke: #808080"/>
   </g>
   <g id="line2d_20">
    <path d="M 163.5175 246.04 
L 163.5175 25.44 
" clip-path="url(#pf58ebb1cc3)" style="fill: none; stroke-dasharray: 1,1.65; stroke-dashoffset: 0; stroke: #808080"/>
   </g>
   <g id="patch_3">
    <path d="M 59.42 246.04 
L 59.42 25.44 
" style="fill: none; stroke: #000000; stroke-width: 0.8; stroke-linejoin: miter; stroke-linecap: square"/>
   </g>
   <g id="patch_4">
    <path d="M 267.615 246.04 
L 267.615 25.44 
" style="fill: none; stroke: #000000; stroke-width: 0.8; stroke-linejoin: miter; stroke-linecap: square"/>
   </g>
   <g id="patch_5">
    <path d="M 59.42 246.04 
L 267.615 246.04 
" style="fill: none; stroke: #000000; stroke-width: 0.8; stroke-linejoin: miter; stroke-linecap: square"/>
   </g>
   <g id="patch_6">
    <path d="M 59.42 25.44 
L 267.615 25.44 
" style="fill: none; stroke: #000000; stroke-width: 0.8; stroke-linejoin: miter; stroke-linecap: square"/>
   </g>
   <g id="text_21">
    <!-- Ramachandran plot of acK -->
    <g transform="translate(84.035312 19.44) scale(0.12 -0.12)">
     <defs>
      <path id="DejaVuSans-52" d="M 2841 2188 
Q 3044 2119 3236 1894 
Q 3428 1669 3622 1275 
L 4263 0 
L 3584 0 
L 2988 1197 
Q 2756 1666 2539 1819 
Q 2322 1972 1947 1972 
L 1259 1972 
L 1259 0 
L 628 0 
L 628 4666 
L 2053 4666 
Q 2853 4666 3247 4331 
Q 3641 3997 3641 3322 
Q 3641 2881 3436 2590 
Q 3231 2300 2841 2188 
z
M 1259 4147 
L 1259 2491 
L 2053 2491 
Q 2509 2491 2742 2702 
Q 2975 2913 2975 3322 
Q 2975 3731 2742 3939 
Q 2509 4147 2053 4147 
L 1259 4147 
z
" transform="scale(0.015625)"/>
      <path id="DejaVuSans-61" d="M 2194 1759 
Q 1497 1759 1228 1600 
Q 959 1441 959 1056 
Q 959 750 1161 570 
Q 1363 391 1709 391 
Q 2188 391 2477 730 
Q 2766 1069 2766 1631 
L 2766 1759 
L 2194 1759 
z
M 3341 1997 
L 3341 0 
L 2766 0 
L 2766 531 
Q 2569 213 2275 61 
Q 1981 -91 1556 -91 
Q 1019 -91 701 211 
Q 384 513 384 1019 
Q 384 1609 779 1909 
Q 1175 2209 1959 2209 
L 2766 2209 
L 2766 2266 
Q 2766 2663 2505 2880 
Q 2244 3097 1772 3097 
Q 1472 3097 1187 3025 
Q 903 2953 641 2809 
L 641 3341 
Q 956 3463 1253 3523 
Q 1550 3584 1831 3584 
Q 2591 3584 2966 3190 
Q 3341 2797 3341 1997 
z
" transform="scale(0.015625)"/>
      <path id="DejaVuSans-6d" d="M 3328 2828 
Q 3544 3216 3844 3400 
Q 4144 3584 4550 3584 
Q 5097 3584 5394 3201 
Q 5691 2819 5691 2113 
L 5691 0 
L 5113 0 
L 5113 2094 
Q 5113 2597 4934 2840 
Q 4756 3084 4391 3084 
Q 3944 3084 3684 2787 
Q 3425 2491 3425 1978 
L 3425 0 
L 2847 0 
L 2847 2094 
Q 2847 2600 2669 2842 
Q 2491 3084 2119 3084 
Q 1678 3084 1418 2786 
Q 1159 2488 1159 1978 
L 1159 0 
L 581 0 
L 581 3500 
L 1159 3500 
L 1159 2956 
Q 1356 3278 1631 3431 
Q 1906 3584 2284 3584 
Q 2666 3584 2933 3390 
Q 3200 3197 3328 2828 
z
" transform="scale(0.015625)"/>
      <path id="DejaVuSans-63" d="M 3122 3366 
L 3122 2828 
Q 2878 2963 2633 3030 
Q 2388 3097 2138 3097 
Q 1578 3097 1268 2742 
Q 959 2388 959 1747 
Q 959 1106 1268 751 
Q 1578 397 2138 397 
Q 2388 397 2633 464 
Q 2878 531 3122 666 
L 3122 134 
Q 2881 22 2623 -34 
Q 2366 -91 2075 -91 
Q 1284 -91 818 406 
Q 353 903 353 1747 
Q 353 2603 823 3093 
Q 1294 3584 2113 3584 
Q 2378 3584 2631 3529 
Q 2884 3475 3122 3366 
z
" transform="scale(0.015625)"/>
      <path id="DejaVuSans-6e" d="M 3513 2113 
L 3513 0 
L 2938 0 
L 2938 2094 
Q 2938 2591 2744 2837 
Q 2550 3084 2163 3084 
Q 1697 3084 1428 2787 
Q 1159 2491 1159 1978 
L 1159 0 
L 581 0 
L 581 3500 
L 1159 3500 
L 1159 2956 
Q 1366 3272 1645 3428 
Q 1925 3584 2291 3584 
Q 2894 3584 3203 3211 
Q 3513 2838 3513 2113 
z
" transform="scale(0.015625)"/>
      <path id="DejaVuSans-70" d="M 1159 525 
L 1159 -1331 
L 581 -1331 
L 581 3500 
L 1159 3500 
L 1159 2969 
Q 1341 3281 1617 3432 
Q 1894 3584 2278 3584 
Q 2916 3584 3314 3078 
Q 3713 2572 3713 1747 
Q 3713 922 3314 415 
Q 2916 -91 2278 -91 
Q 1894 -91 1617 61 
Q 1341 213 1159 525 
z
M 3116 1747 
Q 3116 2381 2855 2742 
Q 2594 3103 2138 3103 
Q 1681 3103 1420 2742 
Q 1159 2381 1159 1747 
Q 1159 1113 1420 752 
Q 1681 391 2138 391 
Q 2594 391 2855 752 
Q 3116 1113 3116 1747 
z
" transform="scale(0.015625)"/>
      <path id="DejaVuSans-6c" d="M 603 4863 
L 1178 4863 
L 1178 0 
L 603 0 
L 603 4863 
z
" transform="scale(0.015625)"/>
      <path id="DejaVuSans-6f" d="M 1959 3097 
Q 1497 3097 1228 2736 
Q 959 2375 959 1747 
Q 959 1119 1226 758 
Q 1494 397 1959 397 
Q 2419 397 2687 759 
Q 2956 1122 2956 1747 
Q 2956 2369 2687 2733 
Q 2419 3097 1959 3097 
z
M 1959 3584 
Q 2709 3584 3137 3096 
Q 3566 2609 3566 1747 
Q 3566 888 3137 398 
Q 2709 -91 1959 -91 
Q 1206 -91 779 398 
Q 353 888 353 1747 
Q 353 2609 779 3096 
Q 1206 3584 1959 3584 
z
" transform="scale(0.015625)"/>
      <path id="DejaVuSans-74" d="M 1172 4494 
L 1172 3500 
L 2356 3500 
L 2356 3053 
L 1172 3053 
L 1172 1153 
Q 1172 725 1289 603 
Q 1406 481 1766 481 
L 2356 481 
L 2356 0 
L 1766 0 
Q 1100 0 847 248 
Q 594 497 594 1153 
L 594 3053 
L 172 3053 
L 172 3500 
L 594 3500 
L 594 4494 
L 1172 4494 
z
" transform="scale(0.015625)"/>
      <path id="DejaVuSans-66" d="M 2375 4863 
L 2375 4384 
L 1825 4384 
Q 1516 4384 1395 4259 
Q 1275 4134 1275 3809 
L 1275 3500 
L 2222 3500 
L 2222 3053 
L 1275 3053 
L 1275 0 
L 697 0 
L 697 3053 
L 147 3053 
L 147 3500 
L 697 3500 
L 697 3744 
Q 697 4328 969 4595 
Q 1241 4863 1831 4863 
L 2375 4863 
z
" transform="scale(0.015625)"/>
      <path id="DejaVuSans-4b" d="M 628 4666 
L 1259 4666 
L 1259 2694 
L 3353 4666 
L 4166 4666 
L 1850 2491 
L 4331 0 
L 3500 0 
L 1259 2247 
L 1259 0 
L 628 0 
L 628 4666 
z
" transform="scale(0.015625)"/>
     </defs>
     <use xlink:href="#DejaVuSans-52"/>
     <use xlink:href="#DejaVuSans-61" transform="translate(67.232422 0)"/>
     <use xlink:href="#DejaVuSans-6d" transform="translate(128.511719 0)"/>
     <use xlink:href="#DejaVuSans-61" transform="translate(225.923828 0)"/>
     <use xlink:href="#DejaVuSans-63" transform="translate(287.203125 0)"/>
     <use xlink:href="#DejaVuSans-68" transform="translate(342.183594 0)"/>
     <use xlink:href="#DejaVuSans-61" transform="translate(405.5625 0)"/>
     <use xlink:href="#DejaVuSans-6e" transform="translate(466.841797 0)"/>
     <use xlink:href="#DejaVuSans-64" transform="translate(530.220703 0)"/>
     <use xlink:href="#DejaVuSans-72" transform="translate(593.697266 0)"/>
     <use xlink:href="#DejaVuSans-61" transform="translate(634.810547 0)"/>
     <use xlink:href="#DejaVuSans-6e" transform="translate(696.089844 0)"/>
     <use xlink:href="#DejaVuSans-20" transform="translate(759.46875 0)"/>
     <use xlink:href="#DejaVuSans-70" transform="translate(791.255859 0)"/>
     <use xlink:href="#DejaVuSans-6c" transform="translate(854.732422 0)"/>
     <use xlink:href="#DejaVuSans-6f" transform="translate(882.515625 0)"/>
     <use xlink:href="#DejaVuSans-74" transform="translate(943.697266 0)"/>
     <use xlink:href="#DejaVuSans-20" transform="translate(982.90625 0)"/>
     <use xlink:href="#DejaVuSans-6f" transform="translate(1014.693359 0)"/>
     <use xlink:href="#DejaVuSans-66" transform="translate(1075.875 0)"/>
     <use xlink:href="#DejaVuSans-20" transform="translate(1111.080078 0)"/>
     <use xlink:href="#DejaVuSans-61" transform="translate(1142.867188 0)"/>
     <use xlink:href="#DejaVuSans-63" transform="translate(1204.146484 0)"/>
     <use xlink:href="#DejaVuSans-4b" transform="translate(1259.126953 0)"/>
    </g>
   </g>
  </g>
 </g>
 <defs>
  <clipPath id="pf58ebb1cc3">
   <rect x="59.42" y="25.44" width="208.195" height="220.6"/>
  </clipPath>
 </defs>
</svg>
