<?xml version="1.0" encoding="utf-8" standalone="no"?>
<!DOCTYPE svg PUBLIC "-//W3C//DTD SVG 1.1//EN"
  "http://www.w3.org/Graphics/SVG/1.1/DTD/svg11.dtd">
<svg xmlns:xlink="http://www.w3.org/1999/xlink" width="288pt" height="288pt" viewBox="0 0 288 288" xmlns="http://www.w3.org/2000/svg" version="1.1">
 <metadata>
  <rdf:RDF xmlns:dc="http://purl.org/dc/elements/1.1/" xmlns:cc="http://creativecommons.org/ns#" xmlns:rdf="http://www.w3.org/1999/02/22-rdf-syntax-ns#">
   <cc:Work>
    <dc:type rdf:resource="http://purl.org/dc/dcmitype/StillImage"/>
    <dc:date>2025-11-13T12:24:00.119588</dc:date>
    <dc:format>image/svg+xml</dc:format>
    <dc:creator>
     <cc:Agent>
      <dc:title>Matplotlib v3.10.6, https://matplotlib.org/</dc:title>
     </cc:Agent>
    </dc:creator>
   </cc:Work>
  </rdf:RDF>
 </metadata>
 <defs>
  <style type="text/css">*{stroke-linejoin: round; stroke-linecap: butt}</style>
 </defs>
 <g id="figure_1">
  <g id="patch_1">
   <path d="M 0 288 
L 288 288 
L 288 0 
L 0 0 
z
" style="fill: #ffffff"/>
  </g>
  <g id="axes_1">
   <g id="patch_2">
    <path d="M 59.42 246.04 
L 267.615 246.04 
L 267.615 25.44 
L 59.42 25.44 
z
" style="fill: #ffffff"/>
   </g>
   <g id="matplotlib.axis_1">
    <g id="xtick_1">
     <g id="line2d_1">
      <defs>
       <path id="md18e56ecf1" d="M 0 0 
L 0 3.5 
" style="stroke: #000000; stroke-width: 0.8"/>
      </defs>
      <g>
       <use xlink:href="#md18e56ecf1" x="59.42" y="246.04" style="stroke: #000000; stroke-width: 0.8"/>
      </g>
     </g>
     <g id="text_1">
      <!-- −180 -->
      <g transform="translate(45.686406 260.638438) scale(0.1 -0.1)">
       <defs>
        <path id="DejaVuSans-2212" d="M 678 2272 
L 4684 2272 
L 4684 1741 
L 678 1741 
L 678 2272 
z
" transform="scale(0.015625)"/>
        <path id="DejaVuSans-31" d="M 794 531 
L 1825 531 
L 1825 4091 
L 703 3866 
L 703 4441 
L 1819 4666 
L 2450 4666 
L 2450 531 
L 3481 531 
L 3481 0 
L 794 0 
L 794 531 
z
" transform="scale(0.015625)"/>
        <path id="DejaVuSans-38" d="M 2034 2216 
Q 1584 2216 1326 1975 
Q 1069 1734 1069 1313 
Q 1069 891 1326 650 
Q 1584 409 2034 409 
Q 2484 409 2743 651 
Q 3003 894 3003 1313 
Q 3003 1734 2745 1975 
Q 2488 2216 2034 2216 
z
M 1403 2484 
Q 997 2584 770 2862 
Q 544 3141 544 3541 
Q 544 4100 942 4425 
Q 1341 4750 2034 4750 
Q 2731 4750 3128 4425 
Q 3525 4100 3525 3541 
Q 3525 3141 3298 2862 
Q 3072 2584 2669 2484 
Q 3125 2378 3379 2068 
Q 3634 1759 3634 1313 
Q 3634 634 3220 271 
Q 2806 -91 2034 -91 
Q 1263 -91 848 271 
Q 434 634 434 1313 
Q 434 1759 690 2068 
Q 947 2378 1403 2484 
z
M 1172 3481 
Q 1172 3119 1398 2916 
Q 1625 2713 2034 2713 
Q 2441 2713 2670 2916 
Q 2900 3119 2900 3481 
Q 2900 3844 2670 4047 
Q 2441 4250 2034 4250 
Q 1625 4250 1398 4047 
Q 1172 3844 1172 3481 
z
" transform="scale(0.015625)"/>
        <path id="DejaVuSans-30" d="M 2034 4250 
Q 1547 4250 1301 3770 
Q 1056 3291 1056 2328 
Q 1056 1369 1301 889 
Q 1547 409 2034 409 
Q 2525 409 2770 889 
Q 3016 1369 3016 2328 
Q 3016 3291 2770 3770 
Q 2525 4250 2034 4250 
z
M 2034 4750 
Q 2819 4750 3233 4129 
Q 3647 3509 3647 2328 
Q 3647 1150 3233 529 
Q 2819 -91 2034 -91 
Q 1250 -91 836 529 
Q 422 1150 422 2328 
Q 422 3509 836 4129 
Q 1250 4750 2034 4750 
z
" transform="scale(0.015625)"/>
       </defs>
       <use xlink:href="#DejaVuSans-2212"/>
       <use xlink:href="#DejaVuSans-31" transform="translate(83.789062 0)"/>
       <use xlink:href="#DejaVuSans-38" transform="translate(147.412109 0)"/>
       <use xlink:href="#DejaVuSans-30" transform="translate(211.035156 0)"/>
      </g>
     </g>
    </g>
    <g id="xtick_2">
     <g id="line2d_2">
      <g>
       <use xlink:href="#md18e56ecf1" x="85.444375" y="246.04" style="stroke: #000000; stroke-width: 0.8"/>
      </g>
     </g>
     <g id="text_2">
      <!-- −135 -->
      <g transform="translate(71.710781 260.638438) scale(0.1 -0.1)">
       <defs>
        <path id="DejaVuSans-33" d="M 2597 2516 
Q 3050 2419 3304 2112 
Q 3559 1806 3559 1356 
Q 3559 666 3084 287 
Q 2609 -91 1734 -91 
Q 1441 -91 1130 -33 
Q 819 25 488 141 
L 488 750 
Q 750 597 1062 519 
Q 1375 441 1716 441 
Q 2309 441 2620 675 
Q 2931 909 2931 1356 
Q 2931 1769 2642 2001 
Q 2353 2234 1838 2234 
L 1294 2234 
L 1294 2753 
L 1863 2753 
Q 2328 2753 2575 2939 
Q 2822 3125 2822 3475 
Q 2822 3834 2567 4026 
Q 2313 4219 1838 4219 
Q 1578 4219 1281 4162 
Q 984 4106 628 3988 
L 628 4550 
Q 988 4650 1302 4700 
Q 1616 4750 1894 4750 
Q 2613 4750 3031 4423 
Q 3450 4097 3450 3541 
Q 3450 3153 3228 2886 
Q 3006 2619 2597 2516 
z
" transform="scale(0.015625)"/>
        <path id="DejaVuSans-35" d="M 691 4666 
L 3169 4666 
L 3169 4134 
L 1269 4134 
L 1269 2991 
Q 1406 3038 1543 3061 
Q 1681 3084 1819 3084 
Q 2600 3084 3056 2656 
Q 3513 2228 3513 1497 
Q 3513 744 3044 326 
Q 2575 -91 1722 -91 
Q 1428 -91 1123 -41 
Q 819 9 494 109 
L 494 744 
Q 775 591 1075 516 
Q 1375 441 1709 441 
Q 2250 441 2565 725 
Q 2881 1009 2881 1497 
Q 2881 1984 2565 2268 
Q 2250 2553 1709 2553 
Q 1456 2553 1204 2497 
Q 953 2441 691 2322 
L 691 4666 
z
" transform="scale(0.015625)"/>
       </defs>
       <use xlink:href="#DejaVuSans-2212"/>
       <use xlink:href="#DejaVuSans-31" transform="translate(83.789062 0)"/>
       <use xlink:href="#DejaVuSans-33" transform="translate(147.412109 0)"/>
       <use xlink:href="#DejaVuSans-35" transform="translate(211.035156 0)"/>
      </g>
     </g>
    </g>
    <g id="xtick_3">
     <g id="line2d_3">
      <g>
       <use xlink:href="#md18e56ecf1" x="111.46875" y="246.04" style="stroke: #000000; stroke-width: 0.8"/>
      </g>
     </g>
     <g id="text_3">
      <!-- −90 -->
      <g transform="translate(100.916406 260.638438) scale(0.1 -0.1)">
       <defs>
        <path id="DejaVuSans-39" d="M 703 97 
L 703 672 
Q 941 559 1184 500 
Q 1428 441 1663 441 
Q 2288 441 2617 861 
Q 2947 1281 2994 2138 
Q 2813 1869 2534 1725 
Q 2256 1581 1919 1581 
Q 1219 1581 811 2004 
Q 403 2428 403 3163 
Q 403 3881 828 4315 
Q 1253 4750 1959 4750 
Q 2769 4750 3195 4129 
Q 3622 3509 3622 2328 
Q 3622 1225 3098 567 
Q 2575 -91 1691 -91 
Q 1453 -91 1209 -44 
Q 966 3 703 97 
z
M 1959 2075 
Q 2384 2075 2632 2365 
Q 2881 2656 2881 3163 
Q 2881 3666 2632 3958 
Q 2384 4250 1959 4250 
Q 1534 4250 1286 3958 
Q 1038 3666 1038 3163 
Q 1038 2656 1286 2365 
Q 1534 2075 1959 2075 
z
" transform="scale(0.015625)"/>
       </defs>
       <use xlink:href="#DejaVuSans-2212"/>
       <use xlink:href="#DejaVuSans-39" transform="translate(83.789062 0)"/>
       <use xlink:href="#DejaVuSans-30" transform="translate(147.412109 0)"/>
      </g>
     </g>
    </g>
    <g id="xtick_4">
     <g id="line2d_4">
      <g>
       <use xlink:href="#md18e56ecf1" x="137.493125" y="246.04" style="stroke: #000000; stroke-width: 0.8"/>
      </g>
     </g>
     <g id="text_4">
      <!-- −45 -->
      <g transform="translate(126.940781 260.638438) scale(0.1 -0.1)">
       <defs>
        <path id="DejaVuSans-34" d="M 2419 4116 
L 825 1625 
L 2419 1625 
L 2419 4116 
z
M 2253 4666 
L 3047 4666 
L 3047 1625 
L 3713 1625 
L 3713 1100 
L 3047 1100 
L 3047 0 
L 2419 0 
L 2419 1100 
L 313 1100 
L 313 1709 
L 2253 4666 
z
" transform="scale(0.015625)"/>
       </defs>
       <use xlink:href="#DejaVuSans-2212"/>
       <use xlink:href="#DejaVuSans-34" transform="translate(83.789062 0)"/>
       <use xlink:href="#DejaVuSans-35" transform="translate(147.412109 0)"/>
      </g>
     </g>
    </g>
    <g id="xtick_5">
     <g id="line2d_5">
      <g>
       <use xlink:href="#md18e56ecf1" x="163.5175" y="246.04" style="stroke: #000000; stroke-width: 0.8"/>
      </g>
     </g>
     <g id="text_5">
      <!-- 0 -->
      <g transform="translate(160.33625 260.638438) scale(0.1 -0.1)">
       <use xlink:href="#DejaVuSans-30"/>
      </g>
     </g>
    </g>
    <g id="xtick_6">
     <g id="line2d_6">
      <g>
       <use xlink:href="#md18e56ecf1" x="189.541875" y="246.04" style="stroke: #000000; stroke-width: 0.8"/>
      </g>
     </g>
     <g id="text_6">
      <!-- 45 -->
      <g transform="translate(183.179375 260.638438) scale(0.1 -0.1)">
       <use xlink:href="#DejaVuSans-34"/>
       <use xlink:href="#DejaVuSans-35" transform="translate(63.623047 0)"/>
      </g>
     </g>
    </g>
    <g id="xtick_7">
     <g id="line2d_7">
      <g>
       <use xlink:href="#md18e56ecf1" x="215.56625" y="246.04" style="stroke: #000000; stroke-width: 0.8"/>
      </g>
     </g>
     <g id="text_7">
      <!-- 90 -->
      <g transform="translate(209.20375 260.638438) scale(0.1 -0.1)">
       <use xlink:href="#DejaVuSans-39"/>
       <use xlink:href="#DejaVuSans-30" transform="translate(63.623047 0)"/>
      </g>
     </g>
    </g>
    <g id="xtick_8">
     <g id="line2d_8">
      <g>
       <use xlink:href="#md18e56ecf1" x="241.590625" y="246.04" style="stroke: #000000; stroke-width: 0.8"/>
      </g>
     </g>
     <g id="text_8">
      <!-- 135 -->
      <g transform="translate(232.046875 260.638438) scale(0.1 -0.1)">
       <use xlink:href="#DejaVuSans-31"/>
       <use xlink:href="#DejaVuSans-33" transform="translate(63.623047 0)"/>
       <use xlink:href="#DejaVuSans-35" transform="translate(127.246094 0)"/>
      </g>
     </g>
    </g>
    <g id="xtick_9">
     <g id="line2d_9">
      <g>
       <use xlink:href="#md18e56ecf1" x="267.615" y="246.04" style="stroke: #000000; stroke-width: 0.8"/>
      </g>
     </g>
     <g id="text_9">
      <!-- 180 -->
      <g transform="translate(258.07125 260.638438) scale(0.1 -0.1)">
       <use xlink:href="#DejaVuSans-31"/>
       <use xlink:href="#DejaVuSans-38" transform="translate(63.623047 0)"/>
       <use xlink:href="#DejaVuSans-30" transform="translate(127.246094 0)"/>
      </g>
     </g>
    </g>
    <g id="text_10">
     <!-- Phi (degree) -->
     <g transform="translate(132.933125 274.316562) scale(0.1 -0.1)">
      <defs>
       <path id="DejaVuSans-50" d="M 1259 4147 
L 1259 2394 
L 2053 2394 
Q 2494 2394 2734 2622 
Q 2975 2850 2975 3272 
Q 2975 3691 2734 3919 
Q 2494 4147 2053 4147 
L 1259 4147 
z
M 628 4666 
L 2053 4666 
Q 2838 4666 3239 4311 
Q 3641 3956 3641 3272 
Q 3641 2581 3239 2228 
Q 2838 1875 2053 1875 
L 1259 1875 
L 1259 0 
L 628 0 
L 628 4666 
z
" transform="scale(0.015625)"/>
       <path id="DejaVuSans-68" d="M 3513 2113 
L 3513 0 
L 2938 0 
L 2938 2094 
Q 2938 2591 2744 2837 
Q 2550 3084 2163 3084 
Q 1697 3084 1428 2787 
Q 1159 2491 1159 1978 
L 1159 0 
L 581 0 
L 581 4863 
L 1159 4863 
L 1159 2956 
Q 1366 3272 1645 3428 
Q 1925 3584 2291 3584 
Q 2894 3584 3203 3211 
Q 3513 2838 3513 2113 
z
" transform="scale(0.015625)"/>
       <path id="DejaVuSans-69" d="M 603 3500 
L 1178 3500 
L 1178 0 
L 603 0 
L 603 3500 
z
M 603 4863 
L 1178 4863 
L 1178 4134 
L 603 4134 
L 603 4863 
z
" transform="scale(0.015625)"/>
       <path id="DejaVuSans-20" transform="scale(0.015625)"/>
       <path id="DejaVuSans-28" d="M 1984 4856 
Q 1566 4138 1362 3434 
Q 1159 2731 1159 2009 
Q 1159 1288 1364 580 
Q 1569 -128 1984 -844 
L 1484 -844 
Q 1016 -109 783 600 
Q 550 1309 550 2009 
Q 550 2706 781 3412 
Q 1013 4119 1484 4856 
L 1984 4856 
z
" transform="scale(0.015625)"/>
       <path id="DejaVuSans-64" d="M 2906 2969 
L 2906 4863 
L 3481 4863 
L 3481 0 
L 2906 0 
L 2906 525 
Q 2725 213 2448 61 
Q 2172 -91 1784 -91 
Q 1150 -91 751 415 
Q 353 922 353 1747 
Q 353 2572 751 3078 
Q 1150 3584 1784 3584 
Q 2172 3584 2448 3432 
Q 2725 3281 2906 2969 
z
M 947 1747 
Q 947 1113 1208 752 
Q 1469 391 1925 391 
Q 2381 391 2643 752 
Q 2906 1113 2906 1747 
Q 2906 2381 2643 2742 
Q 2381 3103 1925 3103 
Q 1469 3103 1208 2742 
Q 947 2381 947 1747 
z
" transform="scale(0.015625)"/>
       <path id="DejaVuSans-65" d="M 3597 1894 
L 3597 1613 
L 953 1613 
Q 991 1019 1311 708 
Q 1631 397 2203 397 
Q 2534 397 2845 478 
Q 3156 559 3463 722 
L 3463 178 
Q 3153 47 2828 -22 
Q 2503 -91 2169 -91 
Q 1331 -91 842 396 
Q 353 884 353 1716 
Q 353 2575 817 3079 
Q 1281 3584 2069 3584 
Q 2775 3584 3186 3129 
Q 3597 2675 3597 1894 
z
M 3022 2063 
Q 3016 2534 2758 2815 
Q 2500 3097 2075 3097 
Q 1594 3097 1305 2825 
Q 1016 2553 972 2059 
L 3022 2063 
z
" transform="scale(0.015625)"/>
       <path id="DejaVuSans-67" d="M 2906 1791 
Q 2906 2416 2648 2759 
Q 2391 3103 1925 3103 
Q 1463 3103 1205 2759 
Q 947 2416 947 1791 
Q 947 1169 1205 825 
Q 1463 481 1925 481 
Q 2391 481 2648 825 
Q 2906 1169 2906 1791 
z
M 3481 434 
Q 3481 -459 3084 -895 
Q 2688 -1331 1869 -1331 
Q 1566 -1331 1297 -1286 
Q 1028 -1241 775 -1147 
L 775 -588 
Q 1028 -725 1275 -790 
Q 1522 -856 1778 -856 
Q 2344 -856 2625 -561 
Q 2906 -266 2906 331 
L 2906 616 
Q 2728 306 2450 153 
Q 2172 0 1784 0 
Q 1141 0 747 490 
Q 353 981 353 1791 
Q 353 2603 747 3093 
Q 1141 3584 1784 3584 
Q 2172 3584 2450 3431 
Q 2728 3278 2906 2969 
L 2906 3500 
L 3481 3500 
L 3481 434 
z
" transform="scale(0.015625)"/>
       <path id="DejaVuSans-72" d="M 2631 2963 
Q 2534 3019 2420 3045 
Q 2306 3072 2169 3072 
Q 1681 3072 1420 2755 
Q 1159 2438 1159 1844 
L 1159 0 
L 581 0 
L 581 3500 
L 1159 3500 
L 1159 2956 
Q 1341 3275 1631 3429 
Q 1922 3584 2338 3584 
Q 2397 3584 2469 3576 
Q 2541 3569 2628 3553 
L 2631 2963 
z
" transform="scale(0.015625)"/>
       <path id="DejaVuSans-29" d="M 513 4856 
L 1013 4856 
Q 1481 4119 1714 3412 
Q 1947 2706 1947 2009 
Q 1947 1309 1714 600 
Q 1481 -109 1013 -844 
L 513 -844 
Q 928 -128 1133 580 
Q 1338 1288 1338 2009 
Q 1338 2731 1133 3434 
Q 928 4138 513 4856 
z
" transform="scale(0.015625)"/>
      </defs>
      <use xlink:href="#DejaVuSans-50"/>
      <use xlink:href="#DejaVuSans-68" transform="translate(60.302734 0)"/>
      <use xlink:href="#DejaVuSans-69" transform="translate(123.681641 0)"/>
      <use xlink:href="#DejaVuSans-20" transform="translate(151.464844 0)"/>
      <use xlink:href="#DejaVuSans-28" transform="translate(183.251953 0)"/>
      <use xlink:href="#DejaVuSans-64" transform="translate(222.265625 0)"/>
      <use xlink:href="#DejaVuSans-65" transform="translate(285.742188 0)"/>
      <use xlink:href="#DejaVuSans-67" transform="translate(347.265625 0)"/>
      <use xlink:href="#DejaVuSans-72" transform="translate(410.742188 0)"/>
      <use xlink:href="#DejaVuSans-65" transform="translate(449.605469 0)"/>
      <use xlink:href="#DejaVuSans-65" transform="translate(511.128906 0)"/>
      <use xlink:href="#DejaVuSans-29" transform="translate(572.652344 0)"/>
     </g>
    </g>
   </g>
   <g id="matplotlib.axis_2">
    <g id="ytick_1">
     <g id="line2d_10">
      <defs>
       <path id="m4137669039" d="M 0 0 
L -3.5 0 
" style="stroke: #000000; stroke-width: 0.8"/>
      </defs>
      <g>
       <use xlink:href="#m4137669039" x="59.42" y="246.04" style="stroke: #000000; stroke-width: 0.8"/>
      </g>
     </g>
     <g id="text_11">
      <!-- −180 -->
      <g transform="translate(24.952813 249.839219) scale(0.1 -0.1)">
       <use xlink:href="#DejaVuSans-2212"/>
       <use xlink:href="#DejaVuSans-31" transform="translate(83.789062 0)"/>
       <use xlink:href="#DejaVuSans-38" transform="translate(147.412109 0)"/>
       <use xlink:href="#DejaVuSans-30" transform="translate(211.035156 0)"/>
      </g>
     </g>
    </g>
    <g id="ytick_2">
     <g id="line2d_11">
      <g>
       <use xlink:href="#m4137669039" x="59.42" y="218.465" style="stroke: #000000; stroke-width: 0.8"/>
      </g>
     </g>
     <g id="text_12">
      <!-- −135 -->
      <g transform="translate(24.952813 222.264219) scale(0.1 -0.1)">
       <use xlink:href="#DejaVuSans-2212"/>
       <use xlink:href="#DejaVuSans-31" transform="translate(83.789062 0)"/>
       <use xlink:href="#DejaVuSans-33" transform="translate(147.412109 0)"/>
       <use xlink:href="#DejaVuSans-35" transform="translate(211.035156 0)"/>
      </g>
     </g>
    </g>
    <g id="ytick_3">
     <g id="line2d_12">
      <g>
       <use xlink:href="#m4137669039" x="59.42" y="190.89" style="stroke: #000000; stroke-width: 0.8"/>
      </g>
     </g>
     <g id="text_13">
      <!-- −90 -->
      <g transform="translate(31.315313 194.689219) scale(0.1 -0.1)">
       <use xlink:href="#DejaVuSans-2212"/>
       <use xlink:href="#DejaVuSans-39" transform="translate(83.789062 0)"/>
       <use xlink:href="#DejaVuSans-30" transform="translate(147.412109 0)"/>
      </g>
     </g>
    </g>
    <g id="ytick_4">
     <g id="line2d_13">
      <g>
       <use xlink:href="#m4137669039" x="59.42" y="163.315" style="stroke: #000000; stroke-width: 0.8"/>
      </g>
     </g>
     <g id="text_14">
      <!-- −45 -->
      <g transform="translate(31.315313 167.114219) scale(0.1 -0.1)">
       <use xlink:href="#DejaVuSans-2212"/>
       <use xlink:href="#DejaVuSans-34" transform="translate(83.789062 0)"/>
       <use xlink:href="#DejaVuSans-35" transform="translate(147.412109 0)"/>
      </g>
     </g>
    </g>
    <g id="ytick_5">
     <g id="line2d_14">
      <g>
       <use xlink:href="#m4137669039" x="59.42" y="135.74" style="stroke: #000000; stroke-width: 0.8"/>
      </g>
     </g>
     <g id="text_15">
      <!-- 0 -->
      <g transform="translate(46.0575 139.539219) scale(0.1 -0.1)">
       <use xlink:href="#DejaVuSans-30"/>
      </g>
     </g>
    </g>
    <g id="ytick_6">
     <g id="line2d_15">
      <g>
       <use xlink:href="#m4137669039" x="59.42" y="108.165" style="stroke: #000000; stroke-width: 0.8"/>
      </g>
     </g>
     <g id="text_16">
      <!-- 45 -->
      <g transform="translate(39.695 111.964219) scale(0.1 -0.1)">
       <use xlink:href="#DejaVuSans-34"/>
       <use xlink:href="#DejaVuSans-35" transform="translate(63.623047 0)"/>
      </g>
     </g>
    </g>
    <g id="ytick_7">
     <g id="line2d_16">
      <g>
       <use xlink:href="#m4137669039" x="59.42" y="80.59" style="stroke: #000000; stroke-width: 0.8"/>
      </g>
     </g>
     <g id="text_17">
      <!-- 90 -->
      <g transform="translate(39.695 84.389219) scale(0.1 -0.1)">
       <use xlink:href="#DejaVuSans-39"/>
       <use xlink:href="#DejaVuSans-30" transform="translate(63.623047 0)"/>
      </g>
     </g>
    </g>
    <g id="ytick_8">
     <g id="line2d_17">
      <g>
       <use xlink:href="#m4137669039" x="59.42" y="53.015" style="stroke: #000000; stroke-width: 0.8"/>
      </g>
     </g>
     <g id="text_18">
      <!-- 135 -->
      <g transform="translate(33.3325 56.814219) scale(0.1 -0.1)">
       <use xlink:href="#DejaVuSans-31"/>
       <use xlink:href="#DejaVuSans-33" transform="translate(63.623047 0)"/>
       <use xlink:href="#DejaVuSans-35" transform="translate(127.246094 0)"/>
      </g>
     </g>
    </g>
    <g id="ytick_9">
     <g id="line2d_18">
      <g>
       <use xlink:href="#m4137669039" x="59.42" y="25.44" style="stroke: #000000; stroke-width: 0.8"/>
      </g>
     </g>
     <g id="text_19">
      <!-- 180 -->
      <g transform="translate(33.3325 29.239219) scale(0.1 -0.1)">
       <use xlink:href="#DejaVuSans-31"/>
       <use xlink:href="#DejaVuSans-38" transform="translate(63.623047 0)"/>
       <use xlink:href="#DejaVuSans-30" transform="translate(127.246094 0)"/>
      </g>
     </g>
    </g>
    <g id="text_20">
     <!-- Psi (degree) -->
     <g transform="translate(18.873125 165.672813) rotate(-90) scale(0.1 -0.1)">
      <defs>
       <path id="DejaVuSans-73" d="M 2834 3397 
L 2834 2853 
Q 2591 2978 2328 3040 
Q 2066 3103 1784 3103 
Q 1356 3103 1142 2972 
Q 928 2841 928 2578 
Q 928 2378 1081 2264 
Q 1234 2150 1697 2047 
L 1894 2003 
Q 2506 1872 2764 1633 
Q 3022 1394 3022 966 
Q 3022 478 2636 193 
Q 2250 -91 1575 -91 
Q 1294 -91 989 -36 
Q 684 19 347 128 
L 347 722 
Q 666 556 975 473 
Q 1284 391 1588 391 
Q 1994 391 2212 530 
Q 2431 669 2431 922 
Q 2431 1156 2273 1281 
Q 2116 1406 1581 1522 
L 1381 1569 
Q 847 1681 609 1914 
Q 372 2147 372 2553 
Q 372 3047 722 3315 
Q 1072 3584 1716 3584 
Q 2034 3584 2315 3537 
Q 2597 3491 2834 3397 
z
" transform="scale(0.015625)"/>
      </defs>
      <use xlink:href="#DejaVuSans-50"/>
      <use xlink:href="#DejaVuSans-73" transform="translate(58.552734 0)"/>
      <use xlink:href="#DejaVuSans-69" transform="translate(110.652344 0)"/>
      <use xlink:href="#DejaVuSans-20" transform="translate(138.435547 0)"/>
      <use xlink:href="#DejaVuSans-28" transform="translate(170.222656 0)"/>
      <use xlink:href="#DejaVuSans-64" transform="translate(209.236328 0)"/>
      <use xlink:href="#DejaVuSans-65" transform="translate(272.712891 0)"/>
      <use xlink:href="#DejaVuSans-67" transform="translate(334.236328 0)"/>
      <use xlink:href="#DejaVuSans-72" transform="translate(397.712891 0)"/>
      <use xlink:href="#DejaVuSans-65" transform="translate(436.576172 0)"/>
      <use xlink:href="#DejaVuSans-65" transform="translate(498.099609 0)"/>
      <use xlink:href="#DejaVuSans-29" transform="translate(559.623047 0)"/>
     </g>
    </g>
   </g>
   <g id="QuadContourSet_1">
    <path d="M 103.551365 259.673225 
L 104.022728 259.898072 
L 104.49409 260.096311 
L 104.965452 260.266978 
L 105.436814 260.409349 
L 105.908176 260.523074 
L 106.379538 260.608256 
L 106.8509 260.665477 
L 107.322262 260.695788 
L 107.793624 260.700652 
L 108.264986 260.681857 
L 108.736348 260.641387 
L 109.207711 260.58127 
L 109.679073 260.503413 
L 110.150435 260.409427 
L 110.621797 260.300485 
L 111.093159 260.177213 
L 111.564521 260.039646 
L 112.035883 259.887242 
L 112.507245 259.718959 
L 112.978607 259.533356 
L 113.219094 259.429776 
L 113.449969 259.331151 
L 113.921331 259.110902 
L 114.392693 258.868014 
L 114.864056 258.600149 
L 115.335418 258.304519 
L 115.80678 257.977647 
L 115.920119 257.892104 
L 116.278142 257.615775 
L 116.749504 257.212638 
L 117.220866 256.760475 
L 117.598085 256.354432 
L 117.692228 256.247447 
L 118.16359 255.653444 
L 118.634952 254.972306 
L 118.731562 254.81676 
L 119.106314 254.154276 
L 119.538376 253.279088 
L 119.577676 253.18835 
L 120.049038 251.974835 
L 120.130483 251.741416 
L 120.520401 250.400382 
L 120.572623 250.203744 
L 120.897558 248.666072 
L 120.991763 248.055917 
L 121.127064 247.1284 
L 121.27248 245.590727 
L 121.341123 244.053055 
L 121.335547 242.515383 
L 121.255815 240.977711 
L 121.099511 239.440039 
L 120.991763 238.73081 
L 120.859007 237.902367 
L 120.525304 236.364695 
L 120.520401 236.346428 
L 120.076944 234.827023 
L 120.049038 234.746717 
L 119.577676 233.50976 
L 119.484404 233.289351 
L 119.106314 232.501611 
L 118.69921 231.751679 
L 118.634952 231.64354 
L 118.16359 230.923351 
L 117.692228 230.289923 
L 117.630139 230.214007 
L 117.220866 229.73981 
L 116.749504 229.251307 
L 116.278142 228.812584 
L 116.119372 228.676335 
L 115.80678 228.414347 
L 115.335418 228.048607 
L 114.864056 227.707722 
L 114.392693 227.384417 
L 114.023318 227.138663 
L 113.921331 227.070674 
L 113.449969 226.757442 
L 112.978607 226.445178 
L 112.507245 226.130816 
L 112.035883 225.813218 
L 111.724819 225.600991 
L 111.564521 225.489683 
L 111.093159 225.160428 
L 110.621797 224.838273 
L 110.150435 224.52984 
L 109.679073 224.242512 
L 109.354125 224.063319 
L 109.207711 223.980107 
L 108.736348 223.746941 
L 108.264986 223.557313 
L 107.793624 223.415646 
L 107.322262 223.324773 
L 106.8509 223.285927 
L 106.379538 223.298822 
L 105.908176 223.361812 
L 105.436814 223.472087 
L 104.965452 223.625913 
L 104.49409 223.818905 
L 104.022728 224.046355 
L 103.991045 224.063319 
L 103.551365 224.293716 
L 103.080003 224.564826 
L 102.608641 224.857199 
L 102.137279 225.168867 
L 101.665917 225.499359 
L 101.526569 225.600991 
L 101.194555 225.844076 
L 100.723193 226.208946 
L 100.251831 226.600802 
L 99.780469 227.025374 
L 99.662504 227.138663 
L 99.309107 227.488455 
L 98.837745 227.998169 
L 98.366383 228.562508 
L 98.277947 228.676335 
L 97.89502 229.20004 
L 97.423658 229.912089 
L 97.23882 230.214007 
L 96.952296 230.728166 
L 96.480934 231.652373 
L 96.433076 231.751679 
L 96.009572 232.756849 
L 95.79982 233.289351 
L 95.53821 234.08406 
L 95.305219 234.827023 
L 95.066848 235.792886 
L 94.929796 236.364695 
L 94.661532 237.902367 
L 94.595486 238.496226 
L 94.490333 239.440039 
L 94.411756 240.977711 
L 94.422423 242.515383 
L 94.51972 244.053055 
L 94.595486 244.689369 
L 94.700153 245.590727 
L 94.964974 247.1284 
L 95.066848 247.576079 
L 95.317084 248.666072 
L 95.53821 249.437594 
L 95.76513 250.203744 
L 96.009572 250.896947 
L 96.324832 251.741416 
L 96.480934 252.106171 
L 96.952296 253.129342 
L 97.02663 253.279088 
L 97.423658 254.000769 
L 97.89502 254.769422 
L 97.926441 254.81676 
L 98.366383 255.433804 
L 98.837745 256.02506 
L 99.126958 256.354432 
L 99.309107 256.55314 
L 99.780469 257.026716 
L 100.251831 257.456596 
L 100.723193 257.849604 
L 100.777252 257.892104 
L 101.194555 258.215629 
L 101.665917 258.554371 
L 102.137279 258.867793 
L 102.608641 259.15723 
L 103.080003 259.423032 
L 103.092887 259.429776 
L 103.551365 259.673225 
z
M 110.621797 82.640596 
L 111.093159 82.800396 
L 111.564521 82.939936 
L 112.035883 83.057788 
L 112.507245 83.153499 
L 112.978607 83.227469 
L 113.449969 83.280816 
L 113.921331 83.315226 
L 114.392693 83.332818 
L 114.864056 83.335997 
L 115.335418 83.327313 
L 115.80678 83.309315 
L 116.278142 83.284395 
L 116.749504 83.254631 
L 117.220866 83.221633 
L 117.692228 83.1864 
L 118.16359 83.149201 
L 118.634952 83.109497 
L 119.106314 83.065915 
L 119.577676 83.016262 
L 120.049038 82.957597 
L 120.520401 82.886329 
L 120.991763 82.79834 
L 121.463125 82.689092 
L 121.784174 82.597489 
L 121.934487 82.561567 
L 122.405849 82.424679 
L 122.877211 82.257557 
L 123.348573 82.05561 
L 123.819935 81.81405 
L 124.291297 81.527848 
L 124.762659 81.191679 
L 124.926728 81.059817 
L 125.234021 80.84334 
L 125.705384 80.465299 
L 126.176746 80.02986 
L 126.648108 79.530926 
L 126.655897 79.522145 
L 127.11947 79.049903 
L 127.590832 78.50432 
L 127.991725 77.984473 
L 128.062194 77.900275 
L 128.533556 77.303497 
L 129.004918 76.629098 
L 129.125531 76.446801 
L 129.47628 75.947276 
L 129.947642 75.20577 
L 130.124922 74.909129 
L 130.419004 74.437076 
L 130.890366 73.610742 
L 131.020108 73.371457 
L 131.361729 72.75643 
L 131.826726 71.833785 
L 131.833091 71.821276 
L 132.304453 70.869683 
L 132.566744 70.296113 
L 132.775815 69.835706 
L 133.232539 68.758441 
L 133.247177 68.723174 
L 133.718539 67.556483 
L 133.847541 67.220769 
L 134.189901 66.296477 
L 134.407897 65.683097 
L 134.661263 64.933128 
L 134.919663 64.145425 
L 135.132625 63.452744 
L 135.387806 62.607753 
L 135.603987 61.832709 
L 135.815256 61.070081 
L 136.075349 60.037795 
L 136.203168 59.532409 
L 136.546712 58.013873 
L 136.551102 57.994737 
L 136.87257 56.457065 
L 137.018074 55.650061 
L 137.154067 54.919392 
L 137.400407 53.38172 
L 137.489436 52.725122 
L 137.614892 51.844048 
L 137.795739 50.306376 
L 137.938073 48.768704 
L 137.960798 48.449395 
L 138.054127 47.231032 
L 138.136201 45.69336 
L 138.18366 44.155688 
L 138.197265 42.618016 
L 138.176809 41.080344 
L 138.121104 39.542672 
L 138.027924 38.005 
L 137.960798 37.22006 
L 137.899842 36.467328 
L 137.736197 34.929656 
L 137.525351 33.391984 
L 137.489436 33.171517 
L 137.28101 31.854312 
L 137.018074 30.488773 
L 136.985781 30.31664 
L 136.65489 28.778967 
L 136.546712 28.338033 
L 136.282501 27.241295 
L 136.075349 26.475306 
L 135.870669 25.703623 
L 135.603987 24.789923 
L 135.425573 24.165951 
L 135.132625 23.219391 
L 134.953406 22.628279 
L 134.661263 21.725818 
L 134.459419 21.090607 
L 134.189901 20.287146 
L 133.947068 19.552935 
L 133.718539 18.892053 
L 133.41748 18.015263 
L 133.247177 17.536783 
L 132.869216 16.477591 
L 132.775815 16.223015 
L 132.304453 14.954744 
L 132.298966 14.939919 
L 131.833091 13.70792 
L 131.713472 13.402247 
L 131.361729 12.513867 
L 131.091263 11.864575 
L 130.890366 11.382751 
L 130.419004 10.326903 
L 130.419004 10.326903 
L 129.947642 9.282976 
L 129.702359 8.789231 
L 129.47628 8.321835 
L 129.004918 7.430809 
L 128.903419 7.251559 
L 128.533556 6.567889 
L 128.062194 5.803286 
L 128.003302 5.713887 
L 127.590832 5.044563 
L 127.11947 4.380574 
L 126.960142 4.176215 
L 126.648108 3.738764 
L 126.176746 3.152671 
L 125.705384 2.648127 
L 125.695739 2.638543 
L 125.234021 2.122836 
L 124.762659 1.666792 
L 124.291297 1.271261 
L 124.064887 1.10087 
L 123.819935 0.88816 
L 123.348573 0.52052 
L 122.877211 0.198661 
L 122.405849 -0.084136 
L 121.934487 -0.333517 
L 121.718482 -0.436802 
L 121.463125 -0.582001 
L 120.991763 -0.824187 
L 120.607042 -1 
M 106.016469 -1 
L 105.908176 -0.963124 
L 105.436814 -0.790549 
L 104.965452 -0.605521 
L 104.561981 -0.436802 
L 104.49409 -0.413057 
L 104.022728 -0.24131 
L 103.551365 -0.057944 
L 103.080003 0.137823 
L 102.608641 0.346933 
L 102.137279 0.57046 
L 101.665917 0.809545 
L 101.194555 1.0653 
L 101.131205 1.10087 
L 100.723193 1.295979 
L 100.251831 1.535054 
L 99.780469 1.788896 
L 99.309107 2.056878 
L 98.837745 2.337618 
L 98.366383 2.628877 
L 98.350545 2.638543 
L 97.89502 2.877896 
L 97.423658 3.128076 
L 96.952296 3.377568 
L 96.480934 3.622838 
L 96.009572 3.860759 
L 95.53821 4.089072 
L 95.346247 4.176215 
L 95.066848 4.285598 
L 94.595486 4.459728 
L 94.124124 4.627645 
L 93.652762 4.792776 
L 93.1814 4.959792 
L 92.710038 5.134381 
L 92.238675 5.322989 
L 91.767313 5.53259 
L 91.405414 5.713887 
L 91.295951 5.762109 
L 90.824589 5.995453 
L 90.353227 6.26625 
L 89.881865 6.58129 
L 89.410503 6.947536 
L 89.068089 7.251559 
L 88.939141 7.355732 
L 88.467779 7.779321 
L 87.996417 8.266055 
L 87.551406 8.789231 
L 87.525055 8.818113 
L 87.053692 9.370284 
L 86.58233 9.993027 
L 86.348218 10.326903 
L 86.110968 10.648313 
L 85.639606 11.333162 
L 85.300813 11.864575 
L 85.168244 12.06451 
L 84.696882 12.801835 
L 84.337133 13.402247 
L 84.22552 13.582965 
L 83.754158 14.361168 
L 83.420588 14.939919 
L 83.282796 15.173555 
L 82.811434 15.986263 
L 82.536929 16.477591 
L 82.340072 16.824682 
L 81.86871 17.679382 
L 81.688809 18.015263 
L 81.397347 18.557194 
L 80.925985 19.481948 
L 80.890509 19.552935 
L 80.454623 20.435038 
L 80.151146 21.090607 
L 79.983261 21.463632 
L 79.511899 22.575887 
L 79.490517 22.628279 
L 79.040537 23.789501 
L 78.903333 24.165951 
L 78.569175 25.153327 
L 78.392501 25.703623 
L 78.097813 26.716799 
L 77.951435 27.241295 
L 77.626451 28.562148 
L 77.574546 28.778967 
L 77.252074 30.31664 
L 77.155089 30.866201 
L 76.980962 31.854312 
L 76.760039 33.391984 
L 76.683727 34.057793 
L 76.581057 34.929656 
L 76.442981 36.467328 
L 76.347132 38.005 
L 76.290522 39.542672 
L 76.271389 41.080344 
L 76.28909 42.618016 
L 76.344031 44.155688 
L 76.437659 45.69336 
L 76.572491 47.231032 
L 76.683727 48.198152 
L 76.746793 48.768704 
L 76.9577 50.306376 
L 77.155089 51.482998 
L 77.21458 51.844048 
L 77.509548 53.38172 
L 77.626451 53.913728 
L 77.847898 54.919392 
L 78.097813 55.924959 
L 78.232078 56.457065 
L 78.569175 57.670306 
L 78.66186 57.994737 
L 79.040537 59.224858 
L 79.139095 59.532409 
L 79.511899 60.632871 
L 79.668005 61.070081 
L 79.983261 61.919608 
L 80.255837 62.607753 
L 80.454623 63.097998 
L 80.914005 64.145425 
L 80.925985 64.172478 
L 81.397347 65.180088 
L 81.656946 65.683097 
L 81.86871 66.09562 
L 82.340072 66.933384 
L 82.517212 67.220769 
L 82.811434 67.70753 
L 83.282796 68.409056 
L 83.542812 68.758441 
L 83.754158 69.052163 
L 84.22552 69.649618 
L 84.696882 70.180331 
L 84.807492 70.296113 
L 85.168244 70.693351 
L 85.639606 71.167776 
L 86.110968 71.600278 
L 86.382258 71.833785 
L 86.58233 72.01817 
L 87.053692 72.433148 
L 87.525055 72.822305 
L 87.996417 73.189373 
L 88.238349 73.371457 
L 88.467779 73.560242 
L 88.939141 73.937713 
L 89.410503 74.298006 
L 89.881865 74.642115 
L 90.261867 74.909129 
L 90.353227 74.980734 
L 90.824589 75.345825 
L 91.295951 75.695641 
L 91.767313 76.030628 
L 92.238675 76.351134 
L 92.381712 76.446801 
L 92.710038 76.694977 
L 93.1814 77.039331 
L 93.652762 77.36675 
L 94.124124 77.676705 
L 94.595486 77.96864 
L 94.621607 77.984473 
L 95.066848 78.290994 
L 95.53821 78.593562 
L 96.009572 78.873044 
L 96.480934 79.129409 
L 96.952296 79.362846 
L 97.3048 79.522145 
L 97.423658 79.583988 
L 97.89502 79.81033 
L 98.366383 80.010998 
L 98.837745 80.186969 
L 99.309107 80.339338 
L 99.780469 80.469346 
L 100.251831 80.578414 
L 100.723193 80.668192 
L 101.194555 80.74061 
L 101.665917 80.797924 
L 102.137279 80.842748 
L 102.608641 80.878058 
L 103.080003 80.907175 
L 103.551365 80.933688 
L 104.022728 80.961344 
L 104.49409 80.993879 
L 104.965452 81.034795 
L 105.189542 81.059817 
L 105.436814 81.092952 
L 105.908176 81.173115 
L 106.379538 81.271548 
L 106.8509 81.38847 
L 107.322262 81.522657 
L 107.793624 81.671521 
L 108.264986 81.831348 
L 108.736348 81.997649 
L 109.207711 82.165559 
L 109.679073 82.33025 
L 110.150435 82.487277 
L 110.50541 82.597489 
L 110.621797 82.640596 
" clip-path="url(#pa17135a04d)" style="fill: none; stroke: #1f77b4; stroke-width: 1.5"/>
    <path d="M 111.564521 73.404033 
L 112.035883 73.550534 
L 112.507245 73.676942 
L 112.978607 73.783017 
L 113.449969 73.869123 
L 113.921331 73.936112 
L 114.392693 73.985216 
L 114.864056 74.017921 
L 115.335418 74.035847 
L 115.80678 74.040627 
L 116.278142 74.033781 
L 116.749504 74.016594 
L 117.220866 73.989996 
L 117.692228 73.954449 
L 118.16359 73.909845 
L 118.634952 73.855428 
L 119.106314 73.78973 
L 119.577676 73.710547 
L 120.049038 73.614937 
L 120.520401 73.499245 
L 120.951038 73.371457 
L 120.991763 73.360774 
L 121.463125 73.213626 
L 121.934487 73.035895 
L 122.405849 72.822212 
L 122.877211 72.566741 
L 123.348573 72.263169 
L 123.819935 71.904676 
L 123.902483 71.833785 
L 124.291297 71.525056 
L 124.762659 71.091001 
L 125.234021 70.586201 
L 125.475317 70.296113 
L 125.705384 70.033051 
L 126.176746 69.43007 
L 126.634273 68.758441 
L 126.648108 68.738679 
L 127.11947 68.017731 
L 127.575765 67.220769 
L 127.590832 67.194569 
L 128.062194 66.327534 
L 128.378392 65.683097 
L 128.533556 65.360977 
L 129.004918 64.307705 
L 129.074101 64.145425 
L 129.47628 63.162473 
L 129.689561 62.607753 
L 129.947642 61.895093 
L 130.232985 61.070081 
L 130.419004 60.487788 
L 130.715132 59.532409 
L 130.890366 58.907647 
L 131.142653 57.994737 
L 131.361729 57.099344 
L 131.518893 56.457065 
L 131.833091 54.971954 
L 131.844374 54.919392 
L 132.134698 53.38172 
L 132.304453 52.285416 
L 132.375481 51.844048 
L 132.580798 50.306376 
L 132.739329 48.768704 
L 132.775815 48.299565 
L 132.865125 47.231032 
L 132.952952 45.69336 
L 133.001537 44.155688 
L 133.012691 42.618016 
L 132.987305 41.080344 
L 132.925376 39.542672 
L 132.825998 38.005 
L 132.775815 37.439907 
L 132.697334 36.467328 
L 132.537281 34.929656 
L 132.336729 33.391984 
L 132.304453 33.181337 
L 132.115425 31.854312 
L 131.852794 30.31664 
L 131.833091 30.214256 
L 131.571411 28.778967 
L 131.361729 27.783854 
L 131.251994 27.241295 
L 130.898826 25.703623 
L 130.890366 25.669819 
L 130.520461 24.165951 
L 130.419004 23.792295 
L 130.10317 22.628279 
L 129.947642 22.101623 
L 129.643979 21.090607 
L 129.47628 20.570029 
L 129.136807 19.552935 
L 129.004918 19.178827 
L 128.57167 18.015263 
L 128.533556 17.916794 
L 128.062194 16.755693 
L 127.940378 16.477591 
L 127.590832 15.693876 
L 127.217558 14.939919 
L 127.11947 14.741902 
L 126.648108 13.858661 
L 126.374783 13.402247 
L 126.176746 13.064065 
L 125.705384 12.335091 
L 125.359492 11.864575 
L 125.234021 11.685937 
L 124.762659 11.073272 
L 124.291297 10.542398 
L 124.077873 10.326903 
L 123.819935 10.046723 
L 123.348573 9.588557 
L 122.877211 9.18802 
L 122.405849 8.836546 
L 122.336283 8.789231 
L 121.934487 8.48682 
L 121.463125 8.171265 
L 120.991763 7.89125 
L 120.520401 7.641924 
L 120.049038 7.419332 
L 119.653372 7.251559 
L 119.577676 7.215153 
L 119.106314 7.00795 
L 118.634952 6.82318 
L 118.16359 6.659127 
L 117.692228 6.514514 
L 117.220866 6.388396 
L 116.749504 6.280071 
L 116.278142 6.188996 
L 115.80678 6.114726 
L 115.335418 6.056867 
L 114.864056 6.015044 
L 114.392693 5.988885 
L 113.921331 5.978017 
L 113.449969 5.982071 
L 112.978607 6.000691 
L 112.507245 6.033555 
L 112.035883 6.080386 
L 111.564521 6.140969 
L 111.093159 6.215163 
L 110.621797 6.302912 
L 110.150435 6.40424 
L 109.679073 6.519256 
L 109.207711 6.64814 
L 108.736348 6.791133 
L 108.264986 6.948518 
L 107.793624 7.120605 
L 107.461455 7.251559 
L 107.322262 7.299994 
L 106.8509 7.474621 
L 106.379538 7.662746 
L 105.908176 7.864618 
L 105.436814 8.080507 
L 104.965452 8.31073 
L 104.49409 8.555691 
L 104.069798 8.789231 
L 104.022728 8.812523 
L 103.551365 9.053466 
L 103.080003 9.308958 
L 102.608641 9.57992 
L 102.137279 9.86742 
L 101.665917 10.172612 
L 101.437429 10.326903 
L 101.194555 10.476502 
L 100.723193 10.779329 
L 100.251831 11.099846 
L 99.780469 11.438097 
L 99.309107 11.793481 
L 99.216078 11.864575 
L 98.837745 12.131737 
L 98.366383 12.474002 
L 97.89502 12.825324 
L 97.423658 13.182382 
L 97.13112 13.402247 
L 96.952296 13.527742 
L 96.480934 13.85 
L 96.009572 14.16821 
L 95.53821 14.480608 
L 95.066848 14.78677 
L 94.823532 14.939919 
L 94.595486 15.075308 
L 94.124124 15.349315 
L 93.652762 15.62649 
L 93.1814 15.912938 
L 92.710038 16.216098 
L 92.332199 16.477591 
L 92.238675 16.539904 
L 91.767313 16.878345 
L 91.295951 17.258788 
L 90.824589 17.690791 
L 90.509975 18.015263 
L 90.353227 18.175326 
L 89.881865 18.710699 
L 89.410503 19.322831 
L 89.249421 19.552935 
L 88.939141 20.003258 
L 88.467779 20.764897 
L 88.282227 21.090607 
L 87.996417 21.610951 
L 87.525055 22.547386 
L 87.486127 22.628279 
L 87.053692 23.577121 
L 86.799985 24.165951 
L 86.58233 24.708075 
L 86.196086 25.703623 
L 86.110968 25.942932 
L 85.655724 27.241295 
L 85.639606 27.292291 
L 85.168244 28.778967 
L 85.168244 28.778967 
L 84.729191 30.31664 
L 84.696882 30.447276 
L 84.33895 31.854312 
L 84.22552 32.383115 
L 84.001422 33.391984 
L 83.754158 34.760565 
L 83.722434 34.929656 
L 83.496523 36.467328 
L 83.33615 38.005 
L 83.282796 38.857069 
L 83.237764 39.542672 
L 83.204025 41.080344 
L 83.238303 42.618016 
L 83.282796 43.282429 
L 83.340235 44.155688 
L 83.511419 45.69336 
L 83.754158 47.204665 
L 83.75839 47.231032 
L 84.076447 48.768704 
L 84.22552 49.350797 
L 84.474534 50.306376 
L 84.696882 51.026701 
L 84.955814 51.844048 
L 85.168244 52.429863 
L 85.525782 53.38172 
L 85.639606 53.653904 
L 86.110968 54.742834 
L 86.189752 54.919392 
L 86.58233 55.72981 
L 86.95511 56.457065 
L 87.053692 56.63795 
L 87.525055 57.47767 
L 87.832583 57.994737 
L 87.996417 58.259323 
L 88.467779 58.992148 
L 88.838447 59.532409 
L 88.939141 59.676201 
L 89.410503 60.328815 
L 89.881865 60.935905 
L 89.989402 61.070081 
L 90.353227 61.524178 
L 90.824589 62.08191 
L 91.295951 62.607216 
L 91.296437 62.607753 
L 91.767313 63.137374 
L 92.238675 63.642777 
L 92.710038 64.12713 
L 92.72778 64.145425 
L 93.1814 64.628183 
L 93.652762 65.112454 
L 94.124124 65.57901 
L 94.229933 65.683097 
L 94.595486 66.058162 
L 95.066848 66.524671 
L 95.53821 66.966957 
L 95.821123 67.220769 
L 96.009572 67.3991 
L 96.480934 67.825122 
L 96.952296 68.217279 
L 97.423658 68.574411 
L 97.688958 68.758441 
L 97.89502 68.911891 
L 98.366383 69.231486 
L 98.837745 69.513433 
L 99.309107 69.759674 
L 99.780469 69.972692 
L 100.251831 70.155405 
L 100.677042 70.296113 
L 100.723193 70.313009 
L 101.194555 70.462411 
L 101.665917 70.589529 
L 102.137279 70.698646 
L 102.608641 70.794122 
L 103.080003 70.880326 
L 103.551365 70.961543 
L 104.022728 71.041872 
L 104.49409 71.125096 
L 104.965452 71.214528 
L 105.436814 71.312865 
L 105.908176 71.422039 
L 106.379538 71.543103 
L 106.8509 71.676165 
L 107.322262 71.820391 
L 107.362633 71.833785 
L 107.793624 71.995272 
L 108.264986 72.180268 
L 108.736348 72.36989 
L 109.207711 72.560332 
L 109.679073 72.747717 
L 110.150435 72.928354 
L 110.621797 73.098943 
L 111.093159 73.256721 
L 111.47053 73.371457 
L 111.564521 73.404033 
z
" clip-path="url(#pa17135a04d)" style="fill: none; stroke: #1f77b4; stroke-width: 1.5"/>
    <path d="M 112.035883 67.34718 
L 112.507245 67.490695 
L 112.978607 67.61364 
L 113.449969 67.716157 
L 113.921331 67.79878 
L 114.392693 67.862338 
L 114.864056 67.907846 
L 115.335418 67.936408 
L 115.80678 67.949102 
L 116.278142 67.946883 
L 116.749504 67.930472 
L 117.220866 67.900254 
L 117.692228 67.856176 
L 118.16359 67.797648 
L 118.634952 67.723462 
L 119.106314 67.631717 
L 119.577676 67.519767 
L 120.049038 67.38419 
L 120.520401 67.220769 
L 120.520401 67.220769 
L 120.991763 67.043041 
L 121.463125 66.829992 
L 121.934487 66.57554 
L 122.405849 66.272858 
L 122.877211 65.914358 
L 123.139962 65.683097 
L 123.348573 65.506928 
L 123.819935 65.049721 
L 124.291297 64.514359 
L 124.576253 64.145425 
L 124.762659 63.906897 
L 125.234021 63.228481 
L 125.61095 62.607753 
L 125.705384 62.450118 
L 126.176746 61.58605 
L 126.429321 61.070081 
L 126.648108 60.604972 
L 127.104176 59.532409 
L 127.11947 59.494164 
L 127.590832 58.237132 
L 127.675815 57.994737 
L 128.062194 56.78856 
L 128.163105 56.457065 
L 128.533556 55.091412 
L 128.578729 54.919392 
L 128.934595 53.38172 
L 129.004918 53.025618 
L 129.237082 51.844048 
L 129.47628 50.348686 
L 129.483135 50.306376 
L 129.690716 48.768704 
L 129.848413 47.231032 
L 129.947642 45.890085 
L 129.962933 45.69336 
L 130.042473 44.155688 
L 130.08136 42.618016 
L 130.081518 41.080344 
L 130.043805 39.542672 
L 129.968039 38.005 
L 129.947642 37.72853 
L 129.86113 36.467328 
L 129.718021 34.929656 
L 129.533686 33.391984 
L 129.47628 32.99567 
L 129.317309 31.854312 
L 129.057789 30.31664 
L 129.004918 30.044557 
L 128.761971 28.778967 
L 128.533556 27.756143 
L 128.417816 27.241295 
L 128.062194 25.850953 
L 128.023514 25.703623 
L 127.590832 24.223795 
L 127.573124 24.165951 
L 127.11947 22.807215 
L 127.055653 22.628279 
L 126.648108 21.558817 
L 126.453668 21.090607 
L 126.176746 20.453817 
L 125.741288 19.552935 
L 125.705384 19.480584 
L 125.234021 18.598543 
L 124.879547 18.015263 
L 124.762659 17.823275 
L 124.291297 17.117399 
L 123.819935 16.504451 
L 123.79736 16.477591 
L 123.348573 15.9293 
L 122.877211 15.425245 
L 122.405849 14.983612 
L 122.354668 14.939919 
L 121.934487 14.562205 
L 121.463125 14.186562 
L 120.991763 13.853656 
L 120.520401 13.557493 
L 120.2467 13.402247 
L 120.049038 13.281348 
L 119.577676 13.019467 
L 119.106314 12.78528 
L 118.634952 12.576124 
L 118.16359 12.390014 
L 117.692228 12.225515 
L 117.220866 12.081621 
L 116.749504 11.957644 
L 116.330324 11.864575 
L 116.278142 11.851752 
L 115.80678 11.756188 
L 115.335418 11.681778 
L 114.864056 11.628248 
L 114.392693 11.595328 
L 113.921331 11.582735 
L 113.449969 11.590174 
L 112.978607 11.617341 
L 112.507245 11.663935 
L 112.035883 11.729675 
L 111.564521 11.814315 
L 111.333919 11.864575 
L 111.093159 11.912104 
L 110.621797 12.021289 
L 110.150435 12.147076 
L 109.679073 12.289463 
L 109.207711 12.448497 
L 108.736348 12.624267 
L 108.264986 12.81689 
L 107.793624 13.026503 
L 107.322262 13.253248 
L 107.031752 13.402247 
L 106.8509 13.488575 
L 106.379538 13.726055 
L 105.908176 13.979426 
L 105.436814 14.248828 
L 104.965452 14.534477 
L 104.49409 14.83671 
L 104.338802 14.939919 
L 104.022728 15.138561 
L 103.551365 15.448166 
L 103.080003 15.774659 
L 102.608641 16.119118 
L 102.143869 16.477591 
L 102.137279 16.482462 
L 101.665917 16.839506 
L 101.194555 17.216602 
L 100.723193 17.61495 
L 100.273751 18.015263 
L 100.251831 18.034236 
L 99.780469 18.450436 
L 99.309107 18.887102 
L 98.837745 19.343245 
L 98.624984 19.552935 
L 98.366383 19.804312 
L 97.89502 20.269414 
L 97.423658 20.745589 
L 97.084155 21.090607 
L 96.952296 21.22483 
L 96.480934 21.696992 
L 96.009572 22.171327 
L 95.555658 22.628279 
L 95.53821 22.646184 
L 95.066848 23.11514 
L 94.595486 23.58818 
L 94.124124 24.069722 
L 94.030131 24.165951 
L 93.652762 24.569014 
L 93.1814 25.094324 
L 92.710038 25.656035 
L 92.671934 25.703623 
L 92.238675 26.284451 
L 91.767313 26.980586 
L 91.604546 27.241295 
L 91.295951 27.788339 
L 90.824589 28.714913 
L 90.794369 28.778967 
L 90.353227 29.849997 
L 90.176797 30.31664 
L 89.881865 31.243761 
L 89.699893 31.854312 
L 89.410503 33.062066 
L 89.334817 33.391984 
L 89.064305 34.929656 
L 88.939141 35.958587 
L 88.877845 36.467328 
L 88.769581 38.005 
L 88.737732 39.542672 
L 88.781913 41.080344 
L 88.904007 42.618016 
L 88.939141 42.889133 
L 89.104918 44.155688 
L 89.391496 45.69336 
L 89.410503 45.773324 
L 89.766818 47.231032 
L 89.881865 47.615508 
L 90.23989 48.768704 
L 90.353227 49.080556 
L 90.818619 50.306376 
L 90.824589 50.320278 
L 91.295951 51.386955 
L 91.506919 51.844048 
L 91.767313 52.357688 
L 92.238675 53.251864 
L 92.308217 53.38172 
L 92.710038 54.080714 
L 93.1814 54.871297 
L 93.210082 54.919392 
L 93.652762 55.623528 
L 94.124124 56.349816 
L 94.193756 56.457065 
L 94.595486 57.05274 
L 95.066848 57.729876 
L 95.254715 57.994737 
L 95.53821 58.384679 
L 96.009572 59.010554 
L 96.425278 59.532409 
L 96.480934 59.601519 
L 96.952296 60.16613 
L 97.423658 60.685743 
L 97.804031 61.070081 
L 97.89502 61.162569 
L 98.366383 61.607258 
L 98.837745 62.003387 
L 99.309107 62.352843 
L 99.700308 62.607753 
L 99.780469 62.661594 
L 100.251831 62.943656 
L 100.723193 63.18796 
L 101.194555 63.399408 
L 101.665917 63.583171 
L 102.137279 63.744543 
L 102.608641 63.888806 
L 103.080003 64.021096 
L 103.548118 64.145425 
L 103.551365 64.146344 
L 104.022728 64.279268 
L 104.49409 64.413784 
L 104.965452 64.553402 
L 105.436814 64.700798 
L 105.908176 64.857723 
L 106.379538 65.024954 
L 106.8509 65.202302 
L 107.322262 65.38867 
L 107.793624 65.582176 
L 108.031331 65.683097 
L 108.264986 65.790377 
L 108.736348 66.010924 
L 109.207711 66.22987 
L 109.679073 66.443687 
L 110.150435 66.649052 
L 110.621797 66.843003 
L 111.093159 67.023055 
L 111.564521 67.187267 
L 111.670781 67.220769 
L 112.035883 67.34718 
z
" clip-path="url(#pa17135a04d)" style="fill: none; stroke: #1f77b4; stroke-width: 1.5"/>
    <path d="M 110.621797 62.618499 
L 111.093159 62.83204 
L 111.564521 63.026664 
L 112.035883 63.201025 
L 112.507245 63.354328 
L 112.978607 63.486263 
L 113.449969 63.596935 
L 113.921331 63.686766 
L 114.392693 63.756407 
L 114.864056 63.80664 
L 115.335418 63.838279 
L 115.80678 63.852078 
L 116.278142 63.848632 
L 116.749504 63.828282 
L 117.220866 63.791019 
L 117.692228 63.736382 
L 118.16359 63.663367 
L 118.634952 63.570335 
L 119.106314 63.45493 
L 119.577676 63.314011 
L 120.049038 63.143597 
L 120.520401 62.938826 
L 120.991763 62.693922 
L 121.133714 62.607753 
L 121.463125 62.414503 
L 121.934487 62.088576 
L 122.405849 61.702558 
L 122.877211 61.247038 
L 123.037634 61.070081 
L 123.348573 60.727278 
L 123.819935 60.126604 
L 124.221868 59.532409 
L 124.291297 59.427095 
L 124.762659 58.630336 
L 125.09197 57.994737 
L 125.234021 57.705395 
L 125.705384 56.637283 
L 125.778394 56.457065 
L 126.176746 55.387325 
L 126.336886 54.919392 
L 126.648108 53.903246 
L 126.79798 53.38172 
L 127.11947 52.093476 
L 127.179063 51.844048 
L 127.493697 50.306376 
L 127.590832 49.727361 
L 127.749319 48.768704 
L 127.949869 47.231032 
L 128.062194 46.07641 
L 128.09998 45.69336 
L 128.206467 44.155688 
L 128.26713 42.618016 
L 128.284454 41.080344 
L 128.259681 39.542672 
L 128.192849 38.005 
L 128.082784 36.467328 
L 128.062194 36.259639 
L 127.934248 34.929656 
L 127.739959 33.391984 
L 127.590832 32.44513 
L 127.497934 31.854312 
L 127.206124 30.31664 
L 127.11947 29.925361 
L 126.858493 28.778967 
L 126.648108 27.978039 
L 126.445162 27.241295 
L 126.176746 26.374338 
L 125.954597 25.703623 
L 125.705384 25.017568 
L 125.367881 24.165951 
L 125.234021 23.850774 
L 124.762659 22.838384 
L 124.655028 22.628279 
L 124.291297 21.947729 
L 123.819935 21.170798 
L 123.76652 21.090607 
L 123.348573 20.473716 
L 122.877211 19.863126 
L 122.608537 19.552935 
L 122.405849 19.317388 
L 121.934487 18.824437 
L 121.463125 18.389911 
L 121.004367 18.015263 
L 120.991763 18.004647 
L 120.520401 17.640883 
L 120.049038 17.316785 
L 119.577676 17.027303 
L 119.106314 16.76845 
L 118.634952 16.537168 
L 118.500318 16.477591 
L 118.16359 16.319965 
L 117.692228 16.123884 
L 117.220866 15.952304 
L 116.749504 15.804431 
L 116.278142 15.679775 
L 115.80678 15.578042 
L 115.335418 15.499057 
L 114.864056 15.442693 
L 114.392693 15.408833 
L 113.921331 15.397341 
L 113.449969 15.408054 
L 112.978607 15.44078 
L 112.507245 15.495311 
L 112.035883 15.571425 
L 111.564521 15.668908 
L 111.093159 15.787556 
L 110.621797 15.92719 
L 110.150435 16.087653 
L 109.679073 16.268819 
L 109.207711 16.470582 
L 109.192555 16.477591 
L 108.736348 16.678722 
L 108.264986 16.905533 
L 107.793624 17.15138 
L 107.322262 17.416155 
L 106.8509 17.699747 
L 106.379538 18.002054 
L 106.359665 18.015263 
L 105.908176 18.306924 
L 105.436814 18.628529 
L 104.965452 18.967584 
L 104.49409 19.324305 
L 104.203622 19.552935 
L 104.022728 19.69332 
L 103.551365 20.070928 
L 103.080003 20.467061 
L 102.608641 20.883043 
L 102.38169 21.090607 
L 102.137279 21.314033 
L 101.665917 21.761212 
L 101.194555 22.232126 
L 100.816191 22.628279 
L 100.723193 22.727107 
L 100.251831 23.242335 
L 99.780469 23.784521 
L 99.461468 24.165951 
L 99.309107 24.354144 
L 98.837745 24.950435 
L 98.366383 25.572169 
L 98.267641 25.703623 
L 97.89502 26.226733 
L 97.423658 26.905175 
L 97.192114 27.241295 
L 96.952296 27.617088 
L 96.480934 28.360351 
L 96.216693 28.778967 
L 96.009572 29.143338 
L 95.53821 29.97392 
L 95.344017 30.31664 
L 95.066848 30.879636 
L 94.595486 31.854312 
L 94.595486 31.854312 
L 94.124124 33.029152 
L 93.98225 33.391984 
L 93.652762 34.474211 
L 93.517632 34.929656 
L 93.19452 36.467328 
L 93.1814 36.569927 
L 93.000266 38.005 
L 92.927147 39.542672 
L 92.966698 41.080344 
L 93.113947 42.618016 
L 93.1814 43.029099 
L 93.362342 44.155688 
L 93.652762 45.431589 
L 93.711109 45.69336 
L 94.124124 47.127981 
L 94.153282 47.231032 
L 94.595486 48.512649 
L 94.682976 48.768704 
L 95.066848 49.727808 
L 95.298848 50.306376 
L 95.53821 50.831809 
L 96.007437 51.844048 
L 96.009572 51.848205 
L 96.480934 52.756561 
L 96.820877 53.38172 
L 96.952296 53.604323 
L 97.423658 54.369357 
L 97.788576 54.919392 
L 97.89502 55.070265 
L 98.366383 55.696275 
L 98.837745 56.259545 
L 99.019508 56.457065 
L 99.309107 56.760175 
L 99.780469 57.202054 
L 100.251831 57.590117 
L 100.723193 57.929555 
L 100.824593 57.994737 
L 101.194555 58.23061 
L 101.665917 58.496557 
L 102.137279 58.732891 
L 102.608641 58.946205 
L 103.080003 59.142854 
L 103.551365 59.328764 
L 104.022728 59.509257 
L 104.082434 59.532409 
L 104.49409 59.695743 
L 104.965452 59.886575 
L 105.436814 60.083561 
L 105.908176 60.288426 
L 106.379538 60.501823 
L 106.8509 60.723386 
L 107.322262 60.951831 
L 107.558732 61.070081 
L 107.793624 61.192402 
L 108.264986 61.442909 
L 108.736348 61.692656 
L 109.207711 61.938235 
L 109.679073 62.176293 
L 110.150435 62.403708 
L 110.599459 62.607753 
L 110.621797 62.618499 
z
" clip-path="url(#pa17135a04d)" style="fill: none; stroke: #1f77b4; stroke-width: 1.5"/>
    <path d="M 112.035883 59.642483 
L 112.507245 59.815058 
L 112.978607 59.963394 
L 113.449969 60.087631 
L 113.921331 60.188197 
L 114.392693 60.265704 
L 114.864056 60.32085 
L 115.335418 60.354317 
L 115.80678 60.366672 
L 116.278142 60.358277 
L 116.749504 60.329181 
L 117.220866 60.27903 
L 117.692228 60.206958 
L 118.16359 60.111489 
L 118.634952 59.990434 
L 119.106314 59.840798 
L 119.577676 59.658691 
L 119.85119 59.532409 
L 120.049038 59.442571 
L 120.520401 59.189016 
L 120.991763 58.886586 
L 121.463125 58.527278 
L 121.934487 58.101871 
L 122.038088 57.994737 
L 122.405849 57.606541 
L 122.877211 57.025141 
L 123.272312 56.457065 
L 123.348573 56.341976 
L 123.819935 55.539998 
L 124.137574 54.919392 
L 124.291297 54.59427 
L 124.762659 53.472306 
L 124.797387 53.38172 
L 125.234021 52.105311 
L 125.315799 51.844048 
L 125.705384 50.402447 
L 125.729653 50.306376 
L 126.059122 48.768704 
L 126.176746 48.082179 
L 126.317249 47.231032 
L 126.511853 45.69336 
L 126.648108 44.155688 
L 126.648108 44.155688 
L 126.732725 42.618016 
L 126.765631 41.080344 
L 126.748426 39.542672 
L 126.681257 38.005 
L 126.648108 37.569931 
L 126.564852 36.467328 
L 126.396439 34.929656 
L 126.176746 33.430914 
L 126.170923 33.391984 
L 125.885868 31.854312 
L 125.705384 31.054167 
L 125.530623 30.31664 
L 125.234021 29.249814 
L 125.093807 28.778967 
L 124.762659 27.800433 
L 124.556133 27.241295 
L 124.291297 26.592235 
L 123.888379 25.703623 
L 123.819935 25.563434 
L 123.348573 24.68237 
L 123.036656 24.165951 
L 122.877211 23.913887 
L 122.405849 23.242021 
L 121.934487 22.652599 
L 121.913107 22.628279 
L 121.463125 22.125403 
L 120.991763 21.659263 
L 120.520401 21.245764 
L 120.324603 21.090607 
L 120.049038 20.870864 
L 119.577676 20.532063 
L 119.106314 20.229492 
L 118.634952 19.959398 
L 118.16359 19.718993 
L 117.796747 19.552935 
L 117.692228 19.504216 
L 117.220866 19.309737 
L 116.749504 19.14221 
L 116.278142 19.001132 
L 115.80678 18.886266 
L 115.335418 18.797535 
L 114.864056 18.734943 
L 114.392693 18.698512 
L 113.921331 18.68825 
L 113.449969 18.704123 
L 112.978607 18.746052 
L 112.507245 18.813914 
L 112.035883 18.907544 
L 111.564521 19.026749 
L 111.093159 19.171307 
L 110.621797 19.340979 
L 110.150435 19.535504 
L 110.11232 19.552935 
L 109.679073 19.747173 
L 109.207711 19.981647 
L 108.736348 20.239234 
L 108.264986 20.519554 
L 107.793624 20.822184 
L 107.402165 21.090607 
L 107.322262 21.145523 
L 106.8509 21.484231 
L 106.379538 21.8432 
L 105.908176 22.221922 
L 105.436814 22.620009 
L 105.427245 22.628279 
L 104.965452 23.035031 
L 104.49409 23.46844 
L 104.022728 23.920603 
L 103.774717 24.165951 
L 103.551365 24.394613 
L 103.080003 24.89126 
L 102.608641 25.409518 
L 102.350061 25.703623 
L 102.137279 25.958209 
L 101.665917 26.540715 
L 101.194555 27.151877 
L 101.127487 27.241295 
L 100.723193 27.819446 
L 100.251831 28.525571 
L 100.088152 28.778967 
L 99.780469 29.302229 
L 99.309107 30.136814 
L 99.210045 30.31664 
L 98.837745 31.081372 
L 98.47382 31.854312 
L 98.366383 32.122094 
L 97.89502 33.321823 
L 97.867737 33.391984 
L 97.423658 34.803393 
L 97.384231 34.929656 
L 97.02096 36.467328 
L 96.952296 36.90027 
L 96.775556 38.005 
L 96.647525 39.542672 
L 96.632858 41.080344 
L 96.728249 42.618016 
L 96.9335 44.155688 
L 96.952296 44.248157 
L 97.245993 45.69336 
L 97.423658 46.338563 
L 97.675297 47.231032 
L 97.89502 47.85069 
L 98.236925 48.768704 
L 98.366383 49.05966 
L 98.837745 50.051779 
L 98.968577 50.306376 
L 99.309107 50.884003 
L 99.780469 51.604816 
L 99.953335 51.844048 
L 100.251831 52.217242 
L 100.723193 52.74448 
L 101.194555 53.209744 
L 101.387992 53.38172 
L 101.665917 53.612927 
L 102.137279 53.968053 
L 102.608641 54.289993 
L 103.080003 54.586866 
L 103.551365 54.866194 
L 103.642969 54.919392 
L 104.022728 55.133129 
L 104.49409 55.395252 
L 104.965452 55.657426 
L 105.436814 55.922835 
L 105.908176 56.193423 
L 106.357135 56.457065 
L 106.379538 56.470135 
L 106.8509 56.756909 
L 107.322262 57.048238 
L 107.793624 57.341826 
L 108.264986 57.634788 
L 108.736348 57.923887 
L 108.853068 57.994737 
L 109.207711 58.212974 
L 109.679073 58.493586 
L 110.150435 58.760107 
L 110.621797 59.009759 
L 111.093159 59.240265 
L 111.564521 59.449894 
L 111.770464 59.532409 
L 112.035883 59.642483 
z
" clip-path="url(#pa17135a04d)" style="fill: none; stroke: #1f77b4; stroke-width: 1.5"/>
    <path d="M 112.507245 56.63794 
L 112.978607 56.802392 
L 113.449969 56.939375 
L 113.921331 57.049345 
L 114.392693 57.13291 
L 114.864056 57.190715 
L 115.335418 57.223345 
L 115.80678 57.23121 
L 116.278142 57.214455 
L 116.749504 57.172849 
L 117.220866 57.105682 
L 117.692228 57.011657 
L 118.16359 56.888774 
L 118.634952 56.734217 
L 119.106314 56.544243 
L 119.286883 56.457065 
L 119.577676 56.314793 
L 120.049038 56.039577 
L 120.520401 55.710865 
L 120.991763 55.32009 
L 121.40153 54.919392 
L 121.463125 54.856194 
L 121.934487 54.300024 
L 122.405849 53.64415 
L 122.570922 53.38172 
L 122.877211 52.851935 
L 123.348573 51.908466 
L 123.377457 51.844048 
L 123.819935 50.730321 
L 123.970117 50.306376 
L 124.291297 49.244593 
L 124.42251 48.768704 
L 124.762659 47.25572 
L 124.767829 47.231032 
L 125.023447 45.69336 
L 125.204985 44.155688 
L 125.234021 43.769566 
L 125.31799 42.618016 
L 125.367563 41.080344 
L 125.356035 39.542672 
L 125.2837 38.005 
L 125.234021 37.432291 
L 125.148442 36.467328 
L 124.946736 34.929656 
L 124.762659 33.882141 
L 124.672055 33.391984 
L 124.313864 31.854312 
L 124.291297 31.773084 
L 123.853748 30.31664 
L 123.819935 30.219574 
L 123.348573 28.979747 
L 123.264271 28.778967 
L 122.877211 27.954001 
L 122.500967 27.241295 
L 122.405849 27.075407 
L 121.934487 26.330991 
L 121.483466 25.703623 
L 121.463125 25.676823 
L 120.991763 25.111254 
L 120.520401 24.610411 
L 120.049832 24.165951 
L 120.049038 24.165222 
L 119.577676 23.770032 
L 119.106314 23.417596 
L 118.634952 23.103337 
L 118.16359 22.82385 
L 117.791572 22.628279 
L 117.692228 22.576173 
L 117.220866 22.357708 
L 116.749504 22.169717 
L 116.278142 22.011686 
L 115.80678 21.883447 
L 115.335418 21.785047 
L 114.864056 21.716654 
L 114.392693 21.678471 
L 113.921331 21.670687 
L 113.449969 21.693443 
L 112.978607 21.746814 
L 112.507245 21.830798 
L 112.035883 21.94532 
L 111.564521 22.090231 
L 111.093159 22.265305 
L 110.621797 22.470238 
L 110.302291 22.628279 
L 110.150435 22.70441 
L 109.679073 22.967077 
L 109.207711 23.258185 
L 108.736348 23.57703 
L 108.264986 23.922789 
L 107.954305 24.165951 
L 107.793624 24.296731 
L 107.322262 24.700117 
L 106.8509 25.127521 
L 106.379538 25.577697 
L 106.251616 25.703623 
L 105.908176 26.062448 
L 105.436814 26.572561 
L 104.965452 27.102317 
L 104.844211 27.241295 
L 104.49409 27.675531 
L 104.022728 28.275945 
L 103.638901 28.778967 
L 103.551365 28.905876 
L 103.080003 29.599763 
L 102.608641 30.31664 
L 102.608641 30.31664 
L 102.137279 31.143495 
L 101.745333 31.854312 
L 101.665917 32.023325 
L 101.194555 33.050252 
L 101.042211 33.391984 
L 100.723193 34.270169 
L 100.489969 34.929656 
L 100.251831 35.81418 
L 100.07971 36.467328 
L 99.804534 38.005 
L 99.780469 38.262681 
L 99.66205 39.542672 
L 99.651116 41.080344 
L 99.775784 42.618016 
L 99.780469 42.64563 
L 100.052053 44.155688 
L 100.251831 44.868756 
L 100.502292 45.69336 
L 100.723193 46.232061 
L 101.176506 47.231032 
L 101.194555 47.263017 
L 101.665917 48.033188 
L 102.137279 48.720332 
L 102.172936 48.768704 
L 102.608641 49.275652 
L 103.080003 49.780203 
L 103.551365 50.250468 
L 103.608932 50.306376 
L 104.022728 50.667798 
L 104.49409 51.067761 
L 104.965452 51.460481 
L 105.429023 51.844048 
L 105.436814 51.850055 
L 105.908176 52.223434 
L 106.379538 52.598843 
L 106.8509 52.976025 
L 107.322262 53.353605 
L 107.356799 53.38172 
L 107.793624 53.72292 
L 108.264986 54.087185 
L 108.736348 54.443488 
L 109.207711 54.788264 
L 109.393015 54.919392 
L 109.679073 55.118202 
L 110.150435 55.429974 
L 110.621797 55.720639 
L 111.093159 55.987912 
L 111.564521 56.230082 
L 112.035883 56.446006 
L 112.063203 56.457065 
L 112.507245 56.63794 
z
" clip-path="url(#pa17135a04d)" style="fill: none; stroke: #1f77b4; stroke-width: 1.5"/>
    <path d="M 112.035883 53.480203 
L 112.507245 53.697423 
L 112.978607 53.882263 
L 113.449969 54.034981 
L 113.921331 54.15608 
L 114.392693 54.246182 
L 114.864056 54.30591 
L 115.335418 54.335764 
L 115.80678 54.336013 
L 116.278142 54.306577 
L 116.749504 54.246914 
L 117.220866 54.155904 
L 117.692228 54.031722 
L 118.16359 53.871711 
L 118.634952 53.672242 
L 119.106314 53.428582 
L 119.182761 53.38172 
L 119.577676 53.126267 
L 120.049038 52.762267 
L 120.520401 52.328829 
L 120.965774 51.844048 
L 120.991763 51.813086 
L 121.463125 51.16713 
L 121.934487 50.404432 
L 121.987889 50.306376 
L 122.405849 49.42842 
L 122.679235 48.768704 
L 122.877211 48.197904 
L 123.175646 47.231032 
L 123.348573 46.521987 
L 123.532355 45.69336 
L 123.78131 44.155688 
L 123.819935 43.788424 
L 123.935445 42.618016 
L 124.007169 41.080344 
L 124.000983 39.542672 
L 123.917545 38.005 
L 123.819935 37.07514 
L 123.752789 36.467328 
L 123.498554 34.929656 
L 123.348573 34.251962 
L 123.143033 33.391984 
L 122.877211 32.503707 
L 122.664033 31.854312 
L 122.405849 31.192778 
L 122.025442 30.31664 
L 121.934487 30.133251 
L 121.463125 29.273777 
L 121.158504 28.778967 
L 120.991763 28.533288 
L 120.520401 27.907688 
L 120.049038 27.352354 
L 119.944749 27.241295 
L 119.577676 26.875403 
L 119.106314 26.455079 
L 118.634952 26.08069 
L 118.16359 25.747993 
L 118.093129 25.703623 
L 117.692228 25.460948 
L 117.220866 25.211373 
L 116.749504 24.99692 
L 116.278142 24.817061 
L 115.80678 24.671724 
L 115.335418 24.561131 
L 114.864056 24.485674 
L 114.392693 24.445809 
L 113.921331 24.441981 
L 113.449969 24.474575 
L 112.978607 24.543883 
L 112.507245 24.650086 
L 112.035883 24.793239 
L 111.564521 24.973268 
L 111.093159 25.189954 
L 110.621797 25.442919 
L 110.195428 25.703623 
L 110.150435 25.732704 
L 109.679073 26.069134 
L 109.207711 26.44106 
L 108.736348 26.847191 
L 108.312063 27.241295 
L 108.264986 27.288929 
L 107.793624 27.789547 
L 107.322262 28.320603 
L 106.93423 28.778967 
L 106.8509 28.889315 
L 106.379538 29.529572 
L 105.908176 30.19345 
L 105.822034 30.31664 
L 105.436814 30.952658 
L 104.965452 31.746457 
L 104.901825 31.854312 
L 104.49409 32.682155 
L 104.147078 33.391984 
L 104.022728 33.71361 
L 103.551365 34.929656 
L 103.551365 34.929656 
L 103.11332 36.467328 
L 103.080003 36.654854 
L 102.836622 38.005 
L 102.726836 39.542672 
L 102.795688 41.080344 
L 103.062381 42.618016 
L 103.080003 42.676102 
L 103.551365 44.140743 
L 103.556412 44.155688 
L 104.022728 45.12989 
L 104.306135 45.69336 
L 104.49409 45.986462 
L 104.965452 46.706027 
L 105.317699 47.231032 
L 105.436814 47.380353 
L 105.908176 47.973507 
L 106.379538 48.558126 
L 106.54861 48.768704 
L 106.8509 49.101553 
L 107.322262 49.61903 
L 107.793624 50.127988 
L 107.960201 50.306376 
L 108.264986 50.605518 
L 108.736348 51.057946 
L 109.207711 51.492714 
L 109.607161 51.844048 
L 109.679073 51.903719 
L 110.150435 52.27721 
L 110.621797 52.623854 
L 111.093159 52.94129 
L 111.564521 53.227773 
L 111.84858 53.38172 
L 112.035883 53.480203 
z
" clip-path="url(#pa17135a04d)" style="fill: none; stroke: #1f77b4; stroke-width: 1.5"/>
    <path d="M 112.507245 50.478961 
L 112.978607 50.697556 
L 113.449969 50.875999 
L 113.921331 51.014861 
L 114.392693 51.114802 
L 114.864056 51.176433 
L 115.335418 51.200169 
L 115.80678 51.186092 
L 116.278142 51.133816 
L 116.749504 51.042349 
L 117.220866 50.909948 
L 117.692228 50.733966 
L 118.16359 50.510689 
L 118.514679 50.306376 
L 118.634952 50.229016 
L 119.106314 49.865423 
L 119.577676 49.428305 
L 120.049038 48.906776 
L 120.156551 48.768704 
L 120.520401 48.224502 
L 120.991763 47.394096 
L 121.072482 47.231032 
L 121.463125 46.256033 
L 121.659659 45.69336 
L 121.934487 44.641424 
L 122.047524 44.155688 
L 122.284979 42.618016 
L 122.402477 41.080344 
L 122.405849 39.542672 
L 122.297413 38.005 
L 122.076145 36.467328 
L 121.934487 35.816283 
L 121.723959 34.929656 
L 121.463125 34.10834 
L 121.21189 33.391984 
L 120.991763 32.885649 
L 120.520401 31.912681 
L 120.489127 31.854312 
L 120.049038 31.154867 
L 119.577676 30.487694 
L 119.443459 30.31664 
L 119.106314 29.935577 
L 118.634952 29.459677 
L 118.16359 29.037311 
L 117.837837 28.778967 
L 117.692228 28.673131 
L 117.220866 28.372464 
L 116.749504 28.114738 
L 116.278142 27.899397 
L 115.80678 27.726517 
L 115.335418 27.596609 
L 114.864056 27.51044 
L 114.392693 27.468895 
L 113.921331 27.472859 
L 113.449969 27.523141 
L 112.978607 27.620417 
L 112.507245 27.765189 
L 112.035883 27.957756 
L 111.564521 28.198186 
L 111.093159 28.486283 
L 110.680815 28.778967 
L 110.621797 28.825684 
L 110.150435 29.244556 
L 109.679073 29.713212 
L 109.207711 30.229726 
L 109.133492 30.31664 
L 108.736348 30.85809 
L 108.264986 31.546731 
L 108.064521 31.854312 
L 107.793624 32.36249 
L 107.322262 33.283419 
L 107.26791 33.391984 
L 106.8509 34.479806 
L 106.680588 34.929656 
L 106.379538 36.08848 
L 106.280409 36.467328 
L 106.062042 38.005 
L 106.030315 39.542672 
L 106.19242 41.080344 
L 106.379538 41.871755 
L 106.557092 42.618016 
L 106.8509 43.413638 
L 107.128736 44.155688 
L 107.322262 44.541752 
L 107.793624 45.466331 
L 107.911501 45.69336 
L 108.264986 46.246786 
L 108.736348 46.959804 
L 108.922146 47.231032 
L 109.207711 47.58911 
L 109.679073 48.152018 
L 110.150435 48.678329 
L 110.236964 48.768704 
L 110.621797 49.128805 
L 111.093159 49.531959 
L 111.564521 49.894073 
L 112.035883 50.213936 
L 112.192397 50.306376 
L 112.507245 50.478961 
z
" clip-path="url(#pa17135a04d)" style="fill: none; stroke: #1f77b4; stroke-width: 1.5"/>
    <path d="M 114.392693 47.309627 
L 114.864056 47.370412 
L 115.335418 47.377878 
L 115.80678 47.331742 
L 116.278142 47.231032 
L 116.278142 47.231032 
L 116.749504 47.048101 
L 117.220866 46.795067 
L 117.692228 46.466471 
L 118.16359 46.055028 
L 118.504213 45.69336 
L 118.634952 45.515477 
L 119.106314 44.750929 
L 119.414713 44.155688 
L 119.577676 43.699721 
L 119.909172 42.618016 
L 120.049038 41.766231 
L 120.147937 41.080344 
L 120.184524 39.542672 
L 120.049038 38.088259 
L 120.040582 38.005 
L 119.690283 36.467328 
L 119.577676 36.146645 
L 119.106314 34.934378 
L 119.104277 34.929656 
L 118.634952 34.118396 
L 118.16359 33.392794 
L 118.162997 33.391984 
L 117.692228 32.872236 
L 117.220866 32.418652 
L 116.749504 32.030096 
L 116.493561 31.854312 
L 116.278142 31.728212 
L 115.80678 31.50908 
L 115.335418 31.348119 
L 114.864056 31.24687 
L 114.392693 31.207096 
L 113.921331 31.230608 
L 113.449969 31.31912 
L 112.978607 31.47414 
L 112.507245 31.696886 
L 112.251071 31.854312 
L 112.035883 32.013893 
L 111.564521 32.44397 
L 111.093159 32.957158 
L 110.747283 33.391984 
L 110.621797 33.59816 
L 110.150435 34.466913 
L 109.923067 34.929656 
L 109.679073 35.666367 
L 109.432735 36.467328 
L 109.207711 37.903598 
L 109.192539 38.005 
L 109.179082 39.542672 
L 109.207711 39.760759 
L 109.387276 41.080344 
L 109.679073 42.118166 
L 109.827603 42.618016 
L 110.150435 43.341292 
L 110.542673 44.155688 
L 110.621797 44.280636 
L 111.093159 44.96369 
L 111.564521 45.574561 
L 111.668266 45.69336 
L 112.035883 46.039903 
L 112.507245 46.421887 
L 112.978607 46.740627 
L 113.449969 46.996446 
L 113.921331 47.189913 
L 114.068859 47.231032 
L 114.392693 47.309627 
z
" clip-path="url(#pa17135a04d)" style="fill: none; stroke: #1f77b4; stroke-width: 1.5"/>
    <path clip-path="url(#pa17135a04d)" style="fill: none; stroke: #1f77b4; stroke-width: 1.5"/>
   </g>
   <g id="line2d_19">
    <path d="M 59.42 135.74 
L 267.615 135.74 
" clip-path="url(#pa17135a04d)" style="fill: none; stroke-dasharray: 1,1.65; stroke-dashoffset: 0; stroke: #808080"/>
   </g>
   <g id="line2d_20">
    <path d="M 163.5175 246.04 
L 163.5175 25.44 
" clip-path="url(#pa17135a04d)" style="fill: none; stroke-dasharray: 1,1.65; stroke-dashoffset: 0; stroke: #808080"/>
   </g>
   <g id="patch_3">
    <path d="M 59.42 246.04 
L 59.42 25.44 
" style="fill: none; stroke: #000000; stroke-width: 0.8; stroke-linejoin: miter; stroke-linecap: square"/>
   </g>
   <g id="patch_4">
    <path d="M 267.615 246.04 
L 267.615 25.44 
" style="fill: none; stroke: #000000; stroke-width: 0.8; stroke-linejoin: miter; stroke-linecap: square"/>
   </g>
   <g id="patch_5">
    <path d="M 59.42 246.04 
L 267.615 246.04 
" style="fill: none; stroke: #000000; stroke-width: 0.8; stroke-linejoin: miter; stroke-linecap: square"/>
   </g>
   <g id="patch_6">
    <path d="M 59.42 25.44 
L 267.615 25.44 
" style="fill: none; stroke: #000000; stroke-width: 0.8; stroke-linejoin: miter; stroke-linecap: square"/>
   </g>
   <g id="text_21">
    <!-- Ramachandran plot of bocK -->
    <g transform="translate(80.231875 19.44) scale(0.12 -0.12)">
     <defs>
      <path id="DejaVuSans-52" d="M 2841 2188 
Q 3044 2119 3236 1894 
Q 3428 1669 3622 1275 
L 4263 0 
L 3584 0 
L 2988 1197 
Q 2756 1666 2539 1819 
Q 2322 1972 1947 1972 
L 1259 1972 
L 1259 0 
L 628 0 
L 628 4666 
L 2053 4666 
Q 2853 4666 3247 4331 
Q 3641 3997 3641 3322 
Q 3641 2881 3436 2590 
Q 3231 2300 2841 2188 
z
M 1259 4147 
L 1259 2491 
L 2053 2491 
Q 2509 2491 2742 2702 
Q 2975 2913 2975 3322 
Q 2975 3731 2742 3939 
Q 2509 4147 2053 4147 
L 1259 4147 
z
" transform="scale(0.015625)"/>
      <path id="DejaVuSans-61" d="M 2194 1759 
Q 1497 1759 1228 1600 
Q 959 1441 959 1056 
Q 959 750 1161 570 
Q 1363 391 1709 391 
Q 2188 391 2477 730 
Q 2766 1069 2766 1631 
L 2766 1759 
L 2194 1759 
z
M 3341 1997 
L 3341 0 
L 2766 0 
L 2766 531 
Q 2569 213 2275 61 
Q 1981 -91 1556 -91 
Q 1019 -91 701 211 
Q 384 513 384 1019 
Q 384 1609 779 1909 
Q 1175 2209 1959 2209 
L 2766 2209 
L 2766 2266 
Q 2766 2663 2505 2880 
Q 2244 3097 1772 3097 
Q 1472 3097 1187 3025 
Q 903 2953 641 2809 
L 641 3341 
Q 956 3463 1253 3523 
Q 1550 3584 1831 3584 
Q 2591 3584 2966 3190 
Q 3341 2797 3341 1997 
z
" transform="scale(0.015625)"/>
      <path id="DejaVuSans-6d" d="M 3328 2828 
Q 3544 3216 3844 3400 
Q 4144 3584 4550 3584 
Q 5097 3584 5394 3201 
Q 5691 2819 5691 2113 
L 5691 0 
L 5113 0 
L 5113 2094 
Q 5113 2597 4934 2840 
Q 4756 3084 4391 3084 
Q 3944 3084 3684 2787 
Q 3425 2491 3425 1978 
L 3425 0 
L 2847 0 
L 2847 2094 
Q 2847 2600 2669 2842 
Q 2491 3084 2119 3084 
Q 1678 3084 1418 2786 
Q 1159 2488 1159 1978 
L 1159 0 
L 581 0 
L 581 3500 
L 1159 3500 
L 1159 2956 
Q 1356 3278 1631 3431 
Q 1906 3584 2284 3584 
Q 2666 3584 2933 3390 
Q 3200 3197 3328 2828 
z
" transform="scale(0.015625)"/>
      <path id="DejaVuSans-63" d="M 3122 3366 
L 3122 2828 
Q 2878 2963 2633 3030 
Q 2388 3097 2138 3097 
Q 1578 3097 1268 2742 
Q 959 2388 959 1747 
Q 959 1106 1268 751 
Q 1578 397 2138 397 
Q 2388 397 2633 464 
Q 2878 531 3122 666 
L 3122 134 
Q 2881 22 2623 -34 
Q 2366 -91 2075 -91 
Q 1284 -91 818 406 
Q 353 903 353 1747 
Q 353 2603 823 3093 
Q 1294 3584 2113 3584 
Q 2378 3584 2631 3529 
Q 2884 3475 3122 3366 
z
" transform="scale(0.015625)"/>
      <path id="DejaVuSans-6e" d="M 3513 2113 
L 3513 0 
L 2938 0 
L 2938 2094 
Q 2938 2591 2744 2837 
Q 2550 3084 2163 3084 
Q 1697 3084 1428 2787 
Q 1159 2491 1159 1978 
L 1159 0 
L 581 0 
L 581 3500 
L 1159 3500 
L 1159 2956 
Q 1366 3272 1645 3428 
Q 1925 3584 2291 3584 
Q 2894 3584 3203 3211 
Q 3513 2838 3513 2113 
z
" transform="scale(0.015625)"/>
      <path id="DejaVuSans-70" d="M 1159 525 
L 1159 -1331 
L 581 -1331 
L 581 3500 
L 1159 3500 
L 1159 2969 
Q 1341 3281 1617 3432 
Q 1894 3584 2278 3584 
Q 2916 3584 3314 3078 
Q 3713 2572 3713 1747 
Q 3713 922 3314 415 
Q 2916 -91 2278 -91 
Q 1894 -91 1617 61 
Q 1341 213 1159 525 
z
M 3116 1747 
Q 3116 2381 2855 2742 
Q 2594 3103 2138 3103 
Q 1681 3103 1420 2742 
Q 1159 2381 1159 1747 
Q 1159 1113 1420 752 
Q 1681 391 2138 391 
Q 2594 391 2855 752 
Q 3116 1113 3116 1747 
z
" transform="scale(0.015625)"/>
      <path id="DejaVuSans-6c" d="M 603 4863 
L 1178 4863 
L 1178 0 
L 603 0 
L 603 4863 
z
" transform="scale(0.015625)"/>
      <path id="DejaVuSans-6f" d="M 1959 3097 
Q 1497 3097 1228 2736 
Q 959 2375 959 1747 
Q 959 1119 1226 758 
Q 1494 397 1959 397 
Q 2419 397 2687 759 
Q 2956 1122 2956 1747 
Q 2956 2369 2687 2733 
Q 2419 3097 1959 3097 
z
M 1959 3584 
Q 2709 3584 3137 3096 
Q 3566 2609 3566 1747 
Q 3566 888 3137 398 
Q 2709 -91 1959 -91 
Q 1206 -91 779 398 
Q 353 888 353 1747 
Q 353 2609 779 3096 
Q 1206 3584 1959 3584 
z
" transform="scale(0.015625)"/>
      <path id="DejaVuSans-74" d="M 1172 4494 
L 1172 3500 
L 2356 3500 
L 2356 3053 
L 1172 3053 
L 1172 1153 
Q 1172 725 1289 603 
Q 1406 481 1766 481 
L 2356 481 
L 2356 0 
L 1766 0 
Q 1100 0 847 248 
Q 594 497 594 1153 
L 594 3053 
L 172 3053 
L 172 3500 
L 594 3500 
L 594 4494 
L 1172 4494 
z
" transform="scale(0.015625)"/>
      <path id="DejaVuSans-66" d="M 2375 4863 
L 2375 4384 
L 1825 4384 
Q 1516 4384 1395 4259 
Q 1275 4134 1275 3809 
L 1275 3500 
L 2222 3500 
L 2222 3053 
L 1275 3053 
L 1275 0 
L 697 0 
L 697 3053 
L 147 3053 
L 147 3500 
L 697 3500 
L 697 3744 
Q 697 4328 969 4595 
Q 1241 4863 1831 4863 
L 2375 4863 
z
" transform="scale(0.015625)"/>
      <path id="DejaVuSans-62" d="M 3116 1747 
Q 3116 2381 2855 2742 
Q 2594 3103 2138 3103 
Q 1681 3103 1420 2742 
Q 1159 2381 1159 1747 
Q 1159 1113 1420 752 
Q 1681 391 2138 391 
Q 2594 391 2855 752 
Q 3116 1113 3116 1747 
z
M 1159 2969 
Q 1341 3281 1617 3432 
Q 1894 3584 2278 3584 
Q 2916 3584 3314 3078 
Q 3713 2572 3713 1747 
Q 3713 922 3314 415 
Q 2916 -91 2278 -91 
Q 1894 -91 1617 61 
Q 1341 213 1159 525 
L 1159 0 
L 581 0 
L 581 4863 
L 1159 4863 
L 1159 2969 
z
" transform="scale(0.015625)"/>
      <path id="DejaVuSans-4b" d="M 628 4666 
L 1259 4666 
L 1259 2694 
L 3353 4666 
L 4166 4666 
L 1850 2491 
L 4331 0 
L 3500 0 
L 1259 2247 
L 1259 0 
L 628 0 
L 628 4666 
z
" transform="scale(0.015625)"/>
     </defs>
     <use xlink:href="#DejaVuSans-52"/>
     <use xlink:href="#DejaVuSans-61" transform="translate(67.232422 0)"/>
     <use xlink:href="#DejaVuSans-6d" transform="translate(128.511719 0)"/>
     <use xlink:href="#DejaVuSans-61" transform="translate(225.923828 0)"/>
     <use xlink:href="#DejaVuSans-63" transform="translate(287.203125 0)"/>
     <use xlink:href="#DejaVuSans-68" transform="translate(342.183594 0)"/>
     <use xlink:href="#DejaVuSans-61" transform="translate(405.5625 0)"/>
     <use xlink:href="#DejaVuSans-6e" transform="translate(466.841797 0)"/>
     <use xlink:href="#DejaVuSans-64" transform="translate(530.220703 0)"/>
     <use xlink:href="#DejaVuSans-72" transform="translate(593.697266 0)"/>
     <use xlink:href="#DejaVuSans-61" transform="translate(634.810547 0)"/>
     <use xlink:href="#DejaVuSans-6e" transform="translate(696.089844 0)"/>
     <use xlink:href="#DejaVuSans-20" transform="translate(759.46875 0)"/>
     <use xlink:href="#DejaVuSans-70" transform="translate(791.255859 0)"/>
     <use xlink:href="#DejaVuSans-6c" transform="translate(854.732422 0)"/>
     <use xlink:href="#DejaVuSans-6f" transform="translate(882.515625 0)"/>
     <use xlink:href="#DejaVuSans-74" transform="translate(943.697266 0)"/>
     <use xlink:href="#DejaVuSans-20" transform="translate(982.90625 0)"/>
     <use xlink:href="#DejaVuSans-6f" transform="translate(1014.693359 0)"/>
     <use xlink:href="#DejaVuSans-66" transform="translate(1075.875 0)"/>
     <use xlink:href="#DejaVuSans-20" transform="translate(1111.080078 0)"/>
     <use xlink:href="#DejaVuSans-62" transform="translate(1142.867188 0)"/>
     <use xlink:href="#DejaVuSans-6f" transform="translate(1206.34375 0)"/>
     <use xlink:href="#DejaVuSans-63" transform="translate(1267.525391 0)"/>
     <use xlink:href="#DejaVuSans-4b" transform="translate(1322.505859 0)"/>
    </g>
   </g>
  </g>
 </g>
 <defs>
  <clipPath id="pa17135a04d">
   <rect x="59.42" y="25.44" width="208.195" height="220.6"/>
  </clipPath>
 </defs>
</svg>
