<?xml version="1.0" encoding="utf-8" standalone="no"?>
<!DOCTYPE svg PUBLIC "-//W3C//DTD SVG 1.1//EN"
  "http://www.w3.org/Graphics/SVG/1.1/DTD/svg11.dtd">
<svg xmlns:xlink="http://www.w3.org/1999/xlink" width="503.74375pt" height="226.194375pt" viewBox="0 0 503.74375 226.194375" xmlns="http://www.w3.org/2000/svg" version="1.1">
 <metadata>
  <rdf:RDF xmlns:dc="http://purl.org/dc/elements/1.1/" xmlns:cc="http://creativecommons.org/ns#" xmlns:rdf="http://www.w3.org/1999/02/22-rdf-syntax-ns#">
   <cc:Work>
    <dc:type rdf:resource="http://purl.org/dc/dcmitype/StillImage"/>
    <dc:date>2025-08-22T04:55:17.776038</dc:date>
    <dc:format>image/svg+xml</dc:format>
    <dc:creator>
     <cc:Agent>
      <dc:title>Matplotlib v3.10.0, https://matplotlib.org/</dc:title>
     </cc:Agent>
    </dc:creator>
   </cc:Work>
  </rdf:RDF>
 </metadata>
 <defs>
  <style type="text/css">*{stroke-linejoin: round; stroke-linecap: butt}</style>
 </defs>
 <g id="figure_1">
  <g id="patch_1">
   <path d="M 0 226.194375 
L 503.74375 226.194375 
L 503.74375 0 
L 0 0 
z
" style="fill: #ffffff"/>
  </g>
  <g id="axes_1">
   <g id="patch_2">
    <path d="M 50.14375 188.638125 
L 496.54375 188.638125 
L 496.54375 22.318125 
L 50.14375 22.318125 
z
" style="fill: #ffffff"/>
   </g>
   <g id="matplotlib.axis_1">
    <g id="xtick_1">
     <g id="line2d_1">
      <defs>
       <path id="mbb82f7b374" d="M 0 0 
L 0 3.5 
" style="stroke: #000000; stroke-width: 0.8"/>
      </defs>
      <g>
       <use xlink:href="#mbb82f7b374" x="69.637374" y="188.638125" style="stroke: #000000; stroke-width: 0.8"/>
      </g>
     </g>
     <g id="text_1">
      <!-- 0 -->
      <g transform="translate(66.456124 203.236563) scale(0.1 -0.1)">
       <defs>
        <path id="DejaVuSans-30" d="M 2034 4250 
Q 1547 4250 1301 3770 
Q 1056 3291 1056 2328 
Q 1056 1369 1301 889 
Q 1547 409 2034 409 
Q 2525 409 2770 889 
Q 3016 1369 3016 2328 
Q 3016 3291 2770 3770 
Q 2525 4250 2034 4250 
z
M 2034 4750 
Q 2819 4750 3233 4129 
Q 3647 3509 3647 2328 
Q 3647 1150 3233 529 
Q 2819 -91 2034 -91 
Q 1250 -91 836 529 
Q 422 1150 422 2328 
Q 422 3509 836 4129 
Q 1250 4750 2034 4750 
z
" transform="scale(0.015625)"/>
       </defs>
       <use xlink:href="#DejaVuSans-30"/>
      </g>
     </g>
    </g>
    <g id="xtick_2">
     <g id="line2d_2">
      <g>
       <use xlink:href="#mbb82f7b374" x="149.365897" y="188.638125" style="stroke: #000000; stroke-width: 0.8"/>
      </g>
     </g>
     <g id="text_2">
      <!-- 100 -->
      <g transform="translate(139.822147 203.236563) scale(0.1 -0.1)">
       <defs>
        <path id="DejaVuSans-31" d="M 794 531 
L 1825 531 
L 1825 4091 
L 703 3866 
L 703 4441 
L 1819 4666 
L 2450 4666 
L 2450 531 
L 3481 531 
L 3481 0 
L 794 0 
L 794 531 
z
" transform="scale(0.015625)"/>
       </defs>
       <use xlink:href="#DejaVuSans-31"/>
       <use xlink:href="#DejaVuSans-30" transform="translate(63.623047 0)"/>
       <use xlink:href="#DejaVuSans-30" transform="translate(127.246094 0)"/>
      </g>
     </g>
    </g>
    <g id="xtick_3">
     <g id="line2d_3">
      <g>
       <use xlink:href="#mbb82f7b374" x="229.09442" y="188.638125" style="stroke: #000000; stroke-width: 0.8"/>
      </g>
     </g>
     <g id="text_3">
      <!-- 200 -->
      <g transform="translate(219.55067 203.236563) scale(0.1 -0.1)">
       <defs>
        <path id="DejaVuSans-32" d="M 1228 531 
L 3431 531 
L 3431 0 
L 469 0 
L 469 531 
Q 828 903 1448 1529 
Q 2069 2156 2228 2338 
Q 2531 2678 2651 2914 
Q 2772 3150 2772 3378 
Q 2772 3750 2511 3984 
Q 2250 4219 1831 4219 
Q 1534 4219 1204 4116 
Q 875 4013 500 3803 
L 500 4441 
Q 881 4594 1212 4672 
Q 1544 4750 1819 4750 
Q 2544 4750 2975 4387 
Q 3406 4025 3406 3419 
Q 3406 3131 3298 2873 
Q 3191 2616 2906 2266 
Q 2828 2175 2409 1742 
Q 1991 1309 1228 531 
z
" transform="scale(0.015625)"/>
       </defs>
       <use xlink:href="#DejaVuSans-32"/>
       <use xlink:href="#DejaVuSans-30" transform="translate(63.623047 0)"/>
       <use xlink:href="#DejaVuSans-30" transform="translate(127.246094 0)"/>
      </g>
     </g>
    </g>
    <g id="xtick_4">
     <g id="line2d_4">
      <g>
       <use xlink:href="#mbb82f7b374" x="308.822943" y="188.638125" style="stroke: #000000; stroke-width: 0.8"/>
      </g>
     </g>
     <g id="text_4">
      <!-- 300 -->
      <g transform="translate(299.279193 203.236563) scale(0.1 -0.1)">
       <defs>
        <path id="DejaVuSans-33" d="M 2597 2516 
Q 3050 2419 3304 2112 
Q 3559 1806 3559 1356 
Q 3559 666 3084 287 
Q 2609 -91 1734 -91 
Q 1441 -91 1130 -33 
Q 819 25 488 141 
L 488 750 
Q 750 597 1062 519 
Q 1375 441 1716 441 
Q 2309 441 2620 675 
Q 2931 909 2931 1356 
Q 2931 1769 2642 2001 
Q 2353 2234 1838 2234 
L 1294 2234 
L 1294 2753 
L 1863 2753 
Q 2328 2753 2575 2939 
Q 2822 3125 2822 3475 
Q 2822 3834 2567 4026 
Q 2313 4219 1838 4219 
Q 1578 4219 1281 4162 
Q 984 4106 628 3988 
L 628 4550 
Q 988 4650 1302 4700 
Q 1616 4750 1894 4750 
Q 2613 4750 3031 4423 
Q 3450 4097 3450 3541 
Q 3450 3153 3228 2886 
Q 3006 2619 2597 2516 
z
" transform="scale(0.015625)"/>
       </defs>
       <use xlink:href="#DejaVuSans-33"/>
       <use xlink:href="#DejaVuSans-30" transform="translate(63.623047 0)"/>
       <use xlink:href="#DejaVuSans-30" transform="translate(127.246094 0)"/>
      </g>
     </g>
    </g>
    <g id="xtick_5">
     <g id="line2d_5">
      <g>
       <use xlink:href="#mbb82f7b374" x="388.551466" y="188.638125" style="stroke: #000000; stroke-width: 0.8"/>
      </g>
     </g>
     <g id="text_5">
      <!-- 400 -->
      <g transform="translate(379.007716 203.236563) scale(0.1 -0.1)">
       <defs>
        <path id="DejaVuSans-34" d="M 2419 4116 
L 825 1625 
L 2419 1625 
L 2419 4116 
z
M 2253 4666 
L 3047 4666 
L 3047 1625 
L 3713 1625 
L 3713 1100 
L 3047 1100 
L 3047 0 
L 2419 0 
L 2419 1100 
L 313 1100 
L 313 1709 
L 2253 4666 
z
" transform="scale(0.015625)"/>
       </defs>
       <use xlink:href="#DejaVuSans-34"/>
       <use xlink:href="#DejaVuSans-30" transform="translate(63.623047 0)"/>
       <use xlink:href="#DejaVuSans-30" transform="translate(127.246094 0)"/>
      </g>
     </g>
    </g>
    <g id="xtick_6">
     <g id="line2d_6">
      <g>
       <use xlink:href="#mbb82f7b374" x="468.279989" y="188.638125" style="stroke: #000000; stroke-width: 0.8"/>
      </g>
     </g>
     <g id="text_6">
      <!-- 500 -->
      <g transform="translate(458.736239 203.236563) scale(0.1 -0.1)">
       <defs>
        <path id="DejaVuSans-35" d="M 691 4666 
L 3169 4666 
L 3169 4134 
L 1269 4134 
L 1269 2991 
Q 1406 3038 1543 3061 
Q 1681 3084 1819 3084 
Q 2600 3084 3056 2656 
Q 3513 2228 3513 1497 
Q 3513 744 3044 326 
Q 2575 -91 1722 -91 
Q 1428 -91 1123 -41 
Q 819 9 494 109 
L 494 744 
Q 775 591 1075 516 
Q 1375 441 1709 441 
Q 2250 441 2565 725 
Q 2881 1009 2881 1497 
Q 2881 1984 2565 2268 
Q 2250 2553 1709 2553 
Q 1456 2553 1204 2497 
Q 953 2441 691 2322 
L 691 4666 
z
" transform="scale(0.015625)"/>
       </defs>
       <use xlink:href="#DejaVuSans-35"/>
       <use xlink:href="#DejaVuSans-30" transform="translate(63.623047 0)"/>
       <use xlink:href="#DejaVuSans-30" transform="translate(127.246094 0)"/>
      </g>
     </g>
    </g>
    <g id="text_7">
     <!-- Residue -->
     <g transform="translate(253.604688 216.914688) scale(0.1 -0.1)">
      <defs>
       <path id="DejaVuSans-52" d="M 2841 2188 
Q 3044 2119 3236 1894 
Q 3428 1669 3622 1275 
L 4263 0 
L 3584 0 
L 2988 1197 
Q 2756 1666 2539 1819 
Q 2322 1972 1947 1972 
L 1259 1972 
L 1259 0 
L 628 0 
L 628 4666 
L 2053 4666 
Q 2853 4666 3247 4331 
Q 3641 3997 3641 3322 
Q 3641 2881 3436 2590 
Q 3231 2300 2841 2188 
z
M 1259 4147 
L 1259 2491 
L 2053 2491 
Q 2509 2491 2742 2702 
Q 2975 2913 2975 3322 
Q 2975 3731 2742 3939 
Q 2509 4147 2053 4147 
L 1259 4147 
z
" transform="scale(0.015625)"/>
       <path id="DejaVuSans-65" d="M 3597 1894 
L 3597 1613 
L 953 1613 
Q 991 1019 1311 708 
Q 1631 397 2203 397 
Q 2534 397 2845 478 
Q 3156 559 3463 722 
L 3463 178 
Q 3153 47 2828 -22 
Q 2503 -91 2169 -91 
Q 1331 -91 842 396 
Q 353 884 353 1716 
Q 353 2575 817 3079 
Q 1281 3584 2069 3584 
Q 2775 3584 3186 3129 
Q 3597 2675 3597 1894 
z
M 3022 2063 
Q 3016 2534 2758 2815 
Q 2500 3097 2075 3097 
Q 1594 3097 1305 2825 
Q 1016 2553 972 2059 
L 3022 2063 
z
" transform="scale(0.015625)"/>
       <path id="DejaVuSans-73" d="M 2834 3397 
L 2834 2853 
Q 2591 2978 2328 3040 
Q 2066 3103 1784 3103 
Q 1356 3103 1142 2972 
Q 928 2841 928 2578 
Q 928 2378 1081 2264 
Q 1234 2150 1697 2047 
L 1894 2003 
Q 2506 1872 2764 1633 
Q 3022 1394 3022 966 
Q 3022 478 2636 193 
Q 2250 -91 1575 -91 
Q 1294 -91 989 -36 
Q 684 19 347 128 
L 347 722 
Q 666 556 975 473 
Q 1284 391 1588 391 
Q 1994 391 2212 530 
Q 2431 669 2431 922 
Q 2431 1156 2273 1281 
Q 2116 1406 1581 1522 
L 1381 1569 
Q 847 1681 609 1914 
Q 372 2147 372 2553 
Q 372 3047 722 3315 
Q 1072 3584 1716 3584 
Q 2034 3584 2315 3537 
Q 2597 3491 2834 3397 
z
" transform="scale(0.015625)"/>
       <path id="DejaVuSans-69" d="M 603 3500 
L 1178 3500 
L 1178 0 
L 603 0 
L 603 3500 
z
M 603 4863 
L 1178 4863 
L 1178 4134 
L 603 4134 
L 603 4863 
z
" transform="scale(0.015625)"/>
       <path id="DejaVuSans-64" d="M 2906 2969 
L 2906 4863 
L 3481 4863 
L 3481 0 
L 2906 0 
L 2906 525 
Q 2725 213 2448 61 
Q 2172 -91 1784 -91 
Q 1150 -91 751 415 
Q 353 922 353 1747 
Q 353 2572 751 3078 
Q 1150 3584 1784 3584 
Q 2172 3584 2448 3432 
Q 2725 3281 2906 2969 
z
M 947 1747 
Q 947 1113 1208 752 
Q 1469 391 1925 391 
Q 2381 391 2643 752 
Q 2906 1113 2906 1747 
Q 2906 2381 2643 2742 
Q 2381 3103 1925 3103 
Q 1469 3103 1208 2742 
Q 947 2381 947 1747 
z
" transform="scale(0.015625)"/>
       <path id="DejaVuSans-75" d="M 544 1381 
L 544 3500 
L 1119 3500 
L 1119 1403 
Q 1119 906 1312 657 
Q 1506 409 1894 409 
Q 2359 409 2629 706 
Q 2900 1003 2900 1516 
L 2900 3500 
L 3475 3500 
L 3475 0 
L 2900 0 
L 2900 538 
Q 2691 219 2414 64 
Q 2138 -91 1772 -91 
Q 1169 -91 856 284 
Q 544 659 544 1381 
z
M 1991 3584 
L 1991 3584 
z
" transform="scale(0.015625)"/>
      </defs>
      <use xlink:href="#DejaVuSans-52"/>
      <use xlink:href="#DejaVuSans-65" transform="translate(64.982422 0)"/>
      <use xlink:href="#DejaVuSans-73" transform="translate(126.505859 0)"/>
      <use xlink:href="#DejaVuSans-69" transform="translate(178.605469 0)"/>
      <use xlink:href="#DejaVuSans-64" transform="translate(206.388672 0)"/>
      <use xlink:href="#DejaVuSans-75" transform="translate(269.865234 0)"/>
      <use xlink:href="#DejaVuSans-65" transform="translate(333.244141 0)"/>
     </g>
    </g>
   </g>
   <g id="matplotlib.axis_2">
    <g id="ytick_1">
     <g id="line2d_7">
      <defs>
       <path id="m2169bd2858" d="M 0 0 
L -3.5 0 
" style="stroke: #000000; stroke-width: 0.8"/>
      </defs>
      <g>
       <use xlink:href="#m2169bd2858" x="50.14375" y="169.714469" style="stroke: #000000; stroke-width: 0.8"/>
      </g>
     </g>
     <g id="text_8">
      <!-- 0.05 -->
      <g transform="translate(20.878125 173.513688) scale(0.1 -0.1)">
       <defs>
        <path id="DejaVuSans-2e" d="M 684 794 
L 1344 794 
L 1344 0 
L 684 0 
L 684 794 
z
" transform="scale(0.015625)"/>
       </defs>
       <use xlink:href="#DejaVuSans-30"/>
       <use xlink:href="#DejaVuSans-2e" transform="translate(63.623047 0)"/>
       <use xlink:href="#DejaVuSans-30" transform="translate(95.410156 0)"/>
       <use xlink:href="#DejaVuSans-35" transform="translate(159.033203 0)"/>
      </g>
     </g>
    </g>
    <g id="ytick_2">
     <g id="line2d_8">
      <g>
       <use xlink:href="#m2169bd2858" x="50.14375" y="140.74014" style="stroke: #000000; stroke-width: 0.8"/>
      </g>
     </g>
     <g id="text_9">
      <!-- 0.10 -->
      <g transform="translate(20.878125 144.539359) scale(0.1 -0.1)">
       <use xlink:href="#DejaVuSans-30"/>
       <use xlink:href="#DejaVuSans-2e" transform="translate(63.623047 0)"/>
       <use xlink:href="#DejaVuSans-31" transform="translate(95.410156 0)"/>
       <use xlink:href="#DejaVuSans-30" transform="translate(159.033203 0)"/>
      </g>
     </g>
    </g>
    <g id="ytick_3">
     <g id="line2d_9">
      <g>
       <use xlink:href="#m2169bd2858" x="50.14375" y="111.765812" style="stroke: #000000; stroke-width: 0.8"/>
      </g>
     </g>
     <g id="text_10">
      <!-- 0.15 -->
      <g transform="translate(20.878125 115.56503) scale(0.1 -0.1)">
       <use xlink:href="#DejaVuSans-30"/>
       <use xlink:href="#DejaVuSans-2e" transform="translate(63.623047 0)"/>
       <use xlink:href="#DejaVuSans-31" transform="translate(95.410156 0)"/>
       <use xlink:href="#DejaVuSans-35" transform="translate(159.033203 0)"/>
      </g>
     </g>
    </g>
    <g id="ytick_4">
     <g id="line2d_10">
      <g>
       <use xlink:href="#m2169bd2858" x="50.14375" y="82.791483" style="stroke: #000000; stroke-width: 0.8"/>
      </g>
     </g>
     <g id="text_11">
      <!-- 0.20 -->
      <g transform="translate(20.878125 86.590702) scale(0.1 -0.1)">
       <use xlink:href="#DejaVuSans-30"/>
       <use xlink:href="#DejaVuSans-2e" transform="translate(63.623047 0)"/>
       <use xlink:href="#DejaVuSans-32" transform="translate(95.410156 0)"/>
       <use xlink:href="#DejaVuSans-30" transform="translate(159.033203 0)"/>
      </g>
     </g>
    </g>
    <g id="ytick_5">
     <g id="line2d_11">
      <g>
       <use xlink:href="#m2169bd2858" x="50.14375" y="53.817154" style="stroke: #000000; stroke-width: 0.8"/>
      </g>
     </g>
     <g id="text_12">
      <!-- 0.25 -->
      <g transform="translate(20.878125 57.616373) scale(0.1 -0.1)">
       <use xlink:href="#DejaVuSans-30"/>
       <use xlink:href="#DejaVuSans-2e" transform="translate(63.623047 0)"/>
       <use xlink:href="#DejaVuSans-32" transform="translate(95.410156 0)"/>
       <use xlink:href="#DejaVuSans-35" transform="translate(159.033203 0)"/>
      </g>
     </g>
    </g>
    <g id="ytick_6">
     <g id="line2d_12">
      <g>
       <use xlink:href="#m2169bd2858" x="50.14375" y="24.842826" style="stroke: #000000; stroke-width: 0.8"/>
      </g>
     </g>
     <g id="text_13">
      <!-- 0.30 -->
      <g transform="translate(20.878125 28.642044) scale(0.1 -0.1)">
       <use xlink:href="#DejaVuSans-30"/>
       <use xlink:href="#DejaVuSans-2e" transform="translate(63.623047 0)"/>
       <use xlink:href="#DejaVuSans-33" transform="translate(95.410156 0)"/>
       <use xlink:href="#DejaVuSans-30" transform="translate(159.033203 0)"/>
      </g>
     </g>
    </g>
    <g id="text_14">
     <!-- RMSF (nm) -->
     <g transform="translate(14.798437 132.846094) rotate(-90) scale(0.1 -0.1)">
      <defs>
       <path id="DejaVuSans-4d" d="M 628 4666 
L 1569 4666 
L 2759 1491 
L 3956 4666 
L 4897 4666 
L 4897 0 
L 4281 0 
L 4281 4097 
L 3078 897 
L 2444 897 
L 1241 4097 
L 1241 0 
L 628 0 
L 628 4666 
z
" transform="scale(0.015625)"/>
       <path id="DejaVuSans-53" d="M 3425 4513 
L 3425 3897 
Q 3066 4069 2747 4153 
Q 2428 4238 2131 4238 
Q 1616 4238 1336 4038 
Q 1056 3838 1056 3469 
Q 1056 3159 1242 3001 
Q 1428 2844 1947 2747 
L 2328 2669 
Q 3034 2534 3370 2195 
Q 3706 1856 3706 1288 
Q 3706 609 3251 259 
Q 2797 -91 1919 -91 
Q 1588 -91 1214 -16 
Q 841 59 441 206 
L 441 856 
Q 825 641 1194 531 
Q 1563 422 1919 422 
Q 2459 422 2753 634 
Q 3047 847 3047 1241 
Q 3047 1584 2836 1778 
Q 2625 1972 2144 2069 
L 1759 2144 
Q 1053 2284 737 2584 
Q 422 2884 422 3419 
Q 422 4038 858 4394 
Q 1294 4750 2059 4750 
Q 2388 4750 2728 4690 
Q 3069 4631 3425 4513 
z
" transform="scale(0.015625)"/>
       <path id="DejaVuSans-46" d="M 628 4666 
L 3309 4666 
L 3309 4134 
L 1259 4134 
L 1259 2759 
L 3109 2759 
L 3109 2228 
L 1259 2228 
L 1259 0 
L 628 0 
L 628 4666 
z
" transform="scale(0.015625)"/>
       <path id="DejaVuSans-20" transform="scale(0.015625)"/>
       <path id="DejaVuSans-28" d="M 1984 4856 
Q 1566 4138 1362 3434 
Q 1159 2731 1159 2009 
Q 1159 1288 1364 580 
Q 1569 -128 1984 -844 
L 1484 -844 
Q 1016 -109 783 600 
Q 550 1309 550 2009 
Q 550 2706 781 3412 
Q 1013 4119 1484 4856 
L 1984 4856 
z
" transform="scale(0.015625)"/>
       <path id="DejaVuSans-6e" d="M 3513 2113 
L 3513 0 
L 2938 0 
L 2938 2094 
Q 2938 2591 2744 2837 
Q 2550 3084 2163 3084 
Q 1697 3084 1428 2787 
Q 1159 2491 1159 1978 
L 1159 0 
L 581 0 
L 581 3500 
L 1159 3500 
L 1159 2956 
Q 1366 3272 1645 3428 
Q 1925 3584 2291 3584 
Q 2894 3584 3203 3211 
Q 3513 2838 3513 2113 
z
" transform="scale(0.015625)"/>
       <path id="DejaVuSans-6d" d="M 3328 2828 
Q 3544 3216 3844 3400 
Q 4144 3584 4550 3584 
Q 5097 3584 5394 3201 
Q 5691 2819 5691 2113 
L 5691 0 
L 5113 0 
L 5113 2094 
Q 5113 2597 4934 2840 
Q 4756 3084 4391 3084 
Q 3944 3084 3684 2787 
Q 3425 2491 3425 1978 
L 3425 0 
L 2847 0 
L 2847 2094 
Q 2847 2600 2669 2842 
Q 2491 3084 2119 3084 
Q 1678 3084 1418 2786 
Q 1159 2488 1159 1978 
L 1159 0 
L 581 0 
L 581 3500 
L 1159 3500 
L 1159 2956 
Q 1356 3278 1631 3431 
Q 1906 3584 2284 3584 
Q 2666 3584 2933 3390 
Q 3200 3197 3328 2828 
z
" transform="scale(0.015625)"/>
       <path id="DejaVuSans-29" d="M 513 4856 
L 1013 4856 
Q 1481 4119 1714 3412 
Q 1947 2706 1947 2009 
Q 1947 1309 1714 600 
Q 1481 -109 1013 -844 
L 513 -844 
Q 928 -128 1133 580 
Q 1338 1288 1338 2009 
Q 1338 2731 1133 3434 
Q 928 4138 513 4856 
z
" transform="scale(0.015625)"/>
      </defs>
      <use xlink:href="#DejaVuSans-52"/>
      <use xlink:href="#DejaVuSans-4d" transform="translate(69.482422 0)"/>
      <use xlink:href="#DejaVuSans-53" transform="translate(155.761719 0)"/>
      <use xlink:href="#DejaVuSans-46" transform="translate(219.238281 0)"/>
      <use xlink:href="#DejaVuSans-20" transform="translate(276.757812 0)"/>
      <use xlink:href="#DejaVuSans-28" transform="translate(308.544922 0)"/>
      <use xlink:href="#DejaVuSans-6e" transform="translate(347.558594 0)"/>
      <use xlink:href="#DejaVuSans-6d" transform="translate(410.9375 0)"/>
      <use xlink:href="#DejaVuSans-29" transform="translate(508.349609 0)"/>
     </g>
    </g>
   </g>
   <g id="line2d_13">
    <path d="M 70.434659 122.408595 
L 71.231944 139.43793 
L 72.02923 103.35818 
L 72.826515 150.127653 
L 73.6238 152.341072 
L 74.421085 151.531366 
L 75.21837 158.947417 
L 76.015656 171.133365 
L 76.812941 166.871303 
L 78.407511 136.476549 
L 79.204797 153.943901 
L 80.002082 150.062143 
L 80.799367 129.018506 
L 81.596652 166.725468 
L 82.393938 149.048184 
L 83.191223 136.231785 
L 83.988508 148.257687 
L 84.785793 149.910616 
L 85.583078 135.435049 
L 86.380364 147.856534 
L 87.177649 148.009671 
L 87.974934 158.430093 
L 88.772219 147.166466 
L 89.569505 159.240106 
L 91.164075 127.067872 
L 91.96136 128.174808 
L 92.758646 150.310978 
L 93.555931 140.359391 
L 94.353216 119.933357 
L 95.150501 120.881404 
L 95.947786 156.517526 
L 96.745072 166.194052 
L 97.542357 157.66658 
L 98.339642 153.296671 
L 99.136927 180.557419 
L 100.731498 155.82071 
L 101.528783 175.207038 
L 102.326068 150.023437 
L 103.123354 173.073382 
L 103.920639 166.980499 
L 104.717924 171.770815 
L 105.515209 171.959179 
L 106.312494 157.459866 
L 107.10978 153.665102 
L 108.70435 142.306675 
L 109.501635 146.332387 
L 110.298921 168.667673 
L 111.096206 29.878125 
L 111.893491 171.874232 
L 112.690776 167.413289 
L 113.488061 172.930065 
L 114.285347 174.460584 
L 115.082632 166.338598 
L 115.879917 167.607471 
L 116.677202 166.920868 
L 117.474488 155.99136 
L 119.069058 172.80093 
L 119.866343 164.963347 
L 120.663629 166.117873 
L 121.460914 174.310649 
L 123.055484 160.456206 
L 123.852769 166.892606 
L 124.650055 171.373895 
L 125.44734 172.395142 
L 126.244625 170.595413 
L 127.04191 172.312265 
L 127.839196 173.186635 
L 128.636481 169.137269 
L 129.433766 172.123853 
L 130.231051 171.532398 
L 131.028337 169.913549 
L 131.825622 166.397827 
L 132.622907 169.329675 
L 133.420192 162.918854 
L 134.217477 165.728978 
L 135.014763 167.259404 
L 135.812048 156.883431 
L 136.609333 143.84984 
L 137.406618 114.110225 
L 138.203904 118.183193 
L 139.001189 140.381112 
L 139.798474 152.996993 
L 140.595759 159.13035 
L 141.393045 173.821497 
L 142.19033 174.139915 
L 142.987615 178.461371 
L 143.7849 172.490415 
L 144.582185 171.701832 
L 145.379471 174.220938 
L 146.176756 172.817699 
L 146.974041 168.057336 
L 147.771326 168.630693 
L 150.163182 176.941497 
L 150.960467 178.265259 
L 151.757753 176.262568 
L 152.555038 172.201269 
L 153.352323 172.718992 
L 154.149608 177.344938 
L 155.744179 170.129044 
L 156.541464 172.549193 
L 157.338749 172.289614 
L 158.136034 177.730369 
L 158.93332 178.326129 
L 159.730605 176.498181 
L 160.52789 177.514098 
L 161.325175 174.60737 
L 162.12246 170.750155 
L 162.919746 173.917432 
L 163.717031 172.882995 
L 164.514316 181.078125 
L 165.311601 174.719632 
L 166.108887 172.665261 
L 166.906172 177.417118 
L 167.703457 170.244307 
L 168.500742 165.03001 
L 169.298028 174.475345 
L 170.095313 173.314412 
L 170.892598 171.564721 
L 171.689883 167.707354 
L 172.487168 171.001639 
L 173.284454 168.334385 
L 174.081739 162.607186 
L 174.879024 170.464468 
L 175.676309 171.079575 
L 176.473595 163.00691 
L 177.27088 159.228885 
L 178.068165 158.211653 
L 178.86545 155.554147 
L 179.662736 154.884169 
L 180.460021 137.197319 
L 182.054591 156.741242 
L 182.851876 174.820422 
L 183.649162 172.673671 
L 184.446447 169.346787 
L 185.243732 172.449903 
L 186.041017 176.283217 
L 186.838303 175.84446 
L 187.635588 176.361955 
L 188.432873 172.118109 
L 190.027444 176.970646 
L 190.824729 173.317639 
L 191.622014 173.5093 
L 192.419299 174.487764 
L 193.216584 177.353748 
L 194.01387 178.358133 
L 194.811155 177.535222 
L 195.60844 176.495284 
L 196.405725 173.385361 
L 197.203011 172.78973 
L 198.000296 172.421127 
L 198.797581 170.791953 
L 199.594866 160.314065 
L 200.392152 159.769493 
L 201.189437 165.622871 
L 201.986722 157.939814 
L 202.784007 162.045171 
L 203.581292 164.926726 
L 204.378578 167.287669 
L 205.175863 157.341126 
L 205.973148 161.082107 
L 206.770433 154.616932 
L 207.567719 165.375346 
L 208.365004 163.605226 
L 209.162289 164.094552 
L 209.959574 159.632218 
L 210.756859 165.225446 
L 211.554145 165.16999 
L 212.35143 157.121797 
L 213.148715 158.511491 
L 213.946 160.540035 
L 214.743286 165.220675 
L 215.540571 171.958311 
L 216.337856 168.044468 
L 217.135141 168.766475 
L 217.932427 170.391346 
L 218.729712 171.314385 
L 219.526997 177.171771 
L 220.324282 174.080036 
L 221.918853 171.205702 
L 224.310708 174.701738 
L 225.107994 171.350287 
L 225.905279 165.909528 
L 226.702564 168.127459 
L 227.499849 165.307695 
L 228.297135 170.651766 
L 229.09442 172.006121 
L 229.891705 163.614807 
L 230.68899 171.617405 
L 231.486275 171.105972 
L 232.283561 165.957281 
L 233.080846 172.206519 
L 233.878131 169.492369 
L 234.675416 171.20252 
L 235.472702 170.788855 
L 236.269987 175.041313 
L 237.067272 169.610006 
L 237.864557 168.909328 
L 238.661843 167.097206 
L 239.459128 162.900464 
L 240.256413 164.759373 
L 241.850983 160.604193 
L 242.648269 149.425453 
L 243.445554 148.407457 
L 244.242839 167.995462 
L 245.040124 167.949001 
L 245.83741 170.27856 
L 246.634695 168.004699 
L 248.229265 174.578877 
L 249.026551 175.868802 
L 249.823836 165.924455 
L 250.621121 163.474453 
L 251.418406 168.482255 
L 253.012977 171.702913 
L 253.810262 166.905541 
L 254.607547 166.022178 
L 255.404832 156.779612 
L 256.202118 161.007319 
L 256.999403 156.183809 
L 257.796688 163.970138 
L 258.593973 164.848158 
L 259.391258 163.063362 
L 260.188544 159.585157 
L 260.985829 163.135479 
L 261.783114 168.785012 
L 262.580399 167.921736 
L 263.377685 159.445965 
L 264.17497 169.361762 
L 264.972255 155.52 
L 265.76954 137.251905 
L 266.566826 153.744656 
L 267.364111 158.358254 
L 268.161396 159.51995 
L 268.958681 161.381043 
L 269.755966 165.522996 
L 270.553252 172.950914 
L 271.350537 173.138916 
L 272.147822 166.80417 
L 273.742393 173.965177 
L 274.539678 172.452861 
L 275.336963 162.683142 
L 276.134248 166.973343 
L 276.931534 168.508026 
L 277.728819 176.294062 
L 278.526104 168.163387 
L 279.323389 170.837941 
L 280.120674 172.362213 
L 280.91796 172.530565 
L 281.715245 166.782079 
L 282.51253 166.39466 
L 283.309815 169.479138 
L 284.107101 170.450319 
L 284.904386 165.261676 
L 285.701671 161.118858 
L 286.498956 165.607466 
L 287.296242 166.588137 
L 288.093527 164.601067 
L 288.890812 166.832178 
L 289.688097 165.109042 
L 290.485382 163.119096 
L 291.282668 169.26141 
L 292.079953 169.822147 
L 292.877238 167.535241 
L 293.674523 168.263463 
L 294.471809 167.531537 
L 295.269094 167.960536 
L 296.066379 165.770409 
L 296.863664 171.663678 
L 297.660949 171.667434 
L 299.25552 167.779427 
L 300.052805 167.005478 
L 300.85009 171.417893 
L 301.647376 170.049762 
L 302.444661 166.875595 
L 303.241946 173.46984 
L 304.039231 170.216407 
L 305.633802 167.320538 
L 306.431087 164.843051 
L 307.228372 164.464549 
L 308.025657 160.217582 
L 308.822943 157.127375 
L 309.620228 162.253401 
L 310.417513 162.424797 
L 311.214798 158.509885 
L 312.012084 159.729396 
L 312.809369 167.824493 
L 313.606654 166.174932 
L 314.403939 161.84575 
L 315.201225 165.212509 
L 315.99851 169.196548 
L 316.795795 170.877748 
L 317.59308 171.503142 
L 318.390365 168.339186 
L 319.187651 166.227489 
L 319.984936 167.993418 
L 320.782221 170.846867 
L 321.579506 172.448774 
L 322.376792 172.80156 
L 323.174077 169.817998 
L 323.971362 169.631583 
L 324.768647 165.492871 
L 325.565933 165.117076 
L 326.363218 168.678589 
L 327.160503 167.948319 
L 327.957788 170.104942 
L 328.755073 162.624724 
L 329.552359 164.516511 
L 330.349644 156.731152 
L 331.146929 161.403883 
L 331.944214 163.720789 
L 333.538785 171.071579 
L 334.33607 168.264823 
L 335.133355 169.112607 
L 335.930641 160.644156 
L 336.727926 162.460209 
L 337.525211 168.408389 
L 339.119781 170.403675 
L 339.917067 176.919164 
L 340.714352 178.490765 
L 341.511637 176.490587 
L 342.308922 176.673578 
L 343.106208 173.680763 
L 343.903493 179.164365 
L 344.700778 179.068251 
L 345.498063 177.006424 
L 346.295348 178.797999 
L 347.092634 180.088369 
L 347.889919 176.920347 
L 348.687204 175.017568 
L 349.484489 177.326772 
L 350.281775 171.14927 
L 351.07906 172.970166 
L 351.876345 179.490838 
L 352.67363 175.947908 
L 353.470916 170.599055 
L 355.065486 166.26419 
L 355.862771 168.486857 
L 357.457342 161.668918 
L 358.254627 159.620055 
L 359.051912 163.685973 
L 359.849197 155.329153 
L 360.646483 161.160846 
L 361.443768 157.44988 
L 362.241053 155.303097 
L 363.038338 158.431665 
L 363.835624 148.488224 
L 364.632909 143.912159 
L 365.430194 159.290068 
L 366.227479 147.535009 
L 367.024764 152.941414 
L 367.82205 154.402334 
L 368.619335 157.56669 
L 369.41662 165.397507 
L 370.213905 171.778314 
L 371.011191 162.178272 
L 371.808476 161.349914 
L 372.605761 173.238326 
L 373.403046 170.235924 
L 374.200332 163.361404 
L 375.794902 158.56344 
L 376.592187 153.886396 
L 377.389472 140.824309 
L 378.186758 152.084353 
L 378.984043 154.208465 
L 379.781328 143.188764 
L 380.578613 149.665407 
L 381.375899 144.761659 
L 382.173184 128.208623 
L 382.970469 129.020147 
L 383.767754 134.529827 
L 384.56504 128.66542 
L 385.362325 114.813781 
L 386.15961 117.271602 
L 386.956895 110.951681 
L 387.75418 110.273486 
L 388.551466 128.162995 
L 389.348751 139.254678 
L 390.146036 134.05405 
L 390.943321 144.14356 
L 391.740607 128.13478 
L 392.537892 127.238728 
L 393.335177 150.698756 
L 394.132462 148.648292 
L 394.929747 142.862106 
L 395.727033 140.605912 
L 396.524318 150.705323 
L 397.321603 154.16453 
L 398.118888 164.654056 
L 398.916174 161.844424 
L 399.713459 158.167964 
L 400.510744 153.689906 
L 401.308029 152.449904 
L 402.105315 164.230307 
L 402.9026 166.947606 
L 404.49717 144.174987 
L 405.294455 150.91385 
L 406.091741 160.24853 
L 407.686311 142.490605 
L 408.483596 146.083928 
L 409.280882 153.564504 
L 410.078167 153.442655 
L 410.875452 152.677532 
L 411.672737 150.693488 
L 412.470023 155.455548 
L 413.267308 154.427281 
L 414.064593 150.427448 
L 414.861878 148.764873 
L 415.659163 153.089215 
L 416.456449 158.320333 
L 417.253734 149.888229 
L 418.051019 151.961999 
L 418.848304 146.995868 
L 419.64559 140.040979 
L 420.442875 154.153965 
L 421.24016 145.324279 
L 422.037445 120.370125 
L 422.834731 134.286233 
L 423.632016 146.002875 
L 424.429301 144.413595 
L 425.226586 152.726648 
L 426.023871 143.932002 
L 426.821157 139.286718 
L 427.618442 135.587863 
L 428.415727 130.71309 
L 429.213012 136.543074 
L 430.010298 154.43399 
L 430.807583 159.331585 
L 431.604868 153.96646 
L 432.402153 171.677587 
L 433.996724 152.794269 
L 435.591294 165.042118 
L 436.388579 161.201249 
L 437.185865 167.450858 
L 437.98315 171.364118 
L 438.780435 162.872398 
L 439.57772 166.973913 
L 440.375006 166.752632 
L 441.172291 161.824162 
L 441.969576 161.218053 
L 442.766861 161.373384 
L 443.564146 156.615357 
L 444.361432 153.246027 
L 445.158717 166.319208 
L 445.956002 167.209817 
L 446.753287 160.438461 
L 447.550573 173.290672 
L 448.347858 171.600193 
L 449.145143 151.287979 
L 449.942428 152.044243 
L 450.739714 139.606672 
L 451.536999 166.659838 
L 452.334284 161.698277 
L 453.131569 175.918093 
L 453.928854 169.449837 
L 454.72614 175.375386 
L 455.523425 180.339311 
L 456.32071 177.414813 
L 457.117995 177.650618 
L 457.915281 176.853899 
L 458.712566 172.923003 
L 459.509851 170.505857 
L 460.307136 177.359315 
L 461.104422 177.266664 
L 461.901707 168.47419 
L 463.496277 168.043192 
L 464.293562 168.038028 
L 465.090848 169.467477 
L 465.888133 168.561125 
L 466.685418 161.35019 
L 467.482703 166.640286 
L 468.279989 164.279961 
L 469.077274 164.037632 
L 469.874559 170.108357 
L 470.671844 168.775243 
L 471.46913 156.211419 
L 472.266415 164.736298 
L 473.0637 153.597978 
L 473.860985 129.731383 
L 475.455556 156.736226 
L 476.252841 150.094011 
L 476.252841 150.094011 
" clip-path="url(#pf5c60f0e9b)" style="fill: none; stroke: #1f77b4; stroke-width: 1.5; stroke-linecap: square"/>
   </g>
   <g id="patch_3">
    <path d="M 50.14375 188.638125 
L 50.14375 22.318125 
" style="fill: none; stroke: #000000; stroke-width: 0.8; stroke-linejoin: miter; stroke-linecap: square"/>
   </g>
   <g id="patch_4">
    <path d="M 496.54375 188.638125 
L 496.54375 22.318125 
" style="fill: none; stroke: #000000; stroke-width: 0.8; stroke-linejoin: miter; stroke-linecap: square"/>
   </g>
   <g id="patch_5">
    <path d="M 50.14375 188.638125 
L 496.54375 188.638125 
" style="fill: none; stroke: #000000; stroke-width: 0.8; stroke-linejoin: miter; stroke-linecap: square"/>
   </g>
   <g id="patch_6">
    <path d="M 50.14375 22.318125 
L 496.54375 22.318125 
" style="fill: none; stroke: #000000; stroke-width: 0.8; stroke-linejoin: miter; stroke-linecap: square"/>
   </g>
   <g id="text_15">
    <!-- Protein CA RMSF -->
    <g transform="translate(223.600937 16.318125) scale(0.12 -0.12)">
     <defs>
      <path id="DejaVuSans-50" d="M 1259 4147 
L 1259 2394 
L 2053 2394 
Q 2494 2394 2734 2622 
Q 2975 2850 2975 3272 
Q 2975 3691 2734 3919 
Q 2494 4147 2053 4147 
L 1259 4147 
z
M 628 4666 
L 2053 4666 
Q 2838 4666 3239 4311 
Q 3641 3956 3641 3272 
Q 3641 2581 3239 2228 
Q 2838 1875 2053 1875 
L 1259 1875 
L 1259 0 
L 628 0 
L 628 4666 
z
" transform="scale(0.015625)"/>
      <path id="DejaVuSans-72" d="M 2631 2963 
Q 2534 3019 2420 3045 
Q 2306 3072 2169 3072 
Q 1681 3072 1420 2755 
Q 1159 2438 1159 1844 
L 1159 0 
L 581 0 
L 581 3500 
L 1159 3500 
L 1159 2956 
Q 1341 3275 1631 3429 
Q 1922 3584 2338 3584 
Q 2397 3584 2469 3576 
Q 2541 3569 2628 3553 
L 2631 2963 
z
" transform="scale(0.015625)"/>
      <path id="DejaVuSans-6f" d="M 1959 3097 
Q 1497 3097 1228 2736 
Q 959 2375 959 1747 
Q 959 1119 1226 758 
Q 1494 397 1959 397 
Q 2419 397 2687 759 
Q 2956 1122 2956 1747 
Q 2956 2369 2687 2733 
Q 2419 3097 1959 3097 
z
M 1959 3584 
Q 2709 3584 3137 3096 
Q 3566 2609 3566 1747 
Q 3566 888 3137 398 
Q 2709 -91 1959 -91 
Q 1206 -91 779 398 
Q 353 888 353 1747 
Q 353 2609 779 3096 
Q 1206 3584 1959 3584 
z
" transform="scale(0.015625)"/>
      <path id="DejaVuSans-74" d="M 1172 4494 
L 1172 3500 
L 2356 3500 
L 2356 3053 
L 1172 3053 
L 1172 1153 
Q 1172 725 1289 603 
Q 1406 481 1766 481 
L 2356 481 
L 2356 0 
L 1766 0 
Q 1100 0 847 248 
Q 594 497 594 1153 
L 594 3053 
L 172 3053 
L 172 3500 
L 594 3500 
L 594 4494 
L 1172 4494 
z
" transform="scale(0.015625)"/>
      <path id="DejaVuSans-43" d="M 4122 4306 
L 4122 3641 
Q 3803 3938 3442 4084 
Q 3081 4231 2675 4231 
Q 1875 4231 1450 3742 
Q 1025 3253 1025 2328 
Q 1025 1406 1450 917 
Q 1875 428 2675 428 
Q 3081 428 3442 575 
Q 3803 722 4122 1019 
L 4122 359 
Q 3791 134 3420 21 
Q 3050 -91 2638 -91 
Q 1578 -91 968 557 
Q 359 1206 359 2328 
Q 359 3453 968 4101 
Q 1578 4750 2638 4750 
Q 3056 4750 3426 4639 
Q 3797 4528 4122 4306 
z
" transform="scale(0.015625)"/>
      <path id="DejaVuSans-41" d="M 2188 4044 
L 1331 1722 
L 3047 1722 
L 2188 4044 
z
M 1831 4666 
L 2547 4666 
L 4325 0 
L 3669 0 
L 3244 1197 
L 1141 1197 
L 716 0 
L 50 0 
L 1831 4666 
z
" transform="scale(0.015625)"/>
     </defs>
     <use xlink:href="#DejaVuSans-50"/>
     <use xlink:href="#DejaVuSans-72" transform="translate(58.552734 0)"/>
     <use xlink:href="#DejaVuSans-6f" transform="translate(97.416016 0)"/>
     <use xlink:href="#DejaVuSans-74" transform="translate(158.597656 0)"/>
     <use xlink:href="#DejaVuSans-65" transform="translate(197.806641 0)"/>
     <use xlink:href="#DejaVuSans-69" transform="translate(259.330078 0)"/>
     <use xlink:href="#DejaVuSans-6e" transform="translate(287.113281 0)"/>
     <use xlink:href="#DejaVuSans-20" transform="translate(350.492188 0)"/>
     <use xlink:href="#DejaVuSans-43" transform="translate(382.279297 0)"/>
     <use xlink:href="#DejaVuSans-41" transform="translate(452.103516 0)"/>
     <use xlink:href="#DejaVuSans-20" transform="translate(520.511719 0)"/>
     <use xlink:href="#DejaVuSans-52" transform="translate(552.298828 0)"/>
     <use xlink:href="#DejaVuSans-4d" transform="translate(621.78125 0)"/>
     <use xlink:href="#DejaVuSans-53" transform="translate(708.060547 0)"/>
     <use xlink:href="#DejaVuSans-46" transform="translate(771.537109 0)"/>
    </g>
   </g>
  </g>
 </g>
 <defs>
  <clipPath id="pf5c60f0e9b">
   <rect x="50.14375" y="22.318125" width="446.4" height="166.32"/>
  </clipPath>
 </defs>
</svg>
