<?xml version="1.0" encoding="utf-8" standalone="no"?>
<!DOCTYPE svg PUBLIC "-//W3C//DTD SVG 1.1//EN"
  "http://www.w3.org/Graphics/SVG/1.1/DTD/svg11.dtd">
<svg xmlns:xlink="http://www.w3.org/1999/xlink" width="503.74375pt" height="226.194375pt" viewBox="0 0 503.74375 226.194375" xmlns="http://www.w3.org/2000/svg" version="1.1">
 <metadata>
  <rdf:RDF xmlns:dc="http://purl.org/dc/elements/1.1/" xmlns:cc="http://creativecommons.org/ns#" xmlns:rdf="http://www.w3.org/1999/02/22-rdf-syntax-ns#">
   <cc:Work>
    <dc:type rdf:resource="http://purl.org/dc/dcmitype/StillImage"/>
    <dc:date>2025-08-25T02:42:00.220727</dc:date>
    <dc:format>image/svg+xml</dc:format>
    <dc:creator>
     <cc:Agent>
      <dc:title>Matplotlib v3.10.0, https://matplotlib.org/</dc:title>
     </cc:Agent>
    </dc:creator>
   </cc:Work>
  </rdf:RDF>
 </metadata>
 <defs>
  <style type="text/css">*{stroke-linejoin: round; stroke-linecap: butt}</style>
 </defs>
 <g id="figure_1">
  <g id="patch_1">
   <path d="M 0 226.194375 
L 503.74375 226.194375 
L 503.74375 0 
L 0 0 
z
" style="fill: #ffffff"/>
  </g>
  <g id="axes_1">
   <g id="patch_2">
    <path d="M 50.14375 188.638125 
L 496.54375 188.638125 
L 496.54375 22.318125 
L 50.14375 22.318125 
z
" style="fill: #ffffff"/>
   </g>
   <g id="matplotlib.axis_1">
    <g id="xtick_1">
     <g id="line2d_1">
      <defs>
       <path id="m8a1229cfdb" d="M 0 0 
L 0 3.5 
" style="stroke: #000000; stroke-width: 0.8"/>
      </defs>
      <g>
       <use xlink:href="#m8a1229cfdb" x="69.637374" y="188.638125" style="stroke: #000000; stroke-width: 0.8"/>
      </g>
     </g>
     <g id="text_1">
      <!-- 0 -->
      <g transform="translate(66.456124 203.236563) scale(0.1 -0.1)">
       <defs>
        <path id="DejaVuSans-30" d="M 2034 4250 
Q 1547 4250 1301 3770 
Q 1056 3291 1056 2328 
Q 1056 1369 1301 889 
Q 1547 409 2034 409 
Q 2525 409 2770 889 
Q 3016 1369 3016 2328 
Q 3016 3291 2770 3770 
Q 2525 4250 2034 4250 
z
M 2034 4750 
Q 2819 4750 3233 4129 
Q 3647 3509 3647 2328 
Q 3647 1150 3233 529 
Q 2819 -91 2034 -91 
Q 1250 -91 836 529 
Q 422 1150 422 2328 
Q 422 3509 836 4129 
Q 1250 4750 2034 4750 
z
" transform="scale(0.015625)"/>
       </defs>
       <use xlink:href="#DejaVuSans-30"/>
      </g>
     </g>
    </g>
    <g id="xtick_2">
     <g id="line2d_2">
      <g>
       <use xlink:href="#m8a1229cfdb" x="149.365897" y="188.638125" style="stroke: #000000; stroke-width: 0.8"/>
      </g>
     </g>
     <g id="text_2">
      <!-- 100 -->
      <g transform="translate(139.822147 203.236563) scale(0.1 -0.1)">
       <defs>
        <path id="DejaVuSans-31" d="M 794 531 
L 1825 531 
L 1825 4091 
L 703 3866 
L 703 4441 
L 1819 4666 
L 2450 4666 
L 2450 531 
L 3481 531 
L 3481 0 
L 794 0 
L 794 531 
z
" transform="scale(0.015625)"/>
       </defs>
       <use xlink:href="#DejaVuSans-31"/>
       <use xlink:href="#DejaVuSans-30" transform="translate(63.623047 0)"/>
       <use xlink:href="#DejaVuSans-30" transform="translate(127.246094 0)"/>
      </g>
     </g>
    </g>
    <g id="xtick_3">
     <g id="line2d_3">
      <g>
       <use xlink:href="#m8a1229cfdb" x="229.09442" y="188.638125" style="stroke: #000000; stroke-width: 0.8"/>
      </g>
     </g>
     <g id="text_3">
      <!-- 200 -->
      <g transform="translate(219.55067 203.236563) scale(0.1 -0.1)">
       <defs>
        <path id="DejaVuSans-32" d="M 1228 531 
L 3431 531 
L 3431 0 
L 469 0 
L 469 531 
Q 828 903 1448 1529 
Q 2069 2156 2228 2338 
Q 2531 2678 2651 2914 
Q 2772 3150 2772 3378 
Q 2772 3750 2511 3984 
Q 2250 4219 1831 4219 
Q 1534 4219 1204 4116 
Q 875 4013 500 3803 
L 500 4441 
Q 881 4594 1212 4672 
Q 1544 4750 1819 4750 
Q 2544 4750 2975 4387 
Q 3406 4025 3406 3419 
Q 3406 3131 3298 2873 
Q 3191 2616 2906 2266 
Q 2828 2175 2409 1742 
Q 1991 1309 1228 531 
z
" transform="scale(0.015625)"/>
       </defs>
       <use xlink:href="#DejaVuSans-32"/>
       <use xlink:href="#DejaVuSans-30" transform="translate(63.623047 0)"/>
       <use xlink:href="#DejaVuSans-30" transform="translate(127.246094 0)"/>
      </g>
     </g>
    </g>
    <g id="xtick_4">
     <g id="line2d_4">
      <g>
       <use xlink:href="#m8a1229cfdb" x="308.822943" y="188.638125" style="stroke: #000000; stroke-width: 0.8"/>
      </g>
     </g>
     <g id="text_4">
      <!-- 300 -->
      <g transform="translate(299.279193 203.236563) scale(0.1 -0.1)">
       <defs>
        <path id="DejaVuSans-33" d="M 2597 2516 
Q 3050 2419 3304 2112 
Q 3559 1806 3559 1356 
Q 3559 666 3084 287 
Q 2609 -91 1734 -91 
Q 1441 -91 1130 -33 
Q 819 25 488 141 
L 488 750 
Q 750 597 1062 519 
Q 1375 441 1716 441 
Q 2309 441 2620 675 
Q 2931 909 2931 1356 
Q 2931 1769 2642 2001 
Q 2353 2234 1838 2234 
L 1294 2234 
L 1294 2753 
L 1863 2753 
Q 2328 2753 2575 2939 
Q 2822 3125 2822 3475 
Q 2822 3834 2567 4026 
Q 2313 4219 1838 4219 
Q 1578 4219 1281 4162 
Q 984 4106 628 3988 
L 628 4550 
Q 988 4650 1302 4700 
Q 1616 4750 1894 4750 
Q 2613 4750 3031 4423 
Q 3450 4097 3450 3541 
Q 3450 3153 3228 2886 
Q 3006 2619 2597 2516 
z
" transform="scale(0.015625)"/>
       </defs>
       <use xlink:href="#DejaVuSans-33"/>
       <use xlink:href="#DejaVuSans-30" transform="translate(63.623047 0)"/>
       <use xlink:href="#DejaVuSans-30" transform="translate(127.246094 0)"/>
      </g>
     </g>
    </g>
    <g id="xtick_5">
     <g id="line2d_5">
      <g>
       <use xlink:href="#m8a1229cfdb" x="388.551466" y="188.638125" style="stroke: #000000; stroke-width: 0.8"/>
      </g>
     </g>
     <g id="text_5">
      <!-- 400 -->
      <g transform="translate(379.007716 203.236563) scale(0.1 -0.1)">
       <defs>
        <path id="DejaVuSans-34" d="M 2419 4116 
L 825 1625 
L 2419 1625 
L 2419 4116 
z
M 2253 4666 
L 3047 4666 
L 3047 1625 
L 3713 1625 
L 3713 1100 
L 3047 1100 
L 3047 0 
L 2419 0 
L 2419 1100 
L 313 1100 
L 313 1709 
L 2253 4666 
z
" transform="scale(0.015625)"/>
       </defs>
       <use xlink:href="#DejaVuSans-34"/>
       <use xlink:href="#DejaVuSans-30" transform="translate(63.623047 0)"/>
       <use xlink:href="#DejaVuSans-30" transform="translate(127.246094 0)"/>
      </g>
     </g>
    </g>
    <g id="xtick_6">
     <g id="line2d_6">
      <g>
       <use xlink:href="#m8a1229cfdb" x="468.279989" y="188.638125" style="stroke: #000000; stroke-width: 0.8"/>
      </g>
     </g>
     <g id="text_6">
      <!-- 500 -->
      <g transform="translate(458.736239 203.236563) scale(0.1 -0.1)">
       <defs>
        <path id="DejaVuSans-35" d="M 691 4666 
L 3169 4666 
L 3169 4134 
L 1269 4134 
L 1269 2991 
Q 1406 3038 1543 3061 
Q 1681 3084 1819 3084 
Q 2600 3084 3056 2656 
Q 3513 2228 3513 1497 
Q 3513 744 3044 326 
Q 2575 -91 1722 -91 
Q 1428 -91 1123 -41 
Q 819 9 494 109 
L 494 744 
Q 775 591 1075 516 
Q 1375 441 1709 441 
Q 2250 441 2565 725 
Q 2881 1009 2881 1497 
Q 2881 1984 2565 2268 
Q 2250 2553 1709 2553 
Q 1456 2553 1204 2497 
Q 953 2441 691 2322 
L 691 4666 
z
" transform="scale(0.015625)"/>
       </defs>
       <use xlink:href="#DejaVuSans-35"/>
       <use xlink:href="#DejaVuSans-30" transform="translate(63.623047 0)"/>
       <use xlink:href="#DejaVuSans-30" transform="translate(127.246094 0)"/>
      </g>
     </g>
    </g>
    <g id="text_7">
     <!-- Residue -->
     <g transform="translate(253.604688 216.914688) scale(0.1 -0.1)">
      <defs>
       <path id="DejaVuSans-52" d="M 2841 2188 
Q 3044 2119 3236 1894 
Q 3428 1669 3622 1275 
L 4263 0 
L 3584 0 
L 2988 1197 
Q 2756 1666 2539 1819 
Q 2322 1972 1947 1972 
L 1259 1972 
L 1259 0 
L 628 0 
L 628 4666 
L 2053 4666 
Q 2853 4666 3247 4331 
Q 3641 3997 3641 3322 
Q 3641 2881 3436 2590 
Q 3231 2300 2841 2188 
z
M 1259 4147 
L 1259 2491 
L 2053 2491 
Q 2509 2491 2742 2702 
Q 2975 2913 2975 3322 
Q 2975 3731 2742 3939 
Q 2509 4147 2053 4147 
L 1259 4147 
z
" transform="scale(0.015625)"/>
       <path id="DejaVuSans-65" d="M 3597 1894 
L 3597 1613 
L 953 1613 
Q 991 1019 1311 708 
Q 1631 397 2203 397 
Q 2534 397 2845 478 
Q 3156 559 3463 722 
L 3463 178 
Q 3153 47 2828 -22 
Q 2503 -91 2169 -91 
Q 1331 -91 842 396 
Q 353 884 353 1716 
Q 353 2575 817 3079 
Q 1281 3584 2069 3584 
Q 2775 3584 3186 3129 
Q 3597 2675 3597 1894 
z
M 3022 2063 
Q 3016 2534 2758 2815 
Q 2500 3097 2075 3097 
Q 1594 3097 1305 2825 
Q 1016 2553 972 2059 
L 3022 2063 
z
" transform="scale(0.015625)"/>
       <path id="DejaVuSans-73" d="M 2834 3397 
L 2834 2853 
Q 2591 2978 2328 3040 
Q 2066 3103 1784 3103 
Q 1356 3103 1142 2972 
Q 928 2841 928 2578 
Q 928 2378 1081 2264 
Q 1234 2150 1697 2047 
L 1894 2003 
Q 2506 1872 2764 1633 
Q 3022 1394 3022 966 
Q 3022 478 2636 193 
Q 2250 -91 1575 -91 
Q 1294 -91 989 -36 
Q 684 19 347 128 
L 347 722 
Q 666 556 975 473 
Q 1284 391 1588 391 
Q 1994 391 2212 530 
Q 2431 669 2431 922 
Q 2431 1156 2273 1281 
Q 2116 1406 1581 1522 
L 1381 1569 
Q 847 1681 609 1914 
Q 372 2147 372 2553 
Q 372 3047 722 3315 
Q 1072 3584 1716 3584 
Q 2034 3584 2315 3537 
Q 2597 3491 2834 3397 
z
" transform="scale(0.015625)"/>
       <path id="DejaVuSans-69" d="M 603 3500 
L 1178 3500 
L 1178 0 
L 603 0 
L 603 3500 
z
M 603 4863 
L 1178 4863 
L 1178 4134 
L 603 4134 
L 603 4863 
z
" transform="scale(0.015625)"/>
       <path id="DejaVuSans-64" d="M 2906 2969 
L 2906 4863 
L 3481 4863 
L 3481 0 
L 2906 0 
L 2906 525 
Q 2725 213 2448 61 
Q 2172 -91 1784 -91 
Q 1150 -91 751 415 
Q 353 922 353 1747 
Q 353 2572 751 3078 
Q 1150 3584 1784 3584 
Q 2172 3584 2448 3432 
Q 2725 3281 2906 2969 
z
M 947 1747 
Q 947 1113 1208 752 
Q 1469 391 1925 391 
Q 2381 391 2643 752 
Q 2906 1113 2906 1747 
Q 2906 2381 2643 2742 
Q 2381 3103 1925 3103 
Q 1469 3103 1208 2742 
Q 947 2381 947 1747 
z
" transform="scale(0.015625)"/>
       <path id="DejaVuSans-75" d="M 544 1381 
L 544 3500 
L 1119 3500 
L 1119 1403 
Q 1119 906 1312 657 
Q 1506 409 1894 409 
Q 2359 409 2629 706 
Q 2900 1003 2900 1516 
L 2900 3500 
L 3475 3500 
L 3475 0 
L 2900 0 
L 2900 538 
Q 2691 219 2414 64 
Q 2138 -91 1772 -91 
Q 1169 -91 856 284 
Q 544 659 544 1381 
z
M 1991 3584 
L 1991 3584 
z
" transform="scale(0.015625)"/>
      </defs>
      <use xlink:href="#DejaVuSans-52"/>
      <use xlink:href="#DejaVuSans-65" transform="translate(64.982422 0)"/>
      <use xlink:href="#DejaVuSans-73" transform="translate(126.505859 0)"/>
      <use xlink:href="#DejaVuSans-69" transform="translate(178.605469 0)"/>
      <use xlink:href="#DejaVuSans-64" transform="translate(206.388672 0)"/>
      <use xlink:href="#DejaVuSans-75" transform="translate(269.865234 0)"/>
      <use xlink:href="#DejaVuSans-65" transform="translate(333.244141 0)"/>
     </g>
    </g>
   </g>
   <g id="matplotlib.axis_2">
    <g id="ytick_1">
     <g id="line2d_7">
      <defs>
       <path id="m5cde8fe459" d="M 0 0 
L -3.5 0 
" style="stroke: #000000; stroke-width: 0.8"/>
      </defs>
      <g>
       <use xlink:href="#m5cde8fe459" x="50.14375" y="164.171146" style="stroke: #000000; stroke-width: 0.8"/>
      </g>
     </g>
     <g id="text_8">
      <!-- 0.05 -->
      <g transform="translate(20.878125 167.970365) scale(0.1 -0.1)">
       <defs>
        <path id="DejaVuSans-2e" d="M 684 794 
L 1344 794 
L 1344 0 
L 684 0 
L 684 794 
z
" transform="scale(0.015625)"/>
       </defs>
       <use xlink:href="#DejaVuSans-30"/>
       <use xlink:href="#DejaVuSans-2e" transform="translate(63.623047 0)"/>
       <use xlink:href="#DejaVuSans-30" transform="translate(95.410156 0)"/>
       <use xlink:href="#DejaVuSans-35" transform="translate(159.033203 0)"/>
      </g>
     </g>
    </g>
    <g id="ytick_2">
     <g id="line2d_8">
      <g>
       <use xlink:href="#m5cde8fe459" x="50.14375" y="134.787353" style="stroke: #000000; stroke-width: 0.8"/>
      </g>
     </g>
     <g id="text_9">
      <!-- 0.10 -->
      <g transform="translate(20.878125 138.586571) scale(0.1 -0.1)">
       <use xlink:href="#DejaVuSans-30"/>
       <use xlink:href="#DejaVuSans-2e" transform="translate(63.623047 0)"/>
       <use xlink:href="#DejaVuSans-31" transform="translate(95.410156 0)"/>
       <use xlink:href="#DejaVuSans-30" transform="translate(159.033203 0)"/>
      </g>
     </g>
    </g>
    <g id="ytick_3">
     <g id="line2d_9">
      <g>
       <use xlink:href="#m5cde8fe459" x="50.14375" y="105.403559" style="stroke: #000000; stroke-width: 0.8"/>
      </g>
     </g>
     <g id="text_10">
      <!-- 0.15 -->
      <g transform="translate(20.878125 109.202778) scale(0.1 -0.1)">
       <use xlink:href="#DejaVuSans-30"/>
       <use xlink:href="#DejaVuSans-2e" transform="translate(63.623047 0)"/>
       <use xlink:href="#DejaVuSans-31" transform="translate(95.410156 0)"/>
       <use xlink:href="#DejaVuSans-35" transform="translate(159.033203 0)"/>
      </g>
     </g>
    </g>
    <g id="ytick_4">
     <g id="line2d_10">
      <g>
       <use xlink:href="#m5cde8fe459" x="50.14375" y="76.019765" style="stroke: #000000; stroke-width: 0.8"/>
      </g>
     </g>
     <g id="text_11">
      <!-- 0.20 -->
      <g transform="translate(20.878125 79.818984) scale(0.1 -0.1)">
       <use xlink:href="#DejaVuSans-30"/>
       <use xlink:href="#DejaVuSans-2e" transform="translate(63.623047 0)"/>
       <use xlink:href="#DejaVuSans-32" transform="translate(95.410156 0)"/>
       <use xlink:href="#DejaVuSans-30" transform="translate(159.033203 0)"/>
      </g>
     </g>
    </g>
    <g id="ytick_5">
     <g id="line2d_11">
      <g>
       <use xlink:href="#m5cde8fe459" x="50.14375" y="46.635972" style="stroke: #000000; stroke-width: 0.8"/>
      </g>
     </g>
     <g id="text_12">
      <!-- 0.25 -->
      <g transform="translate(20.878125 50.43519) scale(0.1 -0.1)">
       <use xlink:href="#DejaVuSans-30"/>
       <use xlink:href="#DejaVuSans-2e" transform="translate(63.623047 0)"/>
       <use xlink:href="#DejaVuSans-32" transform="translate(95.410156 0)"/>
       <use xlink:href="#DejaVuSans-35" transform="translate(159.033203 0)"/>
      </g>
     </g>
    </g>
    <g id="text_13">
     <!-- RMSF (nm) -->
     <g transform="translate(14.798437 132.846094) rotate(-90) scale(0.1 -0.1)">
      <defs>
       <path id="DejaVuSans-4d" d="M 628 4666 
L 1569 4666 
L 2759 1491 
L 3956 4666 
L 4897 4666 
L 4897 0 
L 4281 0 
L 4281 4097 
L 3078 897 
L 2444 897 
L 1241 4097 
L 1241 0 
L 628 0 
L 628 4666 
z
" transform="scale(0.015625)"/>
       <path id="DejaVuSans-53" d="M 3425 4513 
L 3425 3897 
Q 3066 4069 2747 4153 
Q 2428 4238 2131 4238 
Q 1616 4238 1336 4038 
Q 1056 3838 1056 3469 
Q 1056 3159 1242 3001 
Q 1428 2844 1947 2747 
L 2328 2669 
Q 3034 2534 3370 2195 
Q 3706 1856 3706 1288 
Q 3706 609 3251 259 
Q 2797 -91 1919 -91 
Q 1588 -91 1214 -16 
Q 841 59 441 206 
L 441 856 
Q 825 641 1194 531 
Q 1563 422 1919 422 
Q 2459 422 2753 634 
Q 3047 847 3047 1241 
Q 3047 1584 2836 1778 
Q 2625 1972 2144 2069 
L 1759 2144 
Q 1053 2284 737 2584 
Q 422 2884 422 3419 
Q 422 4038 858 4394 
Q 1294 4750 2059 4750 
Q 2388 4750 2728 4690 
Q 3069 4631 3425 4513 
z
" transform="scale(0.015625)"/>
       <path id="DejaVuSans-46" d="M 628 4666 
L 3309 4666 
L 3309 4134 
L 1259 4134 
L 1259 2759 
L 3109 2759 
L 3109 2228 
L 1259 2228 
L 1259 0 
L 628 0 
L 628 4666 
z
" transform="scale(0.015625)"/>
       <path id="DejaVuSans-20" transform="scale(0.015625)"/>
       <path id="DejaVuSans-28" d="M 1984 4856 
Q 1566 4138 1362 3434 
Q 1159 2731 1159 2009 
Q 1159 1288 1364 580 
Q 1569 -128 1984 -844 
L 1484 -844 
Q 1016 -109 783 600 
Q 550 1309 550 2009 
Q 550 2706 781 3412 
Q 1013 4119 1484 4856 
L 1984 4856 
z
" transform="scale(0.015625)"/>
       <path id="DejaVuSans-6e" d="M 3513 2113 
L 3513 0 
L 2938 0 
L 2938 2094 
Q 2938 2591 2744 2837 
Q 2550 3084 2163 3084 
Q 1697 3084 1428 2787 
Q 1159 2491 1159 1978 
L 1159 0 
L 581 0 
L 581 3500 
L 1159 3500 
L 1159 2956 
Q 1366 3272 1645 3428 
Q 1925 3584 2291 3584 
Q 2894 3584 3203 3211 
Q 3513 2838 3513 2113 
z
" transform="scale(0.015625)"/>
       <path id="DejaVuSans-6d" d="M 3328 2828 
Q 3544 3216 3844 3400 
Q 4144 3584 4550 3584 
Q 5097 3584 5394 3201 
Q 5691 2819 5691 2113 
L 5691 0 
L 5113 0 
L 5113 2094 
Q 5113 2597 4934 2840 
Q 4756 3084 4391 3084 
Q 3944 3084 3684 2787 
Q 3425 2491 3425 1978 
L 3425 0 
L 2847 0 
L 2847 2094 
Q 2847 2600 2669 2842 
Q 2491 3084 2119 3084 
Q 1678 3084 1418 2786 
Q 1159 2488 1159 1978 
L 1159 0 
L 581 0 
L 581 3500 
L 1159 3500 
L 1159 2956 
Q 1356 3278 1631 3431 
Q 1906 3584 2284 3584 
Q 2666 3584 2933 3390 
Q 3200 3197 3328 2828 
z
" transform="scale(0.015625)"/>
       <path id="DejaVuSans-29" d="M 513 4856 
L 1013 4856 
Q 1481 4119 1714 3412 
Q 1947 2706 1947 2009 
Q 1947 1309 1714 600 
Q 1481 -109 1013 -844 
L 513 -844 
Q 928 -128 1133 580 
Q 1338 1288 1338 2009 
Q 1338 2731 1133 3434 
Q 928 4138 513 4856 
z
" transform="scale(0.015625)"/>
      </defs>
      <use xlink:href="#DejaVuSans-52"/>
      <use xlink:href="#DejaVuSans-4d" transform="translate(69.482422 0)"/>
      <use xlink:href="#DejaVuSans-53" transform="translate(155.761719 0)"/>
      <use xlink:href="#DejaVuSans-46" transform="translate(219.238281 0)"/>
      <use xlink:href="#DejaVuSans-20" transform="translate(276.757812 0)"/>
      <use xlink:href="#DejaVuSans-28" transform="translate(308.544922 0)"/>
      <use xlink:href="#DejaVuSans-6e" transform="translate(347.558594 0)"/>
      <use xlink:href="#DejaVuSans-6d" transform="translate(410.9375 0)"/>
      <use xlink:href="#DejaVuSans-29" transform="translate(508.349609 0)"/>
     </g>
    </g>
   </g>
   <g id="line2d_12">
    <path d="M 70.434659 67.302424 
L 71.231944 72.721779 
L 72.02923 92.586601 
L 72.826515 132.659681 
L 73.6238 123.248253 
L 74.421085 130.011036 
L 75.21837 144.442589 
L 76.015656 141.091072 
L 76.812941 149.389378 
L 77.610226 141.979808 
L 78.407511 161.625457 
L 79.204797 125.843073 
L 80.002082 138.539766 
L 80.799367 139.994208 
L 81.596652 142.738138 
L 82.393938 154.971781 
L 83.191223 147.131823 
L 83.988508 162.288071 
L 84.785793 155.316498 
L 85.583078 150.978166 
L 86.380364 141.685466 
L 87.177649 128.289413 
L 87.974934 145.745932 
L 88.772219 158.14417 
L 89.569505 148.695916 
L 90.36679 108.457691 
L 91.164075 145.382602 
L 91.96136 135.283947 
L 92.758646 129.692244 
L 93.555931 90.620179 
L 94.353216 103.500814 
L 95.150501 111.486231 
L 95.947786 156.128666 
L 96.745072 143.64955 
L 97.542357 162.492541 
L 98.339642 150.885735 
L 99.136927 157.161247 
L 99.934213 156.349344 
L 100.731498 153.404461 
L 101.528783 120.17775 
L 103.123354 170.194485 
L 103.920639 170.698237 
L 104.717924 164.854454 
L 105.515209 165.795178 
L 106.312494 161.969301 
L 107.10978 168.67624 
L 107.907065 155.533594 
L 108.70435 152.417283 
L 109.501635 151.623587 
L 110.298921 130.489289 
L 111.096206 29.878125 
L 111.893491 156.245748 
L 112.690776 157.779476 
L 113.488061 165.36122 
L 115.082632 159.403224 
L 115.879917 166.155844 
L 117.474488 155.753107 
L 118.271773 165.314887 
L 119.069058 159.326641 
L 119.866343 160.457691 
L 120.663629 164.634385 
L 121.460914 154.479463 
L 122.258199 151.63061 
L 123.055484 133.929743 
L 125.44734 167.853335 
L 126.244625 172.834811 
L 127.04191 172.196531 
L 127.839196 172.959196 
L 128.636481 168.672385 
L 129.433766 166.264035 
L 130.231051 153.521871 
L 131.028337 146.426202 
L 131.825622 143.065048 
L 132.622907 161.743461 
L 133.420192 165.69211 
L 134.217477 164.399851 
L 135.014763 158.444635 
L 135.812048 139.424321 
L 136.609333 144.538216 
L 137.406618 141.730784 
L 138.203904 144.597261 
L 139.001189 142.07308 
L 139.798474 143.516702 
L 140.595759 133.693985 
L 141.393045 147.808069 
L 142.19033 146.463608 
L 142.987615 170.59523 
L 143.7849 177.360471 
L 144.582185 174.681742 
L 145.379471 163.820297 
L 146.176756 161.50986 
L 146.974041 161.44397 
L 147.771326 156.365137 
L 148.568612 160.656921 
L 149.365897 159.262377 
L 150.163182 152.548025 
L 151.757753 162.843925 
L 152.555038 163.024528 
L 153.352323 168.716995 
L 154.946893 153.391084 
L 155.744179 158.058863 
L 156.541464 158.248335 
L 157.338749 157.274485 
L 158.136034 161.490371 
L 158.93332 159.384414 
L 160.52789 162.905171 
L 161.325175 163.629167 
L 162.12246 161.69619 
L 162.919746 164.994965 
L 163.717031 163.776503 
L 164.514316 168.799467 
L 166.108887 163.401405 
L 166.906172 170.990247 
L 167.703457 169.197497 
L 168.500742 164.40314 
L 169.298028 171.33204 
L 170.095313 170.20023 
L 170.892598 166.893079 
L 171.689883 166.440705 
L 172.487168 166.123866 
L 173.284454 166.698442 
L 174.081739 159.639371 
L 174.879024 162.510868 
L 175.676309 161.358636 
L 176.473595 156.908201 
L 177.27088 157.292446 
L 178.068165 165.033558 
L 178.86545 143.301567 
L 179.662736 139.892013 
L 180.460021 157.544666 
L 181.257306 157.576058 
L 182.054591 160.251653 
L 182.851876 168.456353 
L 183.649162 165.275603 
L 184.446447 166.450366 
L 185.243732 170.811093 
L 186.041017 171.334111 
L 186.838303 174.168679 
L 187.635588 169.535937 
L 188.432873 174.20839 
L 189.230158 170.888517 
L 190.824729 172.264302 
L 191.622014 171.853805 
L 192.419299 168.593578 
L 193.216584 168.822139 
L 194.01387 172.439036 
L 194.811155 174.499481 
L 195.60844 167.245421 
L 196.405725 169.832541 
L 197.203011 170.33742 
L 198.000296 167.936875 
L 198.797581 170.796217 
L 199.594866 171.910439 
L 200.392152 166.080735 
L 201.189437 170.006813 
L 201.986722 164.638919 
L 202.784007 163.85839 
L 203.581292 162.415006 
L 204.378578 166.593489 
L 205.175863 162.909817 
L 205.973148 160.673997 
L 206.770433 155.20428 
L 207.567719 158.994539 
L 208.365004 164.040488 
L 209.162289 157.897545 
L 209.959574 160.916646 
L 210.756859 166.646088 
L 212.35143 164.43643 
L 213.148715 163.818747 
L 213.946 173.514275 
L 214.743286 171.414586 
L 215.540571 168.786809 
L 216.337856 162.643817 
L 217.135141 159.961626 
L 217.932427 170.881645 
L 218.729712 172.192727 
L 219.526997 173.885844 
L 220.324282 171.184002 
L 221.121567 177.578245 
L 222.716138 172.942613 
L 223.513423 171.735886 
L 224.310708 173.065157 
L 225.107994 172.42969 
L 225.905279 172.831639 
L 226.702564 171.632203 
L 227.499849 174.208143 
L 228.297135 178.65003 
L 229.09442 178.445451 
L 229.891705 175.607772 
L 230.68899 178.638011 
L 231.486275 181.078125 
L 232.283561 180.084464 
L 233.080846 177.991696 
L 233.878131 176.557642 
L 234.675416 165.774904 
L 235.472702 165.701675 
L 236.269987 170.083973 
L 237.067272 169.486005 
L 237.864557 164.769815 
L 238.661843 163.570872 
L 239.459128 170.235247 
L 240.256413 152.123234 
L 241.053698 161.561653 
L 241.850983 162.029352 
L 242.648269 158.306131 
L 243.445554 159.023715 
L 245.040124 167.564928 
L 245.83741 169.590754 
L 246.634695 167.216674 
L 247.43198 167.785849 
L 248.229265 170.54336 
L 249.026551 172.133842 
L 250.621121 174.656587 
L 251.418406 176.135089 
L 252.215691 176.336553 
L 253.012977 170.844055 
L 253.810262 166.925342 
L 254.607547 171.488495 
L 255.404832 171.754436 
L 256.999403 170.342959 
L 257.796688 171.170246 
L 258.593973 171.104409 
L 259.391258 168.73967 
L 260.188544 167.089545 
L 260.985829 167.668605 
L 261.783114 159.762114 
L 262.580399 164.406218 
L 263.377685 168.168276 
L 264.17497 170.77293 
L 264.972255 165.044095 
L 265.76954 168.769297 
L 266.566826 162.258842 
L 267.364111 164.614423 
L 268.161396 161.545464 
L 268.958681 166.042453 
L 269.755966 162.858161 
L 270.553252 167.011351 
L 271.350537 165.987041 
L 272.945107 157.918135 
L 273.742393 164.009399 
L 274.539678 165.429147 
L 275.336963 164.929434 
L 276.134248 160.247728 
L 276.931534 168.377508 
L 277.728819 165.252353 
L 278.526104 174.244281 
L 279.323389 175.960183 
L 280.120674 176.696541 
L 280.91796 169.288209 
L 281.715245 169.893891 
L 282.51253 175.489273 
L 283.309815 169.220101 
L 284.107101 167.656875 
L 284.904386 169.687557 
L 285.701671 168.122696 
L 286.498956 175.293689 
L 287.296242 168.953407 
L 288.093527 171.11315 
L 288.890812 176.026419 
L 289.688097 172.030123 
L 290.485382 164.997897 
L 291.282668 163.921489 
L 292.079953 163.564923 
L 292.877238 157.454841 
L 293.674523 163.960727 
L 294.471809 167.038032 
L 295.269094 163.771502 
L 296.066379 157.922667 
L 296.863664 156.325879 
L 297.660949 160.681806 
L 298.458235 158.365898 
L 299.25552 148.204431 
L 300.052805 150.597296 
L 300.85009 161.791762 
L 301.647376 162.243749 
L 302.444661 151.302444 
L 303.241946 150.616333 
L 304.039231 160.57694 
L 304.836517 168.645621 
L 305.633802 164.377352 
L 306.431087 171.427846 
L 307.228372 164.79359 
L 308.025657 160.845727 
L 308.822943 155.549264 
L 309.620228 154.849274 
L 310.417513 154.988581 
L 311.214798 148.759602 
L 312.012084 155.492816 
L 312.809369 160.525105 
L 313.606654 159.200202 
L 314.403939 159.953033 
L 315.201225 166.728411 
L 315.99851 167.878766 
L 316.795795 168.413903 
L 317.59308 172.941476 
L 318.390365 166.89511 
L 319.187651 164.394998 
L 319.984936 174.361146 
L 320.782221 178.11278 
L 321.579506 173.496168 
L 322.376792 169.693483 
L 323.174077 167.555302 
L 323.971362 171.536685 
L 324.768647 170.967216 
L 325.565933 166.976787 
L 326.363218 171.67247 
L 327.160503 171.114123 
L 327.957788 176.123687 
L 328.755073 170.838218 
L 329.552359 158.357732 
L 330.349644 141.478178 
L 331.944214 150.74913 
L 332.7415 149.845468 
L 333.538785 155.233927 
L 334.33607 161.730997 
L 335.133355 163.128816 
L 335.930641 156.081759 
L 336.727926 160.334015 
L 337.525211 168.271117 
L 338.322496 165.23708 
L 339.119781 161.550182 
L 339.917067 163.320054 
L 340.714352 165.583772 
L 342.308922 165.812263 
L 343.106208 168.890628 
L 343.903493 168.167387 
L 344.700778 169.019981 
L 345.498063 171.68718 
L 346.295348 168.5859 
L 347.092634 169.937814 
L 347.889919 167.637292 
L 348.687204 170.359545 
L 349.484489 170.506348 
L 350.281775 163.830199 
L 351.07906 168.637225 
L 351.876345 171.497646 
L 352.67363 172.647454 
L 353.470916 161.980124 
L 354.268201 160.563892 
L 355.065486 161.590913 
L 355.862771 156.764752 
L 357.457342 171.659722 
L 358.254627 171.678836 
L 359.051912 165.929166 
L 359.849197 169.448665 
L 360.646483 166.475061 
L 361.443768 164.123818 
L 362.241053 158.99337 
L 363.038338 170.192767 
L 363.835624 160.423885 
L 364.632909 134.356483 
L 365.430194 122.646359 
L 366.227479 126.768295 
L 367.024764 102.417076 
L 367.82205 105.682879 
L 368.619335 116.367324 
L 369.41662 143.398179 
L 370.213905 144.828832 
L 371.011191 135.966528 
L 371.808476 151.449532 
L 372.605761 157.203702 
L 373.403046 149.19826 
L 374.200332 146.400303 
L 374.997617 161.051058 
L 375.794902 163.518537 
L 376.592187 158.952411 
L 377.389472 150.5837 
L 378.186758 161.200946 
L 378.984043 163.274723 
L 379.781328 153.964746 
L 380.578613 156.520496 
L 381.375899 159.936257 
L 382.173184 147.869662 
L 382.970469 148.745061 
L 383.767754 156.735701 
L 384.56504 132.054249 
L 385.362325 126.395893 
L 386.15961 123.470258 
L 386.956895 110.935762 
L 387.75418 95.112319 
L 388.551466 109.369301 
L 389.348751 121.083006 
L 390.146036 118.18415 
L 390.943321 130.444173 
L 391.740607 126.935493 
L 392.537892 129.152446 
L 393.335177 135.46393 
L 394.132462 156.408655 
L 394.929747 141.584966 
L 395.727033 150.994642 
L 396.524318 148.112346 
L 397.321603 150.705852 
L 398.118888 161.10297 
L 398.916174 158.459883 
L 399.713459 162.696257 
L 400.510744 166.024243 
L 401.308029 160.936181 
L 402.105315 158.109956 
L 402.9026 162.587271 
L 404.49717 136.355989 
L 405.294455 143.605397 
L 406.091741 142.650717 
L 406.889026 133.641662 
L 407.686311 111.389378 
L 408.483596 138.921858 
L 409.280882 152.492536 
L 410.078167 142.442185 
L 410.875452 136.996739 
L 411.672737 157.917165 
L 412.470023 160.202088 
L 413.267308 156.110955 
L 414.064593 143.156165 
L 414.861878 143.377443 
L 415.659163 161.641798 
L 416.456449 151.946915 
L 417.253734 145.861083 
L 418.051019 152.611807 
L 418.848304 147.279918 
L 419.64559 132.330565 
L 420.442875 129.756486 
L 421.24016 136.561382 
L 422.037445 135.959952 
L 423.632016 123.753032 
L 424.429301 137.58312 
L 425.226586 129.014856 
L 426.023871 118.266904 
L 426.821157 125.95078 
L 427.618442 126.429042 
L 428.415727 129.70027 
L 429.213012 130.210285 
L 430.010298 138.274121 
L 430.807583 134.750905 
L 431.604868 121.610951 
L 432.402153 154.286182 
L 433.199439 158.274595 
L 433.996724 157.312996 
L 434.794009 160.122366 
L 435.591294 157.918454 
L 436.388579 158.475053 
L 437.185865 166.565013 
L 437.98315 158.749492 
L 438.780435 155.713814 
L 439.57772 167.380842 
L 440.375006 161.979595 
L 441.172291 145.942055 
L 441.969576 146.941147 
L 442.766861 162.977713 
L 443.564146 154.888006 
L 444.361432 150.239478 
L 445.158717 165.07543 
L 445.956002 174.502752 
L 446.753287 162.550808 
L 448.347858 169.03205 
L 449.145143 166.143646 
L 449.942428 159.423748 
L 450.739714 159.726817 
L 451.536999 125.853892 
L 452.334284 150.1782 
L 453.131569 166.558132 
L 453.928854 163.450195 
L 454.72614 159.747875 
L 455.523425 161.18626 
L 456.32071 158.924375 
L 457.117995 160.827272 
L 457.915281 153.5353 
L 458.712566 157.873875 
L 459.509851 164.092431 
L 460.307136 161.820497 
L 461.104422 154.289961 
L 461.901707 160.66406 
L 462.698992 164.697046 
L 463.496277 169.823399 
L 464.293562 167.222909 
L 465.090848 167.990497 
L 465.888133 178.477416 
L 466.685418 173.319448 
L 467.482703 169.527699 
L 468.279989 172.995766 
L 469.077274 163.290199 
L 469.874559 159.006774 
L 470.671844 160.060044 
L 471.46913 142.224327 
L 472.266415 146.083762 
L 473.0637 140.413784 
L 473.860985 148.017113 
L 474.65827 137.820839 
L 475.455556 159.703223 
L 476.252841 126.861304 
L 476.252841 126.861304 
" clip-path="url(#pe29607f11f)" style="fill: none; stroke: #1f77b4; stroke-width: 1.5; stroke-linecap: square"/>
   </g>
   <g id="patch_3">
    <path d="M 50.14375 188.638125 
L 50.14375 22.318125 
" style="fill: none; stroke: #000000; stroke-width: 0.8; stroke-linejoin: miter; stroke-linecap: square"/>
   </g>
   <g id="patch_4">
    <path d="M 496.54375 188.638125 
L 496.54375 22.318125 
" style="fill: none; stroke: #000000; stroke-width: 0.8; stroke-linejoin: miter; stroke-linecap: square"/>
   </g>
   <g id="patch_5">
    <path d="M 50.14375 188.638125 
L 496.54375 188.638125 
" style="fill: none; stroke: #000000; stroke-width: 0.8; stroke-linejoin: miter; stroke-linecap: square"/>
   </g>
   <g id="patch_6">
    <path d="M 50.14375 22.318125 
L 496.54375 22.318125 
" style="fill: none; stroke: #000000; stroke-width: 0.8; stroke-linejoin: miter; stroke-linecap: square"/>
   </g>
   <g id="text_14">
    <!-- Protein CA RMSF -->
    <g transform="translate(223.600937 16.318125) scale(0.12 -0.12)">
     <defs>
      <path id="DejaVuSans-50" d="M 1259 4147 
L 1259 2394 
L 2053 2394 
Q 2494 2394 2734 2622 
Q 2975 2850 2975 3272 
Q 2975 3691 2734 3919 
Q 2494 4147 2053 4147 
L 1259 4147 
z
M 628 4666 
L 2053 4666 
Q 2838 4666 3239 4311 
Q 3641 3956 3641 3272 
Q 3641 2581 3239 2228 
Q 2838 1875 2053 1875 
L 1259 1875 
L 1259 0 
L 628 0 
L 628 4666 
z
" transform="scale(0.015625)"/>
      <path id="DejaVuSans-72" d="M 2631 2963 
Q 2534 3019 2420 3045 
Q 2306 3072 2169 3072 
Q 1681 3072 1420 2755 
Q 1159 2438 1159 1844 
L 1159 0 
L 581 0 
L 581 3500 
L 1159 3500 
L 1159 2956 
Q 1341 3275 1631 3429 
Q 1922 3584 2338 3584 
Q 2397 3584 2469 3576 
Q 2541 3569 2628 3553 
L 2631 2963 
z
" transform="scale(0.015625)"/>
      <path id="DejaVuSans-6f" d="M 1959 3097 
Q 1497 3097 1228 2736 
Q 959 2375 959 1747 
Q 959 1119 1226 758 
Q 1494 397 1959 397 
Q 2419 397 2687 759 
Q 2956 1122 2956 1747 
Q 2956 2369 2687 2733 
Q 2419 3097 1959 3097 
z
M 1959 3584 
Q 2709 3584 3137 3096 
Q 3566 2609 3566 1747 
Q 3566 888 3137 398 
Q 2709 -91 1959 -91 
Q 1206 -91 779 398 
Q 353 888 353 1747 
Q 353 2609 779 3096 
Q 1206 3584 1959 3584 
z
" transform="scale(0.015625)"/>
      <path id="DejaVuSans-74" d="M 1172 4494 
L 1172 3500 
L 2356 3500 
L 2356 3053 
L 1172 3053 
L 1172 1153 
Q 1172 725 1289 603 
Q 1406 481 1766 481 
L 2356 481 
L 2356 0 
L 1766 0 
Q 1100 0 847 248 
Q 594 497 594 1153 
L 594 3053 
L 172 3053 
L 172 3500 
L 594 3500 
L 594 4494 
L 1172 4494 
z
" transform="scale(0.015625)"/>
      <path id="DejaVuSans-43" d="M 4122 4306 
L 4122 3641 
Q 3803 3938 3442 4084 
Q 3081 4231 2675 4231 
Q 1875 4231 1450 3742 
Q 1025 3253 1025 2328 
Q 1025 1406 1450 917 
Q 1875 428 2675 428 
Q 3081 428 3442 575 
Q 3803 722 4122 1019 
L 4122 359 
Q 3791 134 3420 21 
Q 3050 -91 2638 -91 
Q 1578 -91 968 557 
Q 359 1206 359 2328 
Q 359 3453 968 4101 
Q 1578 4750 2638 4750 
Q 3056 4750 3426 4639 
Q 3797 4528 4122 4306 
z
" transform="scale(0.015625)"/>
      <path id="DejaVuSans-41" d="M 2188 4044 
L 1331 1722 
L 3047 1722 
L 2188 4044 
z
M 1831 4666 
L 2547 4666 
L 4325 0 
L 3669 0 
L 3244 1197 
L 1141 1197 
L 716 0 
L 50 0 
L 1831 4666 
z
" transform="scale(0.015625)"/>
     </defs>
     <use xlink:href="#DejaVuSans-50"/>
     <use xlink:href="#DejaVuSans-72" transform="translate(58.552734 0)"/>
     <use xlink:href="#DejaVuSans-6f" transform="translate(97.416016 0)"/>
     <use xlink:href="#DejaVuSans-74" transform="translate(158.597656 0)"/>
     <use xlink:href="#DejaVuSans-65" transform="translate(197.806641 0)"/>
     <use xlink:href="#DejaVuSans-69" transform="translate(259.330078 0)"/>
     <use xlink:href="#DejaVuSans-6e" transform="translate(287.113281 0)"/>
     <use xlink:href="#DejaVuSans-20" transform="translate(350.492188 0)"/>
     <use xlink:href="#DejaVuSans-43" transform="translate(382.279297 0)"/>
     <use xlink:href="#DejaVuSans-41" transform="translate(452.103516 0)"/>
     <use xlink:href="#DejaVuSans-20" transform="translate(520.511719 0)"/>
     <use xlink:href="#DejaVuSans-52" transform="translate(552.298828 0)"/>
     <use xlink:href="#DejaVuSans-4d" transform="translate(621.78125 0)"/>
     <use xlink:href="#DejaVuSans-53" transform="translate(708.060547 0)"/>
     <use xlink:href="#DejaVuSans-46" transform="translate(771.537109 0)"/>
    </g>
   </g>
  </g>
 </g>
 <defs>
  <clipPath id="pe29607f11f">
   <rect x="50.14375" y="22.318125" width="446.4" height="166.32"/>
  </clipPath>
 </defs>
</svg>
