<?xml version="1.0" encoding="utf-8" standalone="no"?>
<!DOCTYPE svg PUBLIC "-//W3C//DTD SVG 1.1//EN"
  "http://www.w3.org/Graphics/SVG/1.1/DTD/svg11.dtd">
<svg xmlns:xlink="http://www.w3.org/1999/xlink" width="510.10625pt" height="226.194375pt" viewBox="0 0 510.10625 226.194375" xmlns="http://www.w3.org/2000/svg" version="1.1">
 <metadata>
  <rdf:RDF xmlns:dc="http://purl.org/dc/elements/1.1/" xmlns:cc="http://creativecommons.org/ns#" xmlns:rdf="http://www.w3.org/1999/02/22-rdf-syntax-ns#">
   <cc:Work>
    <dc:type rdf:resource="http://purl.org/dc/dcmitype/StillImage"/>
    <dc:date>2025-08-22T04:59:23.084415</dc:date>
    <dc:format>image/svg+xml</dc:format>
    <dc:creator>
     <cc:Agent>
      <dc:title>Matplotlib v3.10.0, https://matplotlib.org/</dc:title>
     </cc:Agent>
    </dc:creator>
   </cc:Work>
  </rdf:RDF>
 </metadata>
 <defs>
  <style type="text/css">*{stroke-linejoin: round; stroke-linecap: butt}</style>
 </defs>
 <g id="figure_1">
  <g id="patch_1">
   <path d="M 0 226.194375 
L 510.10625 226.194375 
L 510.10625 0 
L 0 0 
z
" style="fill: #ffffff"/>
  </g>
  <g id="axes_1">
   <g id="patch_2">
    <path d="M 56.50625 188.638125 
L 502.90625 188.638125 
L 502.90625 22.318125 
L 56.50625 22.318125 
z
" style="fill: #ffffff"/>
   </g>
   <g id="matplotlib.axis_1">
    <g id="xtick_1">
     <g id="line2d_1">
      <defs>
       <path id="m507071b943" d="M 0 0 
L 0 3.5 
" style="stroke: #000000; stroke-width: 0.8"/>
      </defs>
      <g>
       <use xlink:href="#m507071b943" x="75.759261" y="188.638125" style="stroke: #000000; stroke-width: 0.8"/>
      </g>
     </g>
     <g id="text_1">
      <!-- 0 -->
      <g transform="translate(72.578011 203.236563) scale(0.1 -0.1)">
       <defs>
        <path id="DejaVuSans-30" d="M 2034 4250 
Q 1547 4250 1301 3770 
Q 1056 3291 1056 2328 
Q 1056 1369 1301 889 
Q 1547 409 2034 409 
Q 2525 409 2770 889 
Q 3016 1369 3016 2328 
Q 3016 3291 2770 3770 
Q 2525 4250 2034 4250 
z
M 2034 4750 
Q 2819 4750 3233 4129 
Q 3647 3509 3647 2328 
Q 3647 1150 3233 529 
Q 2819 -91 2034 -91 
Q 1250 -91 836 529 
Q 422 1150 422 2328 
Q 422 3509 836 4129 
Q 1250 4750 2034 4750 
z
" transform="scale(0.015625)"/>
       </defs>
       <use xlink:href="#DejaVuSans-30"/>
      </g>
     </g>
    </g>
    <g id="xtick_2">
     <g id="line2d_2">
      <g>
       <use xlink:href="#m507071b943" x="127.654169" y="188.638125" style="stroke: #000000; stroke-width: 0.8"/>
      </g>
     </g>
     <g id="text_2">
      <!-- 50 -->
      <g transform="translate(121.291669 203.236563) scale(0.1 -0.1)">
       <defs>
        <path id="DejaVuSans-35" d="M 691 4666 
L 3169 4666 
L 3169 4134 
L 1269 4134 
L 1269 2991 
Q 1406 3038 1543 3061 
Q 1681 3084 1819 3084 
Q 2600 3084 3056 2656 
Q 3513 2228 3513 1497 
Q 3513 744 3044 326 
Q 2575 -91 1722 -91 
Q 1428 -91 1123 -41 
Q 819 9 494 109 
L 494 744 
Q 775 591 1075 516 
Q 1375 441 1709 441 
Q 2250 441 2565 725 
Q 2881 1009 2881 1497 
Q 2881 1984 2565 2268 
Q 2250 2553 1709 2553 
Q 1456 2553 1204 2497 
Q 953 2441 691 2322 
L 691 4666 
z
" transform="scale(0.015625)"/>
       </defs>
       <use xlink:href="#DejaVuSans-35"/>
       <use xlink:href="#DejaVuSans-30" transform="translate(63.623047 0)"/>
      </g>
     </g>
    </g>
    <g id="xtick_3">
     <g id="line2d_3">
      <g>
       <use xlink:href="#m507071b943" x="179.549077" y="188.638125" style="stroke: #000000; stroke-width: 0.8"/>
      </g>
     </g>
     <g id="text_3">
      <!-- 100 -->
      <g transform="translate(170.005327 203.236563) scale(0.1 -0.1)">
       <defs>
        <path id="DejaVuSans-31" d="M 794 531 
L 1825 531 
L 1825 4091 
L 703 3866 
L 703 4441 
L 1819 4666 
L 2450 4666 
L 2450 531 
L 3481 531 
L 3481 0 
L 794 0 
L 794 531 
z
" transform="scale(0.015625)"/>
       </defs>
       <use xlink:href="#DejaVuSans-31"/>
       <use xlink:href="#DejaVuSans-30" transform="translate(63.623047 0)"/>
       <use xlink:href="#DejaVuSans-30" transform="translate(127.246094 0)"/>
      </g>
     </g>
    </g>
    <g id="xtick_4">
     <g id="line2d_4">
      <g>
       <use xlink:href="#m507071b943" x="231.443985" y="188.638125" style="stroke: #000000; stroke-width: 0.8"/>
      </g>
     </g>
     <g id="text_4">
      <!-- 150 -->
      <g transform="translate(221.900235 203.236563) scale(0.1 -0.1)">
       <use xlink:href="#DejaVuSans-31"/>
       <use xlink:href="#DejaVuSans-35" transform="translate(63.623047 0)"/>
       <use xlink:href="#DejaVuSans-30" transform="translate(127.246094 0)"/>
      </g>
     </g>
    </g>
    <g id="xtick_5">
     <g id="line2d_5">
      <g>
       <use xlink:href="#m507071b943" x="283.338894" y="188.638125" style="stroke: #000000; stroke-width: 0.8"/>
      </g>
     </g>
     <g id="text_5">
      <!-- 200 -->
      <g transform="translate(273.795144 203.236563) scale(0.1 -0.1)">
       <defs>
        <path id="DejaVuSans-32" d="M 1228 531 
L 3431 531 
L 3431 0 
L 469 0 
L 469 531 
Q 828 903 1448 1529 
Q 2069 2156 2228 2338 
Q 2531 2678 2651 2914 
Q 2772 3150 2772 3378 
Q 2772 3750 2511 3984 
Q 2250 4219 1831 4219 
Q 1534 4219 1204 4116 
Q 875 4013 500 3803 
L 500 4441 
Q 881 4594 1212 4672 
Q 1544 4750 1819 4750 
Q 2544 4750 2975 4387 
Q 3406 4025 3406 3419 
Q 3406 3131 3298 2873 
Q 3191 2616 2906 2266 
Q 2828 2175 2409 1742 
Q 1991 1309 1228 531 
z
" transform="scale(0.015625)"/>
       </defs>
       <use xlink:href="#DejaVuSans-32"/>
       <use xlink:href="#DejaVuSans-30" transform="translate(63.623047 0)"/>
       <use xlink:href="#DejaVuSans-30" transform="translate(127.246094 0)"/>
      </g>
     </g>
    </g>
    <g id="xtick_6">
     <g id="line2d_6">
      <g>
       <use xlink:href="#m507071b943" x="335.233802" y="188.638125" style="stroke: #000000; stroke-width: 0.8"/>
      </g>
     </g>
     <g id="text_6">
      <!-- 250 -->
      <g transform="translate(325.690052 203.236563) scale(0.1 -0.1)">
       <use xlink:href="#DejaVuSans-32"/>
       <use xlink:href="#DejaVuSans-35" transform="translate(63.623047 0)"/>
       <use xlink:href="#DejaVuSans-30" transform="translate(127.246094 0)"/>
      </g>
     </g>
    </g>
    <g id="xtick_7">
     <g id="line2d_7">
      <g>
       <use xlink:href="#m507071b943" x="387.12871" y="188.638125" style="stroke: #000000; stroke-width: 0.8"/>
      </g>
     </g>
     <g id="text_7">
      <!-- 300 -->
      <g transform="translate(377.58496 203.236563) scale(0.1 -0.1)">
       <defs>
        <path id="DejaVuSans-33" d="M 2597 2516 
Q 3050 2419 3304 2112 
Q 3559 1806 3559 1356 
Q 3559 666 3084 287 
Q 2609 -91 1734 -91 
Q 1441 -91 1130 -33 
Q 819 25 488 141 
L 488 750 
Q 750 597 1062 519 
Q 1375 441 1716 441 
Q 2309 441 2620 675 
Q 2931 909 2931 1356 
Q 2931 1769 2642 2001 
Q 2353 2234 1838 2234 
L 1294 2234 
L 1294 2753 
L 1863 2753 
Q 2328 2753 2575 2939 
Q 2822 3125 2822 3475 
Q 2822 3834 2567 4026 
Q 2313 4219 1838 4219 
Q 1578 4219 1281 4162 
Q 984 4106 628 3988 
L 628 4550 
Q 988 4650 1302 4700 
Q 1616 4750 1894 4750 
Q 2613 4750 3031 4423 
Q 3450 4097 3450 3541 
Q 3450 3153 3228 2886 
Q 3006 2619 2597 2516 
z
" transform="scale(0.015625)"/>
       </defs>
       <use xlink:href="#DejaVuSans-33"/>
       <use xlink:href="#DejaVuSans-30" transform="translate(63.623047 0)"/>
       <use xlink:href="#DejaVuSans-30" transform="translate(127.246094 0)"/>
      </g>
     </g>
    </g>
    <g id="xtick_8">
     <g id="line2d_8">
      <g>
       <use xlink:href="#m507071b943" x="439.023618" y="188.638125" style="stroke: #000000; stroke-width: 0.8"/>
      </g>
     </g>
     <g id="text_8">
      <!-- 350 -->
      <g transform="translate(429.479868 203.236563) scale(0.1 -0.1)">
       <use xlink:href="#DejaVuSans-33"/>
       <use xlink:href="#DejaVuSans-35" transform="translate(63.623047 0)"/>
       <use xlink:href="#DejaVuSans-30" transform="translate(127.246094 0)"/>
      </g>
     </g>
    </g>
    <g id="xtick_9">
     <g id="line2d_9">
      <g>
       <use xlink:href="#m507071b943" x="490.918526" y="188.638125" style="stroke: #000000; stroke-width: 0.8"/>
      </g>
     </g>
     <g id="text_9">
      <!-- 400 -->
      <g transform="translate(481.374776 203.236563) scale(0.1 -0.1)">
       <defs>
        <path id="DejaVuSans-34" d="M 2419 4116 
L 825 1625 
L 2419 1625 
L 2419 4116 
z
M 2253 4666 
L 3047 4666 
L 3047 1625 
L 3713 1625 
L 3713 1100 
L 3047 1100 
L 3047 0 
L 2419 0 
L 2419 1100 
L 313 1100 
L 313 1709 
L 2253 4666 
z
" transform="scale(0.015625)"/>
       </defs>
       <use xlink:href="#DejaVuSans-34"/>
       <use xlink:href="#DejaVuSans-30" transform="translate(63.623047 0)"/>
       <use xlink:href="#DejaVuSans-30" transform="translate(127.246094 0)"/>
      </g>
     </g>
    </g>
    <g id="text_10">
     <!-- Residue -->
     <g transform="translate(259.967188 216.914688) scale(0.1 -0.1)">
      <defs>
       <path id="DejaVuSans-52" d="M 2841 2188 
Q 3044 2119 3236 1894 
Q 3428 1669 3622 1275 
L 4263 0 
L 3584 0 
L 2988 1197 
Q 2756 1666 2539 1819 
Q 2322 1972 1947 1972 
L 1259 1972 
L 1259 0 
L 628 0 
L 628 4666 
L 2053 4666 
Q 2853 4666 3247 4331 
Q 3641 3997 3641 3322 
Q 3641 2881 3436 2590 
Q 3231 2300 2841 2188 
z
M 1259 4147 
L 1259 2491 
L 2053 2491 
Q 2509 2491 2742 2702 
Q 2975 2913 2975 3322 
Q 2975 3731 2742 3939 
Q 2509 4147 2053 4147 
L 1259 4147 
z
" transform="scale(0.015625)"/>
       <path id="DejaVuSans-65" d="M 3597 1894 
L 3597 1613 
L 953 1613 
Q 991 1019 1311 708 
Q 1631 397 2203 397 
Q 2534 397 2845 478 
Q 3156 559 3463 722 
L 3463 178 
Q 3153 47 2828 -22 
Q 2503 -91 2169 -91 
Q 1331 -91 842 396 
Q 353 884 353 1716 
Q 353 2575 817 3079 
Q 1281 3584 2069 3584 
Q 2775 3584 3186 3129 
Q 3597 2675 3597 1894 
z
M 3022 2063 
Q 3016 2534 2758 2815 
Q 2500 3097 2075 3097 
Q 1594 3097 1305 2825 
Q 1016 2553 972 2059 
L 3022 2063 
z
" transform="scale(0.015625)"/>
       <path id="DejaVuSans-73" d="M 2834 3397 
L 2834 2853 
Q 2591 2978 2328 3040 
Q 2066 3103 1784 3103 
Q 1356 3103 1142 2972 
Q 928 2841 928 2578 
Q 928 2378 1081 2264 
Q 1234 2150 1697 2047 
L 1894 2003 
Q 2506 1872 2764 1633 
Q 3022 1394 3022 966 
Q 3022 478 2636 193 
Q 2250 -91 1575 -91 
Q 1294 -91 989 -36 
Q 684 19 347 128 
L 347 722 
Q 666 556 975 473 
Q 1284 391 1588 391 
Q 1994 391 2212 530 
Q 2431 669 2431 922 
Q 2431 1156 2273 1281 
Q 2116 1406 1581 1522 
L 1381 1569 
Q 847 1681 609 1914 
Q 372 2147 372 2553 
Q 372 3047 722 3315 
Q 1072 3584 1716 3584 
Q 2034 3584 2315 3537 
Q 2597 3491 2834 3397 
z
" transform="scale(0.015625)"/>
       <path id="DejaVuSans-69" d="M 603 3500 
L 1178 3500 
L 1178 0 
L 603 0 
L 603 3500 
z
M 603 4863 
L 1178 4863 
L 1178 4134 
L 603 4134 
L 603 4863 
z
" transform="scale(0.015625)"/>
       <path id="DejaVuSans-64" d="M 2906 2969 
L 2906 4863 
L 3481 4863 
L 3481 0 
L 2906 0 
L 2906 525 
Q 2725 213 2448 61 
Q 2172 -91 1784 -91 
Q 1150 -91 751 415 
Q 353 922 353 1747 
Q 353 2572 751 3078 
Q 1150 3584 1784 3584 
Q 2172 3584 2448 3432 
Q 2725 3281 2906 2969 
z
M 947 1747 
Q 947 1113 1208 752 
Q 1469 391 1925 391 
Q 2381 391 2643 752 
Q 2906 1113 2906 1747 
Q 2906 2381 2643 2742 
Q 2381 3103 1925 3103 
Q 1469 3103 1208 2742 
Q 947 2381 947 1747 
z
" transform="scale(0.015625)"/>
       <path id="DejaVuSans-75" d="M 544 1381 
L 544 3500 
L 1119 3500 
L 1119 1403 
Q 1119 906 1312 657 
Q 1506 409 1894 409 
Q 2359 409 2629 706 
Q 2900 1003 2900 1516 
L 2900 3500 
L 3475 3500 
L 3475 0 
L 2900 0 
L 2900 538 
Q 2691 219 2414 64 
Q 2138 -91 1772 -91 
Q 1169 -91 856 284 
Q 544 659 544 1381 
z
M 1991 3584 
L 1991 3584 
z
" transform="scale(0.015625)"/>
      </defs>
      <use xlink:href="#DejaVuSans-52"/>
      <use xlink:href="#DejaVuSans-65" transform="translate(64.982422 0)"/>
      <use xlink:href="#DejaVuSans-73" transform="translate(126.505859 0)"/>
      <use xlink:href="#DejaVuSans-69" transform="translate(178.605469 0)"/>
      <use xlink:href="#DejaVuSans-64" transform="translate(206.388672 0)"/>
      <use xlink:href="#DejaVuSans-75" transform="translate(269.865234 0)"/>
      <use xlink:href="#DejaVuSans-65" transform="translate(333.244141 0)"/>
     </g>
    </g>
   </g>
   <g id="matplotlib.axis_2">
    <g id="ytick_1">
     <g id="line2d_10">
      <defs>
       <path id="md8c345dea7" d="M 0 0 
L -3.5 0 
" style="stroke: #000000; stroke-width: 0.8"/>
      </defs>
      <g>
       <use xlink:href="#md8c345dea7" x="56.50625" y="180.043508" style="stroke: #000000; stroke-width: 0.8"/>
      </g>
     </g>
     <g id="text_11">
      <!-- 0.025 -->
      <g transform="translate(20.878125 183.842727) scale(0.1 -0.1)">
       <defs>
        <path id="DejaVuSans-2e" d="M 684 794 
L 1344 794 
L 1344 0 
L 684 0 
L 684 794 
z
" transform="scale(0.015625)"/>
       </defs>
       <use xlink:href="#DejaVuSans-30"/>
       <use xlink:href="#DejaVuSans-2e" transform="translate(63.623047 0)"/>
       <use xlink:href="#DejaVuSans-30" transform="translate(95.410156 0)"/>
       <use xlink:href="#DejaVuSans-32" transform="translate(159.033203 0)"/>
       <use xlink:href="#DejaVuSans-35" transform="translate(222.65625 0)"/>
      </g>
     </g>
    </g>
    <g id="ytick_2">
     <g id="line2d_11">
      <g>
       <use xlink:href="#md8c345dea7" x="56.50625" y="154.572297" style="stroke: #000000; stroke-width: 0.8"/>
      </g>
     </g>
     <g id="text_12">
      <!-- 0.050 -->
      <g transform="translate(20.878125 158.371516) scale(0.1 -0.1)">
       <use xlink:href="#DejaVuSans-30"/>
       <use xlink:href="#DejaVuSans-2e" transform="translate(63.623047 0)"/>
       <use xlink:href="#DejaVuSans-30" transform="translate(95.410156 0)"/>
       <use xlink:href="#DejaVuSans-35" transform="translate(159.033203 0)"/>
       <use xlink:href="#DejaVuSans-30" transform="translate(222.65625 0)"/>
      </g>
     </g>
    </g>
    <g id="ytick_3">
     <g id="line2d_12">
      <g>
       <use xlink:href="#md8c345dea7" x="56.50625" y="129.101086" style="stroke: #000000; stroke-width: 0.8"/>
      </g>
     </g>
     <g id="text_13">
      <!-- 0.075 -->
      <g transform="translate(20.878125 132.900305) scale(0.1 -0.1)">
       <defs>
        <path id="DejaVuSans-37" d="M 525 4666 
L 3525 4666 
L 3525 4397 
L 1831 0 
L 1172 0 
L 2766 4134 
L 525 4134 
L 525 4666 
z
" transform="scale(0.015625)"/>
       </defs>
       <use xlink:href="#DejaVuSans-30"/>
       <use xlink:href="#DejaVuSans-2e" transform="translate(63.623047 0)"/>
       <use xlink:href="#DejaVuSans-30" transform="translate(95.410156 0)"/>
       <use xlink:href="#DejaVuSans-37" transform="translate(159.033203 0)"/>
       <use xlink:href="#DejaVuSans-35" transform="translate(222.65625 0)"/>
      </g>
     </g>
    </g>
    <g id="ytick_4">
     <g id="line2d_13">
      <g>
       <use xlink:href="#md8c345dea7" x="56.50625" y="103.629875" style="stroke: #000000; stroke-width: 0.8"/>
      </g>
     </g>
     <g id="text_14">
      <!-- 0.100 -->
      <g transform="translate(20.878125 107.429094) scale(0.1 -0.1)">
       <use xlink:href="#DejaVuSans-30"/>
       <use xlink:href="#DejaVuSans-2e" transform="translate(63.623047 0)"/>
       <use xlink:href="#DejaVuSans-31" transform="translate(95.410156 0)"/>
       <use xlink:href="#DejaVuSans-30" transform="translate(159.033203 0)"/>
       <use xlink:href="#DejaVuSans-30" transform="translate(222.65625 0)"/>
      </g>
     </g>
    </g>
    <g id="ytick_5">
     <g id="line2d_14">
      <g>
       <use xlink:href="#md8c345dea7" x="56.50625" y="78.158664" style="stroke: #000000; stroke-width: 0.8"/>
      </g>
     </g>
     <g id="text_15">
      <!-- 0.125 -->
      <g transform="translate(20.878125 81.957883) scale(0.1 -0.1)">
       <use xlink:href="#DejaVuSans-30"/>
       <use xlink:href="#DejaVuSans-2e" transform="translate(63.623047 0)"/>
       <use xlink:href="#DejaVuSans-31" transform="translate(95.410156 0)"/>
       <use xlink:href="#DejaVuSans-32" transform="translate(159.033203 0)"/>
       <use xlink:href="#DejaVuSans-35" transform="translate(222.65625 0)"/>
      </g>
     </g>
    </g>
    <g id="ytick_6">
     <g id="line2d_15">
      <g>
       <use xlink:href="#md8c345dea7" x="56.50625" y="52.687453" style="stroke: #000000; stroke-width: 0.8"/>
      </g>
     </g>
     <g id="text_16">
      <!-- 0.150 -->
      <g transform="translate(20.878125 56.486672) scale(0.1 -0.1)">
       <use xlink:href="#DejaVuSans-30"/>
       <use xlink:href="#DejaVuSans-2e" transform="translate(63.623047 0)"/>
       <use xlink:href="#DejaVuSans-31" transform="translate(95.410156 0)"/>
       <use xlink:href="#DejaVuSans-35" transform="translate(159.033203 0)"/>
       <use xlink:href="#DejaVuSans-30" transform="translate(222.65625 0)"/>
      </g>
     </g>
    </g>
    <g id="ytick_7">
     <g id="line2d_16">
      <g>
       <use xlink:href="#md8c345dea7" x="56.50625" y="27.216242" style="stroke: #000000; stroke-width: 0.8"/>
      </g>
     </g>
     <g id="text_17">
      <!-- 0.175 -->
      <g transform="translate(20.878125 31.015461) scale(0.1 -0.1)">
       <use xlink:href="#DejaVuSans-30"/>
       <use xlink:href="#DejaVuSans-2e" transform="translate(63.623047 0)"/>
       <use xlink:href="#DejaVuSans-31" transform="translate(95.410156 0)"/>
       <use xlink:href="#DejaVuSans-37" transform="translate(159.033203 0)"/>
       <use xlink:href="#DejaVuSans-35" transform="translate(222.65625 0)"/>
      </g>
     </g>
    </g>
    <g id="text_18">
     <!-- RMSF (nm) -->
     <g transform="translate(14.798437 132.846094) rotate(-90) scale(0.1 -0.1)">
      <defs>
       <path id="DejaVuSans-4d" d="M 628 4666 
L 1569 4666 
L 2759 1491 
L 3956 4666 
L 4897 4666 
L 4897 0 
L 4281 0 
L 4281 4097 
L 3078 897 
L 2444 897 
L 1241 4097 
L 1241 0 
L 628 0 
L 628 4666 
z
" transform="scale(0.015625)"/>
       <path id="DejaVuSans-53" d="M 3425 4513 
L 3425 3897 
Q 3066 4069 2747 4153 
Q 2428 4238 2131 4238 
Q 1616 4238 1336 4038 
Q 1056 3838 1056 3469 
Q 1056 3159 1242 3001 
Q 1428 2844 1947 2747 
L 2328 2669 
Q 3034 2534 3370 2195 
Q 3706 1856 3706 1288 
Q 3706 609 3251 259 
Q 2797 -91 1919 -91 
Q 1588 -91 1214 -16 
Q 841 59 441 206 
L 441 856 
Q 825 641 1194 531 
Q 1563 422 1919 422 
Q 2459 422 2753 634 
Q 3047 847 3047 1241 
Q 3047 1584 2836 1778 
Q 2625 1972 2144 2069 
L 1759 2144 
Q 1053 2284 737 2584 
Q 422 2884 422 3419 
Q 422 4038 858 4394 
Q 1294 4750 2059 4750 
Q 2388 4750 2728 4690 
Q 3069 4631 3425 4513 
z
" transform="scale(0.015625)"/>
       <path id="DejaVuSans-46" d="M 628 4666 
L 3309 4666 
L 3309 4134 
L 1259 4134 
L 1259 2759 
L 3109 2759 
L 3109 2228 
L 1259 2228 
L 1259 0 
L 628 0 
L 628 4666 
z
" transform="scale(0.015625)"/>
       <path id="DejaVuSans-20" transform="scale(0.015625)"/>
       <path id="DejaVuSans-28" d="M 1984 4856 
Q 1566 4138 1362 3434 
Q 1159 2731 1159 2009 
Q 1159 1288 1364 580 
Q 1569 -128 1984 -844 
L 1484 -844 
Q 1016 -109 783 600 
Q 550 1309 550 2009 
Q 550 2706 781 3412 
Q 1013 4119 1484 4856 
L 1984 4856 
z
" transform="scale(0.015625)"/>
       <path id="DejaVuSans-6e" d="M 3513 2113 
L 3513 0 
L 2938 0 
L 2938 2094 
Q 2938 2591 2744 2837 
Q 2550 3084 2163 3084 
Q 1697 3084 1428 2787 
Q 1159 2491 1159 1978 
L 1159 0 
L 581 0 
L 581 3500 
L 1159 3500 
L 1159 2956 
Q 1366 3272 1645 3428 
Q 1925 3584 2291 3584 
Q 2894 3584 3203 3211 
Q 3513 2838 3513 2113 
z
" transform="scale(0.015625)"/>
       <path id="DejaVuSans-6d" d="M 3328 2828 
Q 3544 3216 3844 3400 
Q 4144 3584 4550 3584 
Q 5097 3584 5394 3201 
Q 5691 2819 5691 2113 
L 5691 0 
L 5113 0 
L 5113 2094 
Q 5113 2597 4934 2840 
Q 4756 3084 4391 3084 
Q 3944 3084 3684 2787 
Q 3425 2491 3425 1978 
L 3425 0 
L 2847 0 
L 2847 2094 
Q 2847 2600 2669 2842 
Q 2491 3084 2119 3084 
Q 1678 3084 1418 2786 
Q 1159 2488 1159 1978 
L 1159 0 
L 581 0 
L 581 3500 
L 1159 3500 
L 1159 2956 
Q 1356 3278 1631 3431 
Q 1906 3584 2284 3584 
Q 2666 3584 2933 3390 
Q 3200 3197 3328 2828 
z
" transform="scale(0.015625)"/>
       <path id="DejaVuSans-29" d="M 513 4856 
L 1013 4856 
Q 1481 4119 1714 3412 
Q 1947 2706 1947 2009 
Q 1947 1309 1714 600 
Q 1481 -109 1013 -844 
L 513 -844 
Q 928 -128 1133 580 
Q 1338 1288 1338 2009 
Q 1338 2731 1133 3434 
Q 928 4138 513 4856 
z
" transform="scale(0.015625)"/>
      </defs>
      <use xlink:href="#DejaVuSans-52"/>
      <use xlink:href="#DejaVuSans-4d" transform="translate(69.482422 0)"/>
      <use xlink:href="#DejaVuSans-53" transform="translate(155.761719 0)"/>
      <use xlink:href="#DejaVuSans-46" transform="translate(219.238281 0)"/>
      <use xlink:href="#DejaVuSans-20" transform="translate(276.757812 0)"/>
      <use xlink:href="#DejaVuSans-28" transform="translate(308.544922 0)"/>
      <use xlink:href="#DejaVuSans-6e" transform="translate(347.558594 0)"/>
      <use xlink:href="#DejaVuSans-6d" transform="translate(410.9375 0)"/>
      <use xlink:href="#DejaVuSans-29" transform="translate(508.349609 0)"/>
     </g>
    </g>
   </g>
   <g id="line2d_17">
    <path d="M 76.797159 29.878125 
L 77.835057 45.005874 
L 78.872955 114.006416 
L 79.910854 136.208313 
L 80.948752 133.511947 
L 81.98665 60.547865 
L 83.024548 134.204475 
L 84.062446 108.544553 
L 86.138243 149.396968 
L 87.176141 155.498343 
L 88.214039 149.659891 
L 89.251937 148.964713 
L 90.289835 155.987648 
L 91.327733 144.777165 
L 92.365632 141.391669 
L 93.40353 144.328681 
L 94.441428 118.365448 
L 95.479326 136.552421 
L 96.517224 127.631759 
L 97.555122 162.697246 
L 98.593021 166.372199 
L 99.630919 158.277477 
L 100.668817 159.047308 
L 101.706715 167.148813 
L 102.744613 149.657632 
L 103.782511 161.592362 
L 104.820409 141.421866 
L 105.858308 135.243966 
L 106.896206 155.661136 
L 107.934104 154.30909 
L 108.972002 150.596257 
L 110.0099 139.081868 
L 111.047798 155.269159 
L 112.085697 165.302155 
L 113.123595 160.78767 
L 114.161493 166.316921 
L 115.199391 100.221957 
L 116.237289 121.857246 
L 117.275187 91.140912 
L 118.313086 136.529329 
L 119.350984 161.296355 
L 120.388882 165.535518 
L 121.42678 167.247105 
L 122.464678 149.275284 
L 124.540475 161.213924 
L 125.578373 159.913113 
L 126.616271 147.239257 
L 127.654169 140.963551 
L 128.692067 157.262073 
L 130.767864 136.000539 
L 131.805762 166.476617 
L 132.84366 157.138454 
L 133.881558 153.697816 
L 134.919456 161.691721 
L 135.957354 163.246 
L 136.995253 161.272352 
L 138.033151 160.010528 
L 139.071049 148.555664 
L 140.108947 129.795623 
L 141.146845 148.881296 
L 142.184743 174.470378 
L 143.222642 174.020004 
L 144.26054 172.084083 
L 145.298438 171.940142 
L 146.336336 168.735258 
L 147.374234 163.490134 
L 148.412132 159.875978 
L 149.450031 165.072777 
L 150.487929 157.260843 
L 151.525827 156.486363 
L 152.563725 155.151441 
L 153.601623 155.939184 
L 154.639521 145.075086 
L 155.677419 146.10472 
L 156.715318 156.053853 
L 157.753216 149.711771 
L 158.791114 150.668725 
L 159.829012 153.536233 
L 160.86691 159.919106 
L 161.904808 162.394516 
L 162.942707 169.96334 
L 163.980605 159.325109 
L 165.018503 160.676932 
L 166.056401 165.082122 
L 167.094299 153.700761 
L 168.132197 157.295872 
L 169.170096 151.444982 
L 170.207994 155.459166 
L 171.245892 166.894666 
L 172.28379 168.608955 
L 173.321688 159.786388 
L 174.359586 143.463313 
L 175.397485 144.347381 
L 177.473281 101.19451 
L 178.511179 124.097574 
L 179.549077 102.14158 
L 180.586975 113.701659 
L 181.624874 137.590219 
L 182.662772 108.246963 
L 183.70067 110.355921 
L 184.738568 137.342509 
L 185.776466 153.12477 
L 186.814364 160.235116 
L 187.852263 158.360903 
L 188.890161 164.168919 
L 189.928059 174.449036 
L 190.965957 166.236343 
L 192.003855 176.262493 
L 193.041753 178.555263 
L 194.079652 176.338802 
L 195.11755 178.06782 
L 196.155448 178.621719 
L 197.193346 181.078125 
L 198.231244 175.929919 
L 199.269142 174.486862 
L 200.307041 167.639249 
L 201.344939 166.895679 
L 202.382837 163.890018 
L 203.420735 149.315615 
L 204.458633 155.863816 
L 205.496531 154.107009 
L 206.534429 148.16021 
L 207.572328 146.341343 
L 208.610226 138.651116 
L 209.648124 138.434172 
L 210.686022 134.340347 
L 211.72392 123.566241 
L 212.761818 110.344428 
L 213.799717 140.365478 
L 214.837615 135.154217 
L 215.875513 134.921325 
L 216.913411 166.428972 
L 217.951309 160.810211 
L 218.989207 166.983875 
L 220.027106 169.389771 
L 221.065004 158.785396 
L 222.102902 154.582563 
L 223.1408 172.327675 
L 224.178698 173.486932 
L 225.216596 165.47419 
L 226.254495 165.276789 
L 227.292393 158.126511 
L 228.330291 159.787261 
L 229.368189 163.499881 
L 230.406087 180.222056 
L 231.443985 178.224411 
L 232.481884 179.859475 
L 233.519782 176.694572 
L 235.595578 139.054191 
L 236.633476 140.320372 
L 237.671374 141.176684 
L 238.709273 141.678882 
L 239.747171 140.285628 
L 240.785069 163.18512 
L 241.822967 154.119705 
L 242.860865 151.176419 
L 243.898763 74.434164 
L 244.936662 75.222491 
L 245.97456 143.948994 
L 247.012458 171.751726 
L 248.050356 175.622639 
L 250.126152 147.028181 
L 251.164051 153.446511 
L 252.201949 132.671774 
L 253.239847 159.183962 
L 254.277745 166.007246 
L 255.315643 171.040527 
L 256.353541 163.923016 
L 257.391439 166.014955 
L 258.429338 166.738059 
L 259.467236 170.807388 
L 260.505134 169.662592 
L 261.543032 162.424053 
L 262.58093 148.278713 
L 263.618828 131.397129 
L 264.656727 125.575764 
L 265.694625 118.829267 
L 267.770421 147.479725 
L 268.808319 149.429792 
L 269.846217 155.028501 
L 270.884116 157.895236 
L 271.922014 161.771977 
L 272.959912 169.927704 
L 273.99781 180.792033 
L 275.035708 176.800903 
L 276.073606 177.523201 
L 277.111505 177.91098 
L 278.149403 169.440904 
L 279.187301 169.065855 
L 280.225199 167.011374 
L 281.263097 163.180311 
L 282.300995 169.485296 
L 283.338894 168.07402 
L 284.376792 174.10058 
L 285.41469 151.947173 
L 286.452588 158.780944 
L 287.490486 171.880165 
L 288.528384 123.980642 
L 290.604181 145.040046 
L 291.642079 152.210649 
L 292.679977 138.593697 
L 293.717875 101.909887 
L 294.755773 140.442117 
L 295.793672 147.863846 
L 297.869468 167.758792 
L 298.907366 158.64415 
L 299.945264 172.785675 
L 300.983162 168.531952 
L 302.021061 165.466716 
L 303.058959 152.122347 
L 304.096857 161.633062 
L 305.134755 157.736436 
L 306.172653 140.859243 
L 307.210551 140.916115 
L 308.248449 144.26196 
L 309.286348 162.508085 
L 310.324246 167.108091 
L 311.362144 148.608718 
L 312.400042 138.712755 
L 313.43794 146.957699 
L 314.475838 129.491808 
L 315.513737 127.36971 
L 316.551635 102.327734 
L 317.589533 97.906372 
L 318.627431 95.958594 
L 319.665329 94.622151 
L 320.703227 94.599681 
L 321.741126 110.337983 
L 322.779024 128.903368 
L 323.816922 112.903821 
L 324.85482 127.59779 
L 325.892718 150.234196 
L 326.930616 143.747088 
L 327.968515 149.237902 
L 329.006413 153.600488 
L 330.044311 163.224593 
L 331.082209 150.615273 
L 333.158005 154.154582 
L 334.195904 154.768805 
L 335.233802 155.959463 
L 336.2717 154.209905 
L 337.309598 159.031811 
L 338.347496 166.619624 
L 340.423293 162.077538 
L 341.461191 139.972886 
L 342.499089 152.010493 
L 343.536987 159.942604 
L 344.574885 162.794069 
L 345.612783 141.706347 
L 346.650682 165.443321 
L 347.68858 169.752534 
L 348.726478 159.84846 
L 349.764376 153.289989 
L 350.802274 160.135294 
L 351.840172 150.194954 
L 352.878071 132.765842 
L 353.915969 134.098285 
L 354.953867 117.508051 
L 355.991765 143.554132 
L 357.029663 140.964803 
L 358.067561 142.991733 
L 360.143358 155.444204 
L 361.181256 140.671912 
L 362.219154 156.856595 
L 363.257052 166.958092 
L 364.29495 147.045705 
L 365.332848 162.595321 
L 366.370747 165.735324 
L 367.408645 155.282303 
L 368.446543 158.171154 
L 369.484441 152.052915 
L 370.522339 152.420074 
L 371.560237 157.707184 
L 372.598136 161.789566 
L 373.636034 162.380674 
L 374.673932 166.538556 
L 375.71183 168.322865 
L 376.749728 160.586929 
L 377.787626 160.016935 
L 378.825525 164.203132 
L 379.863423 170.463398 
L 380.901321 166.390926 
L 381.939219 165.721384 
L 382.977117 168.429219 
L 384.015015 168.375425 
L 385.052914 167.407693 
L 386.090812 164.588808 
L 387.12871 164.490436 
L 388.166608 153.122649 
L 389.204506 129.657079 
L 390.242404 140.747989 
L 391.280303 160.017641 
L 392.318201 160.742196 
L 393.356099 152.838384 
L 394.393997 142.328825 
L 395.431895 140.643073 
L 396.469793 146.463315 
L 397.507692 159.185294 
L 398.54559 151.416052 
L 399.583488 164.738059 
L 400.621386 165.5723 
L 401.659284 172.812923 
L 402.697182 166.805354 
L 403.735081 173.371868 
L 404.772979 172.463 
L 405.810877 176.030453 
L 406.848775 175.130316 
L 407.886673 165.698971 
L 408.924571 167.028275 
L 409.962469 167.247982 
L 411.000368 161.770626 
L 412.038266 163.368227 
L 413.076164 160.327092 
L 414.114062 170.263067 
L 415.15196 175.656886 
L 416.189858 172.981344 
L 417.227757 165.665032 
L 418.265655 173.715166 
L 419.303553 176.996265 
L 420.341451 172.893 
L 421.379349 158.219896 
L 422.417247 168.053942 
L 423.455146 156.110391 
L 424.493044 136.520592 
L 425.530942 155.24981 
L 427.606738 137.741743 
L 428.644636 142.305065 
L 429.682535 148.218722 
L 430.720433 163.910464 
L 431.758331 159.849861 
L 432.796229 170.941286 
L 433.834127 168.731968 
L 434.872025 176.038482 
L 435.909924 175.754404 
L 436.947822 179.492345 
L 437.98572 173.256177 
L 439.023618 176.244077 
L 440.061516 171.300747 
L 441.099414 172.274925 
L 442.137313 169.506801 
L 443.175211 171.763693 
L 444.213109 175.571937 
L 445.251007 163.082205 
L 446.288905 156.37309 
L 447.326803 153.692153 
L 448.364702 155.352148 
L 449.4026 145.450799 
L 451.478396 141.731906 
L 452.516294 165.014357 
L 455.629989 156.126503 
L 456.667887 162.508339 
L 457.705785 162.202167 
L 458.743683 169.851008 
L 459.781581 172.937024 
L 460.819479 150.742589 
L 461.857378 159.808087 
L 462.895276 164.884455 
L 463.933174 162.65904 
L 466.00897 169.999944 
L 467.046868 173.547038 
L 468.084767 170.240036 
L 469.122665 163.248273 
L 470.160563 160.498095 
L 471.198461 161.118319 
L 472.236359 160.604768 
L 473.274257 159.880452 
L 474.312156 168.009455 
L 475.350054 162.437394 
L 476.387952 168.803338 
L 477.42585 167.866015 
L 478.463748 165.176076 
L 480.539545 129.160324 
L 481.577443 145.833356 
L 482.615341 146.784984 
L 482.615341 146.784984 
" clip-path="url(#p61da1a46f9)" style="fill: none; stroke: #1f77b4; stroke-width: 1.5; stroke-linecap: square"/>
   </g>
   <g id="patch_3">
    <path d="M 56.50625 188.638125 
L 56.50625 22.318125 
" style="fill: none; stroke: #000000; stroke-width: 0.8; stroke-linejoin: miter; stroke-linecap: square"/>
   </g>
   <g id="patch_4">
    <path d="M 502.90625 188.638125 
L 502.90625 22.318125 
" style="fill: none; stroke: #000000; stroke-width: 0.8; stroke-linejoin: miter; stroke-linecap: square"/>
   </g>
   <g id="patch_5">
    <path d="M 56.50625 188.638125 
L 502.90625 188.638125 
" style="fill: none; stroke: #000000; stroke-width: 0.8; stroke-linejoin: miter; stroke-linecap: square"/>
   </g>
   <g id="patch_6">
    <path d="M 56.50625 22.318125 
L 502.90625 22.318125 
" style="fill: none; stroke: #000000; stroke-width: 0.8; stroke-linejoin: miter; stroke-linecap: square"/>
   </g>
   <g id="text_19">
    <!-- Protein CA RMSF -->
    <g transform="translate(229.963437 16.318125) scale(0.12 -0.12)">
     <defs>
      <path id="DejaVuSans-50" d="M 1259 4147 
L 1259 2394 
L 2053 2394 
Q 2494 2394 2734 2622 
Q 2975 2850 2975 3272 
Q 2975 3691 2734 3919 
Q 2494 4147 2053 4147 
L 1259 4147 
z
M 628 4666 
L 2053 4666 
Q 2838 4666 3239 4311 
Q 3641 3956 3641 3272 
Q 3641 2581 3239 2228 
Q 2838 1875 2053 1875 
L 1259 1875 
L 1259 0 
L 628 0 
L 628 4666 
z
" transform="scale(0.015625)"/>
      <path id="DejaVuSans-72" d="M 2631 2963 
Q 2534 3019 2420 3045 
Q 2306 3072 2169 3072 
Q 1681 3072 1420 2755 
Q 1159 2438 1159 1844 
L 1159 0 
L 581 0 
L 581 3500 
L 1159 3500 
L 1159 2956 
Q 1341 3275 1631 3429 
Q 1922 3584 2338 3584 
Q 2397 3584 2469 3576 
Q 2541 3569 2628 3553 
L 2631 2963 
z
" transform="scale(0.015625)"/>
      <path id="DejaVuSans-6f" d="M 1959 3097 
Q 1497 3097 1228 2736 
Q 959 2375 959 1747 
Q 959 1119 1226 758 
Q 1494 397 1959 397 
Q 2419 397 2687 759 
Q 2956 1122 2956 1747 
Q 2956 2369 2687 2733 
Q 2419 3097 1959 3097 
z
M 1959 3584 
Q 2709 3584 3137 3096 
Q 3566 2609 3566 1747 
Q 3566 888 3137 398 
Q 2709 -91 1959 -91 
Q 1206 -91 779 398 
Q 353 888 353 1747 
Q 353 2609 779 3096 
Q 1206 3584 1959 3584 
z
" transform="scale(0.015625)"/>
      <path id="DejaVuSans-74" d="M 1172 4494 
L 1172 3500 
L 2356 3500 
L 2356 3053 
L 1172 3053 
L 1172 1153 
Q 1172 725 1289 603 
Q 1406 481 1766 481 
L 2356 481 
L 2356 0 
L 1766 0 
Q 1100 0 847 248 
Q 594 497 594 1153 
L 594 3053 
L 172 3053 
L 172 3500 
L 594 3500 
L 594 4494 
L 1172 4494 
z
" transform="scale(0.015625)"/>
      <path id="DejaVuSans-43" d="M 4122 4306 
L 4122 3641 
Q 3803 3938 3442 4084 
Q 3081 4231 2675 4231 
Q 1875 4231 1450 3742 
Q 1025 3253 1025 2328 
Q 1025 1406 1450 917 
Q 1875 428 2675 428 
Q 3081 428 3442 575 
Q 3803 722 4122 1019 
L 4122 359 
Q 3791 134 3420 21 
Q 3050 -91 2638 -91 
Q 1578 -91 968 557 
Q 359 1206 359 2328 
Q 359 3453 968 4101 
Q 1578 4750 2638 4750 
Q 3056 4750 3426 4639 
Q 3797 4528 4122 4306 
z
" transform="scale(0.015625)"/>
      <path id="DejaVuSans-41" d="M 2188 4044 
L 1331 1722 
L 3047 1722 
L 2188 4044 
z
M 1831 4666 
L 2547 4666 
L 4325 0 
L 3669 0 
L 3244 1197 
L 1141 1197 
L 716 0 
L 50 0 
L 1831 4666 
z
" transform="scale(0.015625)"/>
     </defs>
     <use xlink:href="#DejaVuSans-50"/>
     <use xlink:href="#DejaVuSans-72" transform="translate(58.552734 0)"/>
     <use xlink:href="#DejaVuSans-6f" transform="translate(97.416016 0)"/>
     <use xlink:href="#DejaVuSans-74" transform="translate(158.597656 0)"/>
     <use xlink:href="#DejaVuSans-65" transform="translate(197.806641 0)"/>
     <use xlink:href="#DejaVuSans-69" transform="translate(259.330078 0)"/>
     <use xlink:href="#DejaVuSans-6e" transform="translate(287.113281 0)"/>
     <use xlink:href="#DejaVuSans-20" transform="translate(350.492188 0)"/>
     <use xlink:href="#DejaVuSans-43" transform="translate(382.279297 0)"/>
     <use xlink:href="#DejaVuSans-41" transform="translate(452.103516 0)"/>
     <use xlink:href="#DejaVuSans-20" transform="translate(520.511719 0)"/>
     <use xlink:href="#DejaVuSans-52" transform="translate(552.298828 0)"/>
     <use xlink:href="#DejaVuSans-4d" transform="translate(621.78125 0)"/>
     <use xlink:href="#DejaVuSans-53" transform="translate(708.060547 0)"/>
     <use xlink:href="#DejaVuSans-46" transform="translate(771.537109 0)"/>
    </g>
   </g>
  </g>
 </g>
 <defs>
  <clipPath id="p61da1a46f9">
   <rect x="56.50625" y="22.318125" width="446.4" height="166.32"/>
  </clipPath>
 </defs>
</svg>
